<?xml version="1.0" encoding="UTF-8" standalone="no"?>
<!DOCTYPE svg PUBLIC "-//W3C//DTD SVG 1.1//EN"
 "http://www.w3.org/Graphics/SVG/1.1/DTD/svg11.dtd">
<!-- Generated by graphviz version 5.0.0 (20220707.1540)
 -->
<!-- Title: dependencies Pages: 1 -->
<svg width="1882pt" height="247pt"
 viewBox="0.00 0.00 1882.00 246.80" xmlns="http://www.w3.org/2000/svg" xmlns:xlink="http://www.w3.org/1999/xlink">
<g id="graph0" class="graph" transform="scale(1 1) rotate(0) translate(4 242.8)">
<title>dependencies</title>
<polygon fill="white" stroke="transparent" points="-4,4 -4,-242.8 1878,-242.8 1878,4 -4,4"/>
<text text-anchor="middle" x="937" y="-8.2" font-family="sans-serif" font-size="14.00">dependencies</text>
<g id="clust1" class="cluster">
<title>cluster_SharedModule</title>
<polygon fill="none" stroke="black" stroke-dasharray="1,5" points="8,-32.8 8,-230.8 1866,-230.8 1866,-32.8 8,-32.8"/>
</g>
<g id="clust13" class="cluster">
<title>cluster_SharedModule_exports</title>
<polygon fill="none" stroke="black" points="16,-170.8 16,-222.8 1858,-222.8 1858,-170.8 16,-170.8"/>
</g>
<g id="clust2" class="cluster">
<title>cluster_SharedModule_declarations</title>
<polygon fill="none" stroke="black" points="32,-40.8 32,-92.8 1843,-92.8 1843,-40.8 32,-40.8"/>
</g>
<!-- AutocompleteCheckboxComponent -->
<g id="node1" class="node">
<title>AutocompleteCheckboxComponent</title>
<polygon fill="#ffffb3" stroke="black" points="1834.91,-84.8 1617.09,-84.8 1617.09,-48.8 1834.91,-48.8 1834.91,-84.8"/>
<text text-anchor="middle" x="1726" y="-62.6" font-family="Times,serif" font-size="14.00">AutocompleteCheckboxComponent</text>
</g>
<!-- SharedModule -->
<g id="node10" class="node">
<title>SharedModule</title>
<polygon fill="#8dd3c7" stroke="black" points="921.43,-149.8 918.43,-153.8 897.43,-153.8 894.43,-149.8 822.57,-149.8 822.57,-113.8 921.43,-113.8 921.43,-149.8"/>
<text text-anchor="middle" x="872" y="-127.6" font-family="Times,serif" font-size="14.00">SharedModule</text>
</g>
<!-- AutocompleteCheckboxComponent&#45;&gt;SharedModule -->
<g id="edge1" class="edge">
<title>AutocompleteCheckboxComponent&#45;&gt;SharedModule</title>
<path fill="none" stroke="black" d="M1623.42,-85.02C1623.42,-103.63 1623.42,-129.8 1623.42,-129.8 1623.42,-129.8 931.3,-129.8 931.3,-129.8"/>
<polygon fill="black" stroke="black" points="931.3,-126.3 921.3,-129.8 931.3,-133.3 931.3,-126.3"/>
</g>
<!-- DoubleAutocompleteComponent -->
<g id="node2" class="node">
<title>DoubleAutocompleteComponent</title>
<polygon fill="#ffffb3" stroke="black" points="1598.86,-84.8 1397.14,-84.8 1397.14,-48.8 1598.86,-48.8 1598.86,-84.8"/>
<text text-anchor="middle" x="1498" y="-62.6" font-family="Times,serif" font-size="14.00">DoubleAutocompleteComponent</text>
</g>
<!-- DoubleAutocompleteComponent&#45;&gt;SharedModule -->
<g id="edge2" class="edge">
<title>DoubleAutocompleteComponent&#45;&gt;SharedModule</title>
<path fill="none" stroke="black" d="M1401.7,-84.82C1401.7,-102.17 1401.7,-125.8 1401.7,-125.8 1401.7,-125.8 931.36,-125.8 931.36,-125.8"/>
<polygon fill="black" stroke="black" points="931.36,-122.3 921.36,-125.8 931.36,-129.3 931.36,-122.3"/>
</g>
<!-- GenericAutocompleteComponent -->
<g id="node3" class="node">
<title>GenericAutocompleteComponent</title>
<polygon fill="#ffffb3" stroke="black" points="1379.45,-84.8 1174.55,-84.8 1174.55,-48.8 1379.45,-48.8 1379.45,-84.8"/>
<text text-anchor="middle" x="1277" y="-62.6" font-family="Times,serif" font-size="14.00">GenericAutocompleteComponent</text>
</g>
<!-- GenericAutocompleteComponent&#45;&gt;SharedModule -->
<g id="edge3" class="edge">
<title>GenericAutocompleteComponent&#45;&gt;SharedModule</title>
<path fill="none" stroke="black" d="M1312.91,-84.81C1312.91,-100.85 1312.91,-121.8 1312.91,-121.8 1312.91,-121.8 931.29,-121.8 931.29,-121.8"/>
<polygon fill="black" stroke="black" points="931.29,-118.3 921.29,-121.8 931.29,-125.3 931.29,-118.3"/>
</g>
<!-- NotDuplicateNameDirective -->
<g id="node4" class="node">
<title>NotDuplicateNameDirective</title>
<polygon fill="#ffffb3" stroke="black" points="1156.43,-84.8 979.57,-84.8 979.57,-48.8 1156.43,-48.8 1156.43,-84.8"/>
<text text-anchor="middle" x="1068" y="-62.6" font-family="Times,serif" font-size="14.00">NotDuplicateNameDirective</text>
</g>
<!-- NotDuplicateNameDirective&#45;&gt;SharedModule -->
<g id="edge4" class="edge">
<title>NotDuplicateNameDirective&#45;&gt;SharedModule</title>
<path fill="none" stroke="black" d="M1098.24,-84.92C1098.24,-99.58 1098.24,-117.8 1098.24,-117.8 1098.24,-117.8 931.37,-117.8 931.37,-117.8"/>
<polygon fill="black" stroke="black" points="931.37,-114.3 921.37,-117.8 931.37,-121.3 931.37,-114.3"/>
</g>
<!-- PopupDeleteItemComponent -->
<g id="node5" class="node">
<title>PopupDeleteItemComponent</title>
<polygon fill="#ffffb3" stroke="black" points="961.8,-84.8 782.2,-84.8 782.2,-48.8 961.8,-48.8 961.8,-84.8"/>
<text text-anchor="middle" x="872" y="-62.6" font-family="Times,serif" font-size="14.00">PopupDeleteItemComponent</text>
</g>
<!-- PopupDeleteItemComponent&#45;&gt;SharedModule -->
<g id="edge5" class="edge">
<title>PopupDeleteItemComponent&#45;&gt;SharedModule</title>
<path fill="none" stroke="black" d="M872,-84.91C872,-84.91 872,-103.79 872,-103.79"/>
<polygon fill="black" stroke="black" points="868.5,-103.79 872,-113.79 875.5,-103.79 868.5,-103.79"/>
</g>
<!-- ShouldBeEditablePipe -->
<g id="node6" class="node">
<title>ShouldBeEditablePipe</title>
<polygon fill="#ffffb3" stroke="black" points="764.27,-84.8 621.73,-84.8 621.73,-48.8 764.27,-48.8 764.27,-84.8"/>
<text text-anchor="middle" x="693" y="-62.6" font-family="Times,serif" font-size="14.00">ShouldBeEditablePipe</text>
</g>
<!-- ShouldBeEditablePipe&#45;&gt;SharedModule -->
<g id="edge6" class="edge">
<title>ShouldBeEditablePipe&#45;&gt;SharedModule</title>
<path fill="none" stroke="black" d="M715.29,-84.92C715.29,-99.58 715.29,-117.8 715.29,-117.8 715.29,-117.8 812.42,-117.8 812.42,-117.8"/>
<polygon fill="black" stroke="black" points="812.42,-121.3 822.42,-117.8 812.42,-114.3 812.42,-121.3"/>
</g>
<!-- TagsetValueNotDuplicateNameDirective -->
<g id="node7" class="node">
<title>TagsetValueNotDuplicateNameDirective</title>
<polygon fill="#ffffb3" stroke="black" points="603.68,-84.8 356.32,-84.8 356.32,-48.8 603.68,-48.8 603.68,-84.8"/>
<text text-anchor="middle" x="480" y="-62.6" font-family="Times,serif" font-size="14.00">TagsetValueNotDuplicateNameDirective</text>
</g>
<!-- TagsetValueNotDuplicateNameDirective&#45;&gt;SharedModule -->
<g id="edge7" class="edge">
<title>TagsetValueNotDuplicateNameDirective&#45;&gt;SharedModule</title>
<path fill="none" stroke="black" d="M517.11,-84.81C517.11,-100.85 517.11,-121.8 517.11,-121.8 517.11,-121.8 812.65,-121.8 812.65,-121.8"/>
<polygon fill="black" stroke="black" points="812.65,-125.3 822.65,-121.8 812.65,-118.3 812.65,-125.3"/>
</g>
<!-- UriValidator -->
<g id="node8" class="node">
<title>UriValidator</title>
<polygon fill="#ffffb3" stroke="black" points="337.53,-84.8 250.47,-84.8 250.47,-48.8 337.53,-48.8 337.53,-84.8"/>
<text text-anchor="middle" x="294" y="-62.6" font-family="Times,serif" font-size="14.00">UriValidator</text>
</g>
<!-- UriValidator&#45;&gt;SharedModule -->
<g id="edge8" class="edge">
<title>UriValidator&#45;&gt;SharedModule</title>
<path fill="none" stroke="black" d="M333.14,-84.82C333.14,-102.17 333.14,-125.8 333.14,-125.8 333.14,-125.8 812.75,-125.8 812.75,-125.8"/>
<polygon fill="black" stroke="black" points="812.75,-129.3 822.75,-125.8 812.75,-122.3 812.75,-129.3"/>
</g>
<!-- WhitespacesValidatorDirective -->
<g id="node9" class="node">
<title>WhitespacesValidatorDirective</title>
<polygon fill="#ffffb3" stroke="black" points="231.7,-84.8 40.3,-84.8 40.3,-48.8 231.7,-48.8 231.7,-84.8"/>
<text text-anchor="middle" x="136" y="-62.6" font-family="Times,serif" font-size="14.00">WhitespacesValidatorDirective</text>
</g>
<!-- WhitespacesValidatorDirective&#45;&gt;SharedModule -->
<g id="edge9" class="edge">
<title>WhitespacesValidatorDirective&#45;&gt;SharedModule</title>
<path fill="none" stroke="black" d="M225.72,-85.02C225.72,-103.63 225.72,-129.8 225.72,-129.8 225.72,-129.8 812.63,-129.8 812.63,-129.8"/>
<polygon fill="black" stroke="black" points="812.63,-133.3 822.63,-129.8 812.63,-126.3 812.63,-133.3"/>
</g>
<!-- AutocompleteCheckboxComponent  -->
<g id="node11" class="node">
<title>AutocompleteCheckboxComponent </title>
<polygon fill="#fb8072" stroke="black" points="1850.41,-214.8 1629.59,-214.8 1629.59,-178.8 1850.41,-178.8 1850.41,-214.8"/>
<text text-anchor="middle" x="1740" y="-192.6" font-family="Times,serif" font-size="14.00">AutocompleteCheckboxComponent </text>
</g>
<!-- SharedModule&#45;&gt;AutocompleteCheckboxComponent  -->
<g id="edge10" class="edge">
<title>SharedModule&#45;&gt;AutocompleteCheckboxComponent </title>
<path fill="none" stroke="black" stroke-dasharray="5,2" d="M921.33,-133.8C1104.1,-133.8 1732.12,-133.8 1732.12,-133.8 1732.12,-133.8 1732.12,-168.58 1732.12,-168.58"/>
<polygon fill="black" stroke="black" points="1728.63,-168.58 1732.12,-178.58 1735.63,-168.58 1728.63,-168.58"/>
</g>
<!-- DoubleAutocompleteComponent  -->
<g id="node12" class="node">
<title>DoubleAutocompleteComponent </title>
<polygon fill="#fb8072" stroke="black" points="1611.86,-214.8 1406.14,-214.8 1406.14,-178.8 1611.86,-178.8 1611.86,-214.8"/>
<text text-anchor="middle" x="1509" y="-192.6" font-family="Times,serif" font-size="14.00">DoubleAutocompleteComponent </text>
</g>
<!-- SharedModule&#45;&gt;DoubleAutocompleteComponent  -->
<g id="edge11" class="edge">
<title>SharedModule&#45;&gt;DoubleAutocompleteComponent </title>
<path fill="none" stroke="black" stroke-dasharray="5,2" d="M921.22,-137.8C1069.64,-137.8 1502.62,-137.8 1502.62,-137.8 1502.62,-137.8 1502.62,-168.78 1502.62,-168.78"/>
<polygon fill="black" stroke="black" points="1499.13,-168.78 1502.62,-178.78 1506.13,-168.78 1499.13,-168.78"/>
</g>
<!-- GenericAutocompleteComponent  -->
<g id="node13" class="node">
<title>GenericAutocompleteComponent </title>
<polygon fill="#fb8072" stroke="black" points="1388.45,-214.8 1179.55,-214.8 1179.55,-178.8 1388.45,-178.8 1388.45,-214.8"/>
<text text-anchor="middle" x="1284" y="-192.6" font-family="Times,serif" font-size="14.00">GenericAutocompleteComponent </text>
</g>
<!-- SharedModule&#45;&gt;GenericAutocompleteComponent  -->
<g id="edge12" class="edge">
<title>SharedModule&#45;&gt;GenericAutocompleteComponent </title>
<path fill="none" stroke="black" stroke-dasharray="5,2" d="M921.32,-141.8C1022.97,-141.8 1246.34,-141.8 1246.34,-141.8 1246.34,-141.8 1246.34,-168.79 1246.34,-168.79"/>
<polygon fill="black" stroke="black" points="1242.84,-168.79 1246.34,-178.79 1249.84,-168.79 1242.84,-168.79"/>
</g>
<!-- NotDuplicateNameDirective  -->
<g id="node14" class="node">
<title>NotDuplicateNameDirective </title>
<polygon fill="#fb8072" stroke="black" points="1162.43,-214.8 981.57,-214.8 981.57,-178.8 1162.43,-178.8 1162.43,-214.8"/>
<text text-anchor="middle" x="1072" y="-192.6" font-family="Times,serif" font-size="14.00">NotDuplicateNameDirective </text>
</g>
<!-- SharedModule&#45;&gt;NotDuplicateNameDirective  -->
<g id="edge13" class="edge">
<title>SharedModule&#45;&gt;NotDuplicateNameDirective </title>
<path fill="none" stroke="black" stroke-dasharray="5,2" d="M921.5,-145.8C971.06,-145.8 1040.01,-145.8 1040.01,-145.8 1040.01,-145.8 1040.01,-168.68 1040.01,-168.68"/>
<polygon fill="black" stroke="black" points="1036.51,-168.68 1040.01,-178.68 1043.51,-168.68 1036.51,-168.68"/>
</g>
<!-- PopupDeleteItemComponent  -->
<g id="node15" class="node">
<title>PopupDeleteItemComponent </title>
<polygon fill="#fb8072" stroke="black" points="963.3,-214.8 780.7,-214.8 780.7,-178.8 963.3,-178.8 963.3,-214.8"/>
<text text-anchor="middle" x="872" y="-192.6" font-family="Times,serif" font-size="14.00">PopupDeleteItemComponent </text>
</g>
<!-- SharedModule&#45;&gt;PopupDeleteItemComponent  -->
<g id="edge14" class="edge">
<title>SharedModule&#45;&gt;PopupDeleteItemComponent </title>
<path fill="none" stroke="black" stroke-dasharray="5,2" d="M872,-149.91C872,-149.91 872,-168.79 872,-168.79"/>
<polygon fill="black" stroke="black" points="868.5,-168.79 872,-178.79 875.5,-168.79 868.5,-168.79"/>
</g>
<!-- ShouldBeEditablePipe  -->
<g id="node16" class="node">
<title>ShouldBeEditablePipe </title>
<polygon fill="#fb8072" stroke="black" points="762.27,-214.8 615.73,-214.8 615.73,-178.8 762.27,-178.8 762.27,-214.8"/>
<text text-anchor="middle" x="689" y="-192.6" font-family="Times,serif" font-size="14.00">ShouldBeEditablePipe </text>
</g>
<!-- SharedModule&#45;&gt;ShouldBeEditablePipe  -->
<g id="edge15" class="edge">
<title>SharedModule&#45;&gt;ShouldBeEditablePipe </title>
<path fill="none" stroke="black" stroke-dasharray="5,2" d="M822.73,-145.8C762.49,-145.8 668.46,-145.8 668.46,-145.8 668.46,-145.8 668.46,-168.68 668.46,-168.68"/>
<polygon fill="black" stroke="black" points="664.96,-168.68 668.46,-178.68 671.96,-168.68 664.96,-168.68"/>
</g>
<!-- TagsetValueNotDuplicateNameDirective  -->
<g id="node17" class="node">
<title>TagsetValueNotDuplicateNameDirective </title>
<polygon fill="#fb8072" stroke="black" points="597.68,-214.8 346.32,-214.8 346.32,-178.8 597.68,-178.8 597.68,-214.8"/>
<text text-anchor="middle" x="472" y="-192.6" font-family="Times,serif" font-size="14.00">TagsetValueNotDuplicateNameDirective </text>
</g>
<!-- SharedModule&#45;&gt;TagsetValueNotDuplicateNameDirective  -->
<g id="edge16" class="edge">
<title>SharedModule&#45;&gt;TagsetValueNotDuplicateNameDirective </title>
<path fill="none" stroke="black" stroke-dasharray="5,2" d="M822.48,-141.8C708.37,-141.8 436.64,-141.8 436.64,-141.8 436.64,-141.8 436.64,-168.79 436.64,-168.79"/>
<polygon fill="black" stroke="black" points="433.14,-168.79 436.64,-178.79 440.14,-168.79 433.14,-168.79"/>
</g>
<!-- UriValidator  -->
<g id="node18" class="node">
<title>UriValidator </title>
<polygon fill="#fb8072" stroke="black" points="328.53,-214.8 237.47,-214.8 237.47,-178.8 328.53,-178.8 328.53,-214.8"/>
<text text-anchor="middle" x="283" y="-192.6" font-family="Times,serif" font-size="14.00">UriValidator </text>
</g>
<!-- SharedModule&#45;&gt;UriValidator  -->
<g id="edge17" class="edge">
<title>SharedModule&#45;&gt;UriValidator </title>
<path fill="none" stroke="black" stroke-dasharray="5,2" d="M822.33,-137.8C681.43,-137.8 289.38,-137.8 289.38,-137.8 289.38,-137.8 289.38,-168.78 289.38,-168.78"/>
<polygon fill="black" stroke="black" points="285.88,-168.78 289.38,-178.78 292.88,-168.78 285.88,-168.78"/>
</g>
<!-- WhitespacesValidatorDirective  -->
<g id="node19" class="node">
<title>WhitespacesValidatorDirective </title>
<polygon fill="#fb8072" stroke="black" points="219.7,-214.8 24.3,-214.8 24.3,-178.8 219.7,-178.8 219.7,-214.8"/>
<text text-anchor="middle" x="122" y="-192.6" font-family="Times,serif" font-size="14.00">WhitespacesValidatorDirective </text>
</g>
<!-- SharedModule&#45;&gt;WhitespacesValidatorDirective  -->
<g id="edge18" class="edge">
<title>SharedModule&#45;&gt;WhitespacesValidatorDirective </title>
<path fill="none" stroke="black" stroke-dasharray="5,2" d="M822.73,-133.8C656.98,-133.8 129.88,-133.8 129.88,-133.8 129.88,-133.8 129.88,-168.58 129.88,-168.58"/>
<polygon fill="black" stroke="black" points="126.38,-168.58 129.88,-178.58 133.38,-168.58 126.38,-168.58"/>
</g>
</g>
</svg>
