<?xml version="1.0" encoding="UTF-8" standalone="no"?>
<!DOCTYPE svg PUBLIC "-//W3C//DTD SVG 1.1//EN"
 "http://www.w3.org/Graphics/SVG/1.1/DTD/svg11.dtd">
<!-- Generated by graphviz version 5.0.0 (20220707.1540)
 -->
<!-- Title: dependencies Pages: 1 -->
<svg width="1491pt" height="247pt"
 viewBox="0.00 0.00 1491.00 246.80" xmlns="http://www.w3.org/2000/svg" xmlns:xlink="http://www.w3.org/1999/xlink">
<g id="graph0" class="graph" transform="scale(1 1) rotate(0) translate(4 242.8)">
<title>dependencies</title>
<polygon fill="white" stroke="transparent" points="-4,4 -4,-242.8 1487,-242.8 1487,4 -4,4"/>
<text text-anchor="middle" x="741.5" y="-8.2" font-family="sans-serif" font-size="14.00">dependencies</text>
<g id="clust1" class="cluster">
<title>cluster_SharedModule</title>
<polygon fill="none" stroke="black" stroke-dasharray="1,5" points="8,-32.8 8,-230.8 1475,-230.8 1475,-32.8 8,-32.8"/>
</g>
<g id="clust11" class="cluster">
<title>cluster_SharedModule_exports</title>
<polygon fill="none" stroke="black" points="16,-170.8 16,-222.8 1467,-222.8 1467,-170.8 16,-170.8"/>
</g>
<g id="clust2" class="cluster">
<title>cluster_SharedModule_declarations</title>
<polygon fill="none" stroke="black" points="28,-40.8 28,-92.8 1455,-92.8 1455,-40.8 28,-40.8"/>
</g>
<!-- AutocompleteCheckboxComponent -->
<g id="node1" class="node">
<title>AutocompleteCheckboxComponent</title>
<polygon fill="#ffffb3" stroke="black" points="1446.91,-84.8 1229.09,-84.8 1229.09,-48.8 1446.91,-48.8 1446.91,-84.8"/>
<text text-anchor="middle" x="1338" y="-62.6" font-family="Times,serif" font-size="14.00">AutocompleteCheckboxComponent</text>
</g>
<!-- SharedModule -->
<g id="node8" class="node">
<title>SharedModule</title>
<polygon fill="#8dd3c7" stroke="black" points="756.43,-149.8 753.43,-153.8 732.43,-153.8 729.43,-149.8 657.57,-149.8 657.57,-113.8 756.43,-113.8 756.43,-149.8"/>
<text text-anchor="middle" x="707" y="-127.6" font-family="Times,serif" font-size="14.00">SharedModule</text>
</g>
<!-- AutocompleteCheckboxComponent&#45;&gt;SharedModule -->
<g id="edge1" class="edge">
<title>AutocompleteCheckboxComponent&#45;&gt;SharedModule</title>
<path fill="none" stroke="black" d="M1233.92,-85.02C1233.92,-103.63 1233.92,-129.8 1233.92,-129.8 1233.92,-129.8 766.57,-129.8 766.57,-129.8"/>
<polygon fill="black" stroke="black" points="766.57,-126.3 756.57,-129.8 766.57,-133.3 766.57,-126.3"/>
</g>
<!-- DoubleAutocompleteComponent -->
<g id="node2" class="node">
<title>DoubleAutocompleteComponent</title>
<polygon fill="#ffffb3" stroke="black" points="1210.86,-84.8 1009.14,-84.8 1009.14,-48.8 1210.86,-48.8 1210.86,-84.8"/>
<text text-anchor="middle" x="1110" y="-62.6" font-family="Times,serif" font-size="14.00">DoubleAutocompleteComponent</text>
</g>
<!-- DoubleAutocompleteComponent&#45;&gt;SharedModule -->
<g id="edge2" class="edge">
<title>DoubleAutocompleteComponent&#45;&gt;SharedModule</title>
<path fill="none" stroke="black" d="M1145.73,-84.83C1145.73,-101.86 1145.73,-124.8 1145.73,-124.8 1145.73,-124.8 766.47,-124.8 766.47,-124.8"/>
<polygon fill="black" stroke="black" points="766.47,-121.3 756.47,-124.8 766.47,-128.3 766.47,-121.3"/>
</g>
<!-- NotDuplicateNameDirective -->
<g id="node3" class="node">
<title>NotDuplicateNameDirective</title>
<polygon fill="#ffffb3" stroke="black" points="991.43,-84.8 814.57,-84.8 814.57,-48.8 991.43,-48.8 991.43,-84.8"/>
<text text-anchor="middle" x="903" y="-62.6" font-family="Times,serif" font-size="14.00">NotDuplicateNameDirective</text>
</g>
<!-- NotDuplicateNameDirective&#45;&gt;SharedModule -->
<g id="edge3" class="edge">
<title>NotDuplicateNameDirective&#45;&gt;SharedModule</title>
<path fill="none" stroke="black" d="M933.24,-85.04C933.24,-100.37 933.24,-119.8 933.24,-119.8 933.24,-119.8 766.37,-119.8 766.37,-119.8"/>
<polygon fill="black" stroke="black" points="766.37,-116.3 756.37,-119.8 766.37,-123.3 766.37,-116.3"/>
</g>
<!-- PopupDeleteItemComponent -->
<g id="node4" class="node">
<title>PopupDeleteItemComponent</title>
<polygon fill="#ffffb3" stroke="black" points="796.8,-84.8 617.2,-84.8 617.2,-48.8 796.8,-48.8 796.8,-84.8"/>
<text text-anchor="middle" x="707" y="-62.6" font-family="Times,serif" font-size="14.00">PopupDeleteItemComponent</text>
</g>
<!-- PopupDeleteItemComponent&#45;&gt;SharedModule -->
<g id="edge4" class="edge">
<title>PopupDeleteItemComponent&#45;&gt;SharedModule</title>
<path fill="none" stroke="black" d="M707,-84.91C707,-84.91 707,-103.79 707,-103.79"/>
<polygon fill="black" stroke="black" points="703.5,-103.79 707,-113.79 710.5,-103.79 703.5,-103.79"/>
</g>
<!-- TagsetValueNotDuplicateNameDirective -->
<g id="node5" class="node">
<title>TagsetValueNotDuplicateNameDirective</title>
<polygon fill="#ffffb3" stroke="black" points="599.68,-84.8 352.32,-84.8 352.32,-48.8 599.68,-48.8 599.68,-84.8"/>
<text text-anchor="middle" x="476" y="-62.6" font-family="Times,serif" font-size="14.00">TagsetValueNotDuplicateNameDirective</text>
</g>
<!-- TagsetValueNotDuplicateNameDirective&#45;&gt;SharedModule -->
<g id="edge5" class="edge">
<title>TagsetValueNotDuplicateNameDirective&#45;&gt;SharedModule</title>
<path fill="none" stroke="black" d="M515.78,-85.04C515.78,-100.37 515.78,-119.8 515.78,-119.8 515.78,-119.8 647.76,-119.8 647.76,-119.8"/>
<polygon fill="black" stroke="black" points="647.76,-123.3 657.76,-119.8 647.76,-116.3 647.76,-123.3"/>
</g>
<!-- UriValidator -->
<g id="node6" class="node">
<title>UriValidator</title>
<polygon fill="#ffffb3" stroke="black" points="333.53,-84.8 246.47,-84.8 246.47,-48.8 333.53,-48.8 333.53,-84.8"/>
<text text-anchor="middle" x="290" y="-62.6" font-family="Times,serif" font-size="14.00">UriValidator</text>
</g>
<!-- UriValidator&#45;&gt;SharedModule -->
<g id="edge6" class="edge">
<title>UriValidator&#45;&gt;SharedModule</title>
<path fill="none" stroke="black" d="M301.09,-84.83C301.09,-101.86 301.09,-124.8 301.09,-124.8 301.09,-124.8 647.63,-124.8 647.63,-124.8"/>
<polygon fill="black" stroke="black" points="647.63,-128.3 657.63,-124.8 647.63,-121.3 647.63,-128.3"/>
</g>
<!-- WhitespacesValidatorDirective -->
<g id="node7" class="node">
<title>WhitespacesValidatorDirective</title>
<polygon fill="#ffffb3" stroke="black" points="227.7,-84.8 36.3,-84.8 36.3,-48.8 227.7,-48.8 227.7,-84.8"/>
<text text-anchor="middle" x="132" y="-62.6" font-family="Times,serif" font-size="14.00">WhitespacesValidatorDirective</text>
</g>
<!-- WhitespacesValidatorDirective&#45;&gt;SharedModule -->
<g id="edge7" class="edge">
<title>WhitespacesValidatorDirective&#45;&gt;SharedModule</title>
<path fill="none" stroke="black" d="M223.72,-85.02C223.72,-103.63 223.72,-129.8 223.72,-129.8 223.72,-129.8 647.55,-129.8 647.55,-129.8"/>
<polygon fill="black" stroke="black" points="647.55,-133.3 657.55,-129.8 647.55,-126.3 647.55,-133.3"/>
</g>
<!-- AutocompleteCheckboxComponent  -->
<g id="node9" class="node">
<title>AutocompleteCheckboxComponent </title>
<polygon fill="#fb8072" stroke="black" points="1459.41,-214.8 1238.59,-214.8 1238.59,-178.8 1459.41,-178.8 1459.41,-214.8"/>
<text text-anchor="middle" x="1349" y="-192.6" font-family="Times,serif" font-size="14.00">AutocompleteCheckboxComponent </text>
</g>
<!-- SharedModule&#45;&gt;AutocompleteCheckboxComponent  -->
<g id="edge8" class="edge">
<title>SharedModule&#45;&gt;AutocompleteCheckboxComponent </title>
<path fill="none" stroke="black" stroke-dasharray="5,2" d="M756.35,-134.8C905.69,-134.8 1342.62,-134.8 1342.62,-134.8 1342.62,-134.8 1342.62,-168.53 1342.62,-168.53"/>
<polygon fill="black" stroke="black" points="1339.13,-168.53 1342.62,-178.53 1346.13,-168.53 1339.13,-168.53"/>
</g>
<!-- DoubleAutocompleteComponent  -->
<g id="node10" class="node">
<title>DoubleAutocompleteComponent </title>
<polygon fill="#fb8072" stroke="black" points="1220.86,-214.8 1015.14,-214.8 1015.14,-178.8 1220.86,-178.8 1220.86,-214.8"/>
<text text-anchor="middle" x="1118" y="-192.6" font-family="Times,serif" font-size="14.00">DoubleAutocompleteComponent </text>
</g>
<!-- SharedModule&#45;&gt;DoubleAutocompleteComponent  -->
<g id="edge9" class="edge">
<title>SharedModule&#45;&gt;DoubleAutocompleteComponent </title>
<path fill="none" stroke="black" stroke-dasharray="5,2" d="M756.22,-139.8C857.64,-139.8 1080.52,-139.8 1080.52,-139.8 1080.52,-139.8 1080.52,-168.76 1080.52,-168.76"/>
<polygon fill="black" stroke="black" points="1077.02,-168.76 1080.52,-178.76 1084.02,-168.76 1077.02,-168.76"/>
</g>
<!-- NotDuplicateNameDirective  -->
<g id="node11" class="node">
<title>NotDuplicateNameDirective </title>
<polygon fill="#fb8072" stroke="black" points="997.43,-214.8 816.57,-214.8 816.57,-178.8 997.43,-178.8 997.43,-214.8"/>
<text text-anchor="middle" x="907" y="-192.6" font-family="Times,serif" font-size="14.00">NotDuplicateNameDirective </text>
</g>
<!-- SharedModule&#45;&gt;NotDuplicateNameDirective  -->
<g id="edge10" class="edge">
<title>SharedModule&#45;&gt;NotDuplicateNameDirective </title>
<path fill="none" stroke="black" stroke-dasharray="5,2" d="M756.5,-144.8C806.06,-144.8 875.01,-144.8 875.01,-144.8 875.01,-144.8 875.01,-168.61 875.01,-168.61"/>
<polygon fill="black" stroke="black" points="871.51,-168.61 875.01,-178.61 878.51,-168.61 871.51,-168.61"/>
</g>
<!-- PopupDeleteItemComponent  -->
<g id="node12" class="node">
<title>PopupDeleteItemComponent </title>
<polygon fill="#fb8072" stroke="black" points="798.3,-214.8 615.7,-214.8 615.7,-178.8 798.3,-178.8 798.3,-214.8"/>
<text text-anchor="middle" x="707" y="-192.6" font-family="Times,serif" font-size="14.00">PopupDeleteItemComponent </text>
</g>
<!-- SharedModule&#45;&gt;PopupDeleteItemComponent  -->
<g id="edge11" class="edge">
<title>SharedModule&#45;&gt;PopupDeleteItemComponent </title>
<path fill="none" stroke="black" stroke-dasharray="5,2" d="M707,-149.91C707,-149.91 707,-168.79 707,-168.79"/>
<polygon fill="black" stroke="black" points="703.5,-168.79 707,-178.79 710.5,-168.79 703.5,-168.79"/>
</g>
<!-- TagsetValueNotDuplicateNameDirective  -->
<g id="node13" class="node">
<title>TagsetValueNotDuplicateNameDirective </title>
<polygon fill="#fb8072" stroke="black" points="597.68,-214.8 346.32,-214.8 346.32,-178.8 597.68,-178.8 597.68,-214.8"/>
<text text-anchor="middle" x="472" y="-192.6" font-family="Times,serif" font-size="14.00">TagsetValueNotDuplicateNameDirective </text>
</g>
<!-- SharedModule&#45;&gt;TagsetValueNotDuplicateNameDirective  -->
<g id="edge12" class="edge">
<title>SharedModule&#45;&gt;TagsetValueNotDuplicateNameDirective </title>
<path fill="none" stroke="black" stroke-dasharray="5,2" d="M657.56,-144.8C578.88,-144.8 433.97,-144.8 433.97,-144.8 433.97,-144.8 433.97,-168.61 433.97,-168.61"/>
<polygon fill="black" stroke="black" points="430.47,-168.61 433.97,-178.61 437.47,-168.61 430.47,-168.61"/>
</g>
<!-- UriValidator  -->
<g id="node14" class="node">
<title>UriValidator </title>
<polygon fill="#fb8072" stroke="black" points="328.53,-214.8 237.47,-214.8 237.47,-178.8 328.53,-178.8 328.53,-214.8"/>
<text text-anchor="middle" x="283" y="-192.6" font-family="Times,serif" font-size="14.00">UriValidator </text>
</g>
<!-- SharedModule&#45;&gt;UriValidator  -->
<g id="edge13" class="edge">
<title>SharedModule&#45;&gt;UriValidator </title>
<path fill="none" stroke="black" stroke-dasharray="5,2" d="M657.71,-139.8C544.13,-139.8 273.66,-139.8 273.66,-139.8 273.66,-139.8 273.66,-168.76 273.66,-168.76"/>
<polygon fill="black" stroke="black" points="270.16,-168.76 273.66,-178.76 277.16,-168.76 270.16,-168.76"/>
</g>
<!-- WhitespacesValidatorDirective  -->
<g id="node15" class="node">
<title>WhitespacesValidatorDirective </title>
<polygon fill="#fb8072" stroke="black" points="219.7,-214.8 24.3,-214.8 24.3,-178.8 219.7,-178.8 219.7,-214.8"/>
<text text-anchor="middle" x="122" y="-192.6" font-family="Times,serif" font-size="14.00">WhitespacesValidatorDirective </text>
</g>
<!-- SharedModule&#45;&gt;WhitespacesValidatorDirective  -->
<g id="edge14" class="edge">
<title>SharedModule&#45;&gt;WhitespacesValidatorDirective </title>
<path fill="none" stroke="black" stroke-dasharray="5,2" d="M657.62,-134.8C517.58,-134.8 127.88,-134.8 127.88,-134.8 127.88,-134.8 127.88,-168.53 127.88,-168.53"/>
<polygon fill="black" stroke="black" points="124.38,-168.53 127.88,-178.53 131.38,-168.53 124.38,-168.53"/>
</g>
</g>
</svg>
