<?xml version="1.0" encoding="UTF-8" standalone="no"?>
<!DOCTYPE svg PUBLIC "-//W3C//DTD SVG 1.1//EN"
 "http://www.w3.org/Graphics/SVG/1.1/DTD/svg11.dtd">
<!-- Generated by graphviz version 5.0.0 (20220707.1540)
 -->
<!-- Title: dependencies Pages: 1 -->
<svg width="532pt" height="174pt"
 viewBox="0.00 0.00 532.00 173.80" xmlns="http://www.w3.org/2000/svg" xmlns:xlink="http://www.w3.org/1999/xlink">
<g id="graph0" class="graph" transform="scale(1 1) rotate(0) translate(4 169.8)">
<title>dependencies</title>
<polygon fill="white" stroke="transparent" points="-4,4 -4,-169.8 528,-169.8 528,4 -4,4"/>
<text text-anchor="middle" x="262" y="-8.2" font-family="sans-serif" font-size="14.00">dependencies</text>
<g id="clust1" class="cluster">
<title>cluster_LanguagesManagementModule</title>
<polygon fill="none" stroke="black" stroke-dasharray="1,5" points="8,-32.8 8,-157.8 516,-157.8 516,-32.8 8,-32.8"/>
</g>
<g id="clust2" class="cluster">
<title>cluster_LanguagesManagementModule_declarations</title>
<polygon fill="none" stroke="black" points="138,-40.8 138,-92.8 508,-92.8 508,-40.8 138,-40.8"/>
</g>
<g id="clust5" class="cluster">
<title>cluster_LanguagesManagementModule_imports</title>
<polygon fill="none" stroke="black" points="16,-40.8 16,-92.8 130,-92.8 130,-40.8 16,-40.8"/>
</g>
<!-- LanguagesListComponent -->
<g id="node1" class="node">
<title>LanguagesListComponent</title>
<polygon fill="#ffffb3" stroke="black" points="499.75,-84.8 336.25,-84.8 336.25,-48.8 499.75,-48.8 499.75,-84.8"/>
<text text-anchor="middle" x="418" y="-62.6" font-family="Times,serif" font-size="14.00">LanguagesListComponent</text>
</g>
<!-- LanguagesManagementModule -->
<g id="node3" class="node">
<title>LanguagesManagementModule</title>
<polygon fill="#8dd3c7" stroke="black" points="328.78,-149.8 325.78,-153.8 304.78,-153.8 301.78,-149.8 135.22,-149.8 135.22,-113.8 328.78,-113.8 328.78,-149.8"/>
<text text-anchor="middle" x="232" y="-127.6" font-family="Times,serif" font-size="14.00">LanguagesManagementModule</text>
</g>
<!-- LanguagesListComponent&#45;&gt;LanguagesManagementModule -->
<g id="edge1" class="edge">
<title>LanguagesListComponent&#45;&gt;LanguagesManagementModule</title>
<path fill="none" stroke="black" d="M336.15,-66.8C328.42,-66.8 323.39,-66.8 323.39,-66.8 323.39,-66.8 323.39,-103.69 323.39,-103.69"/>
<polygon fill="black" stroke="black" points="319.89,-103.69 323.39,-113.69 326.89,-103.69 319.89,-103.69"/>
</g>
<!-- LanguagesViewComponent -->
<g id="node2" class="node">
<title>LanguagesViewComponent</title>
<polygon fill="#ffffb3" stroke="black" points="318.3,-84.8 145.7,-84.8 145.7,-48.8 318.3,-48.8 318.3,-84.8"/>
<text text-anchor="middle" x="232" y="-62.6" font-family="Times,serif" font-size="14.00">LanguagesViewComponent</text>
</g>
<!-- LanguagesViewComponent&#45;&gt;LanguagesManagementModule -->
<g id="edge2" class="edge">
<title>LanguagesViewComponent&#45;&gt;LanguagesManagementModule</title>
<path fill="none" stroke="black" d="M232,-84.91C232,-84.91 232,-103.79 232,-103.79"/>
<polygon fill="black" stroke="black" points="228.5,-103.79 232,-113.79 235.5,-103.79 228.5,-103.79"/>
</g>
<!-- SharedModule -->
<g id="node4" class="node">
<title>SharedModule</title>
<polygon fill="#8dd3c7" stroke="black" points="122.43,-84.8 119.43,-88.8 98.43,-88.8 95.43,-84.8 23.57,-84.8 23.57,-48.8 122.43,-48.8 122.43,-84.8"/>
<text text-anchor="middle" x="73" y="-62.6" font-family="Times,serif" font-size="14.00">SharedModule</text>
</g>
<!-- SharedModule&#45;&gt;LanguagesManagementModule -->
<g id="edge3" class="edge">
<title>SharedModule&#45;&gt;LanguagesManagementModule</title>
<path fill="none" stroke="black" d="M122.49,-66.8C132.8,-66.8 140.61,-66.8 140.61,-66.8 140.61,-66.8 140.61,-103.69 140.61,-103.69"/>
<polygon fill="black" stroke="black" points="137.11,-103.69 140.61,-113.69 144.11,-103.69 137.11,-103.69"/>
</g>
</g>
</svg>
