<?xml version="1.0" encoding="UTF-8" standalone="no"?>
<!DOCTYPE svg PUBLIC "-//W3C//DTD SVG 1.1//EN"
 "http://www.w3.org/Graphics/SVG/1.1/DTD/svg11.dtd">
<!-- Generated by graphviz version 5.0.0 (20220707.1540)
 -->
<!-- Title: dependencies Pages: 1 -->
<svg width="352pt" height="174pt"
 viewBox="0.00 0.00 352.00 173.80" xmlns="http://www.w3.org/2000/svg" xmlns:xlink="http://www.w3.org/1999/xlink">
<g id="graph0" class="graph" transform="scale(1 1) rotate(0) translate(4 169.8)">
<title>dependencies</title>
<polygon fill="white" stroke="transparent" points="-4,4 -4,-169.8 348,-169.8 348,4 -4,4"/>
<text text-anchor="middle" x="172" y="-8.2" font-family="sans-serif" font-size="14.00">dependencies</text>
<g id="clust1" class="cluster">
<title>cluster_NamespacesModule</title>
<polygon fill="none" stroke="black" stroke-dasharray="1,5" points="8,-32.8 8,-157.8 336,-157.8 336,-32.8 8,-32.8"/>
</g>
<g id="clust2" class="cluster">
<title>cluster_NamespacesModule_declarations</title>
<polygon fill="none" stroke="black" points="138,-40.8 138,-92.8 328,-92.8 328,-40.8 138,-40.8"/>
</g>
<g id="clust4" class="cluster">
<title>cluster_NamespacesModule_imports</title>
<polygon fill="none" stroke="black" points="16,-40.8 16,-92.8 130,-92.8 130,-40.8 16,-40.8"/>
</g>
<!-- NamespacesListComponent -->
<g id="node1" class="node">
<title>NamespacesListComponent</title>
<polygon fill="#ffffb3" stroke="black" points="319.58,-84.8 146.42,-84.8 146.42,-48.8 319.58,-48.8 319.58,-84.8"/>
<text text-anchor="middle" x="233" y="-62.6" font-family="Times,serif" font-size="14.00">NamespacesListComponent</text>
</g>
<!-- NamespacesModule -->
<g id="node2" class="node">
<title>NamespacesModule</title>
<polygon fill="#8dd3c7" stroke="black" points="221.52,-149.8 218.52,-153.8 197.52,-153.8 194.52,-149.8 92.48,-149.8 92.48,-113.8 221.52,-113.8 221.52,-149.8"/>
<text text-anchor="middle" x="157" y="-127.6" font-family="Times,serif" font-size="14.00">NamespacesModule</text>
</g>
<!-- NamespacesListComponent&#45;&gt;NamespacesModule -->
<g id="edge1" class="edge">
<title>NamespacesListComponent&#45;&gt;NamespacesModule</title>
<path fill="none" stroke="black" d="M184.11,-84.91C184.11,-84.91 184.11,-103.79 184.11,-103.79"/>
<polygon fill="black" stroke="black" points="180.61,-103.79 184.11,-113.79 187.61,-103.79 180.61,-103.79"/>
</g>
<!-- SharedModule -->
<g id="node3" class="node">
<title>SharedModule</title>
<polygon fill="#8dd3c7" stroke="black" points="122.43,-84.8 119.43,-88.8 98.43,-88.8 95.43,-84.8 23.57,-84.8 23.57,-48.8 122.43,-48.8 122.43,-84.8"/>
<text text-anchor="middle" x="73" y="-62.6" font-family="Times,serif" font-size="14.00">SharedModule</text>
</g>
<!-- SharedModule&#45;&gt;NamespacesModule -->
<g id="edge2" class="edge">
<title>SharedModule&#45;&gt;NamespacesModule</title>
<path fill="none" stroke="black" d="M107.23,-84.91C107.23,-84.91 107.23,-103.79 107.23,-103.79"/>
<polygon fill="black" stroke="black" points="103.73,-103.79 107.23,-113.79 110.73,-103.79 103.73,-103.79"/>
</g>
</g>
</svg>
