<?xml version="1.0" encoding="UTF-8" standalone="no"?>
<!DOCTYPE svg PUBLIC "-//W3C//DTD SVG 1.1//EN"
 "http://www.w3.org/Graphics/SVG/1.1/DTD/svg11.dtd">
<!-- Generated by graphviz version 5.0.0 (20220707.1540)
 -->
<!-- Title: dependencies Pages: 1 -->
<svg width="352pt" height="174pt"
 viewBox="0.00 0.00 352.00 173.80" xmlns="http://www.w3.org/2000/svg" xmlns:xlink="http://www.w3.org/1999/xlink">
<g id="graph0" class="graph" transform="scale(1 1) rotate(0) translate(4 169.8)">
<title>dependencies</title>
<polygon fill="white" stroke="transparent" points="-4,4 -4,-169.8 348,-169.8 348,4 -4,4"/>
<text text-anchor="middle" x="172" y="-8.2" font-family="sans-serif" font-size="14.00">dependencies</text>
<g id="clust1" class="cluster">
<title>cluster_NamespacesModule</title>
<polygon fill="none" stroke="black" stroke-dasharray="1,5" points="8,-32.8 8,-157.8 336,-157.8 336,-32.8 8,-32.8"/>
</g>
<g id="clust4" class="cluster">
<title>cluster_NamespacesModule_imports</title>
<polygon fill="none" stroke="black" points="214,-40.8 214,-92.8 328,-92.8 328,-40.8 214,-40.8"/>
</g>
<g id="clust2" class="cluster">
<title>cluster_NamespacesModule_declarations</title>
<polygon fill="none" stroke="black" points="16,-40.8 16,-92.8 206,-92.8 206,-40.8 16,-40.8"/>
</g>
<!-- NamespacesListComponent -->
<g id="node1" class="node">
<title>NamespacesListComponent</title>
<polygon fill="#ffffb3" stroke="black" points="197.58,-84.8 24.42,-84.8 24.42,-48.8 197.58,-48.8 197.58,-84.8"/>
<text text-anchor="middle" x="111" y="-62.6" font-family="Times,serif" font-size="14.00">NamespacesListComponent</text>
</g>
<!-- NamespacesModule -->
<g id="node2" class="node">
<title>NamespacesModule</title>
<polygon fill="#8dd3c7" stroke="black" points="251.52,-149.8 248.52,-153.8 227.52,-153.8 224.52,-149.8 122.48,-149.8 122.48,-113.8 251.52,-113.8 251.52,-149.8"/>
<text text-anchor="middle" x="187" y="-127.6" font-family="Times,serif" font-size="14.00">NamespacesModule</text>
</g>
<!-- NamespacesListComponent&#45;&gt;NamespacesModule -->
<g id="edge1" class="edge">
<title>NamespacesListComponent&#45;&gt;NamespacesModule</title>
<path fill="none" stroke="black" d="M159.89,-84.91C159.89,-84.91 159.89,-103.79 159.89,-103.79"/>
<polygon fill="black" stroke="black" points="156.39,-103.79 159.89,-113.79 163.39,-103.79 156.39,-103.79"/>
</g>
<!-- SharedModule -->
<g id="node3" class="node">
<title>SharedModule</title>
<polygon fill="#8dd3c7" stroke="black" points="320.43,-84.8 317.43,-88.8 296.43,-88.8 293.43,-84.8 221.57,-84.8 221.57,-48.8 320.43,-48.8 320.43,-84.8"/>
<text text-anchor="middle" x="271" y="-62.6" font-family="Times,serif" font-size="14.00">SharedModule</text>
</g>
<!-- SharedModule&#45;&gt;NamespacesModule -->
<g id="edge2" class="edge">
<title>SharedModule&#45;&gt;NamespacesModule</title>
<path fill="none" stroke="black" d="M236.77,-84.91C236.77,-84.91 236.77,-103.79 236.77,-103.79"/>
<polygon fill="black" stroke="black" points="233.27,-103.79 236.77,-113.79 240.27,-103.79 233.27,-103.79"/>
</g>
</g>
</svg>
