<?xml version="1.0" encoding="UTF-8" standalone="no"?>
<!DOCTYPE svg PUBLIC "-//W3C//DTD SVG 1.1//EN"
 "http://www.w3.org/Graphics/SVG/1.1/DTD/svg11.dtd">
<!-- Generated by graphviz version 5.0.0 (20220707.1540)
 -->
<!-- Title: dependencies Pages: 1 -->
<svg width="520pt" height="174pt"
 viewBox="0.00 0.00 520.00 173.80" xmlns="http://www.w3.org/2000/svg" xmlns:xlink="http://www.w3.org/1999/xlink">
<g id="graph0" class="graph" transform="scale(1 1) rotate(0) translate(4 169.8)">
<title>dependencies</title>
<polygon fill="white" stroke="transparent" points="-4,4 -4,-169.8 516,-169.8 516,4 -4,4"/>
<text text-anchor="middle" x="256" y="-8.2" font-family="sans-serif" font-size="14.00">dependencies</text>
<g id="clust1" class="cluster">
<title>cluster_TagsetsModule</title>
<polygon fill="none" stroke="black" stroke-dasharray="1,5" points="8,-32.8 8,-157.8 504,-157.8 504,-32.8 8,-32.8"/>
</g>
<g id="clust2" class="cluster">
<title>cluster_TagsetsModule_declarations</title>
<polygon fill="none" stroke="black" points="138,-40.8 138,-92.8 496,-92.8 496,-40.8 138,-40.8"/>
</g>
<g id="clust5" class="cluster">
<title>cluster_TagsetsModule_imports</title>
<polygon fill="none" stroke="black" points="16,-40.8 16,-92.8 130,-92.8 130,-40.8 16,-40.8"/>
</g>
<!-- TagsetCreateEditComponent -->
<g id="node1" class="node">
<title>TagsetCreateEditComponent</title>
<polygon fill="#ffffb3" stroke="black" points="488.01,-84.8 309.99,-84.8 309.99,-48.8 488.01,-48.8 488.01,-84.8"/>
<text text-anchor="middle" x="399" y="-62.6" font-family="Times,serif" font-size="14.00">TagsetCreateEditComponent</text>
</g>
<!-- TagsetsModule -->
<g id="node3" class="node">
<title>TagsetsModule</title>
<polygon fill="#8dd3c7" stroke="black" points="270.32,-149.8 267.32,-153.8 246.32,-153.8 243.32,-149.8 167.68,-149.8 167.68,-113.8 270.32,-113.8 270.32,-149.8"/>
<text text-anchor="middle" x="219" y="-127.6" font-family="Times,serif" font-size="14.00">TagsetsModule</text>
</g>
<!-- TagsetCreateEditComponent&#45;&gt;TagsetsModule -->
<g id="edge1" class="edge">
<title>TagsetCreateEditComponent&#45;&gt;TagsetsModule</title>
<path fill="none" stroke="black" d="M399,-84.91C399,-104.14 399,-131.8 399,-131.8 399,-131.8 280.58,-131.8 280.58,-131.8"/>
<polygon fill="black" stroke="black" points="280.58,-128.3 270.58,-131.8 280.58,-135.3 280.58,-128.3"/>
</g>
<!-- TagsetsListComponent -->
<g id="node2" class="node">
<title>TagsetsListComponent</title>
<polygon fill="#ffffb3" stroke="black" points="291.88,-84.8 146.12,-84.8 146.12,-48.8 291.88,-48.8 291.88,-84.8"/>
<text text-anchor="middle" x="219" y="-62.6" font-family="Times,serif" font-size="14.00">TagsetsListComponent</text>
</g>
<!-- TagsetsListComponent&#45;&gt;TagsetsModule -->
<g id="edge2" class="edge">
<title>TagsetsListComponent&#45;&gt;TagsetsModule</title>
<path fill="none" stroke="black" d="M219,-84.91C219,-84.91 219,-103.79 219,-103.79"/>
<polygon fill="black" stroke="black" points="215.5,-103.79 219,-113.79 222.5,-103.79 215.5,-103.79"/>
</g>
<!-- SharedModule -->
<g id="node4" class="node">
<title>SharedModule</title>
<polygon fill="#8dd3c7" stroke="black" points="122.43,-84.8 119.43,-88.8 98.43,-88.8 95.43,-84.8 23.57,-84.8 23.57,-48.8 122.43,-48.8 122.43,-84.8"/>
<text text-anchor="middle" x="73" y="-62.6" font-family="Times,serif" font-size="14.00">SharedModule</text>
</g>
<!-- SharedModule&#45;&gt;TagsetsModule -->
<g id="edge3" class="edge">
<title>SharedModule&#45;&gt;TagsetsModule</title>
<path fill="none" stroke="black" d="M73,-84.91C73,-104.14 73,-131.8 73,-131.8 73,-131.8 157.53,-131.8 157.53,-131.8"/>
<polygon fill="black" stroke="black" points="157.53,-135.3 167.53,-131.8 157.53,-128.3 157.53,-135.3"/>
</g>
</g>
</svg>
