<?xml version="1.0" encoding="UTF-8" standalone="no"?>
<!DOCTYPE svg PUBLIC "-//W3C//DTD SVG 1.1//EN"
 "http://www.w3.org/Graphics/SVG/1.1/DTD/svg11.dtd">
<!-- Generated by graphviz version 5.0.0 (20220707.1540)
 -->
<!-- Title: dependencies Pages: 1 -->
<svg width="520pt" height="174pt"
 viewBox="0.00 0.00 520.00 173.80" xmlns="http://www.w3.org/2000/svg" xmlns:xlink="http://www.w3.org/1999/xlink">
<g id="graph0" class="graph" transform="scale(1 1) rotate(0) translate(4 169.8)">
<title>dependencies</title>
<polygon fill="white" stroke="transparent" points="-4,4 -4,-169.8 516,-169.8 516,4 -4,4"/>
<text text-anchor="middle" x="256" y="-8.2" font-family="sans-serif" font-size="14.00">dependencies</text>
<g id="clust1" class="cluster">
<title>cluster_TagsetsModule</title>
<polygon fill="none" stroke="black" stroke-dasharray="1,5" points="8,-32.8 8,-157.8 504,-157.8 504,-32.8 8,-32.8"/>
</g>
<g id="clust5" class="cluster">
<title>cluster_TagsetsModule_imports</title>
<polygon fill="none" stroke="black" points="382,-40.8 382,-92.8 496,-92.8 496,-40.8 382,-40.8"/>
</g>
<g id="clust2" class="cluster">
<title>cluster_TagsetsModule_declarations</title>
<polygon fill="none" stroke="black" points="16,-40.8 16,-92.8 374,-92.8 374,-40.8 16,-40.8"/>
</g>
<!-- TagsetCreateEditComponent -->
<g id="node1" class="node">
<title>TagsetCreateEditComponent</title>
<polygon fill="#ffffb3" stroke="black" points="366.01,-84.8 187.99,-84.8 187.99,-48.8 366.01,-48.8 366.01,-84.8"/>
<text text-anchor="middle" x="277" y="-62.6" font-family="Times,serif" font-size="14.00">TagsetCreateEditComponent</text>
</g>
<!-- TagsetsModule -->
<g id="node3" class="node">
<title>TagsetsModule</title>
<polygon fill="#8dd3c7" stroke="black" points="328.32,-149.8 325.32,-153.8 304.32,-153.8 301.32,-149.8 225.68,-149.8 225.68,-113.8 328.32,-113.8 328.32,-149.8"/>
<text text-anchor="middle" x="277" y="-127.6" font-family="Times,serif" font-size="14.00">TagsetsModule</text>
</g>
<!-- TagsetCreateEditComponent&#45;&gt;TagsetsModule -->
<g id="edge1" class="edge">
<title>TagsetCreateEditComponent&#45;&gt;TagsetsModule</title>
<path fill="none" stroke="black" d="M277,-84.91C277,-84.91 277,-103.79 277,-103.79"/>
<polygon fill="black" stroke="black" points="273.5,-103.79 277,-113.79 280.5,-103.79 273.5,-103.79"/>
</g>
<!-- TagsetsListComponent -->
<g id="node2" class="node">
<title>TagsetsListComponent</title>
<polygon fill="#ffffb3" stroke="black" points="169.88,-84.8 24.12,-84.8 24.12,-48.8 169.88,-48.8 169.88,-84.8"/>
<text text-anchor="middle" x="97" y="-62.6" font-family="Times,serif" font-size="14.00">TagsetsListComponent</text>
</g>
<!-- TagsetsListComponent&#45;&gt;TagsetsModule -->
<g id="edge2" class="edge">
<title>TagsetsListComponent&#45;&gt;TagsetsModule</title>
<path fill="none" stroke="black" d="M97,-84.91C97,-104.14 97,-131.8 97,-131.8 97,-131.8 215.42,-131.8 215.42,-131.8"/>
<polygon fill="black" stroke="black" points="215.42,-135.3 225.42,-131.8 215.42,-128.3 215.42,-135.3"/>
</g>
<!-- SharedModule -->
<g id="node4" class="node">
<title>SharedModule</title>
<polygon fill="#8dd3c7" stroke="black" points="488.43,-84.8 485.43,-88.8 464.43,-88.8 461.43,-84.8 389.57,-84.8 389.57,-48.8 488.43,-48.8 488.43,-84.8"/>
<text text-anchor="middle" x="439" y="-62.6" font-family="Times,serif" font-size="14.00">SharedModule</text>
</g>
<!-- SharedModule&#45;&gt;TagsetsModule -->
<g id="edge3" class="edge">
<title>SharedModule&#45;&gt;TagsetsModule</title>
<path fill="none" stroke="black" d="M439,-84.91C439,-104.14 439,-131.8 439,-131.8 439,-131.8 338.26,-131.8 338.26,-131.8"/>
<polygon fill="black" stroke="black" points="338.26,-128.3 328.26,-131.8 338.26,-135.3 338.26,-128.3"/>
</g>
</g>
</svg>
