<?xml version="1.0" encoding="UTF-8" standalone="no"?>
<!DOCTYPE svg PUBLIC "-//W3C//DTD SVG 1.1//EN"
 "http://www.w3.org/Graphics/SVG/1.1/DTD/svg11.dtd">
<!-- Generated by graphviz version 5.0.0 (20220707.1540)
 -->
<!-- Title: dependencies Pages: 1 -->
<svg width="487pt" height="174pt"
 viewBox="0.00 0.00 487.00 173.80" xmlns="http://www.w3.org/2000/svg" xmlns:xlink="http://www.w3.org/1999/xlink">
<g id="graph0" class="graph" transform="scale(1 1) rotate(0) translate(4 169.8)">
<title>dependencies</title>
<polygon fill="white" stroke="transparent" points="-4,4 -4,-169.8 483,-169.8 483,4 -4,4"/>
<text text-anchor="middle" x="239.5" y="-8.2" font-family="sans-serif" font-size="14.00">dependencies</text>
<g id="clust1" class="cluster">
<title>cluster_LayersModule</title>
<polygon fill="none" stroke="black" stroke-dasharray="1,5" points="8,-32.8 8,-157.8 471,-157.8 471,-32.8 8,-32.8"/>
</g>
<g id="clust5" class="cluster">
<title>cluster_LayersModule_imports</title>
<polygon fill="none" stroke="black" points="349,-40.8 349,-92.8 463,-92.8 463,-40.8 349,-40.8"/>
</g>
<g id="clust2" class="cluster">
<title>cluster_LayersModule_declarations</title>
<polygon fill="none" stroke="black" points="16,-40.8 16,-92.8 341,-92.8 341,-40.8 16,-40.8"/>
</g>
<!-- LayersListComponent -->
<g id="node1" class="node">
<title>LayersListComponent</title>
<polygon fill="#ffffb3" stroke="black" points="332.7,-84.8 191.3,-84.8 191.3,-48.8 332.7,-48.8 332.7,-84.8"/>
<text text-anchor="middle" x="262" y="-62.6" font-family="Times,serif" font-size="14.00">LayersListComponent</text>
</g>
<!-- LayersModule -->
<g id="node3" class="node">
<title>LayersModule</title>
<polygon fill="#8dd3c7" stroke="black" points="310.64,-149.8 307.64,-153.8 286.64,-153.8 283.64,-149.8 213.36,-149.8 213.36,-113.8 310.64,-113.8 310.64,-149.8"/>
<text text-anchor="middle" x="262" y="-127.6" font-family="Times,serif" font-size="14.00">LayersModule</text>
</g>
<!-- LayersListComponent&#45;&gt;LayersModule -->
<g id="edge1" class="edge">
<title>LayersListComponent&#45;&gt;LayersModule</title>
<path fill="none" stroke="black" d="M262,-84.91C262,-84.91 262,-103.79 262,-103.79"/>
<polygon fill="black" stroke="black" points="258.5,-103.79 262,-113.79 265.5,-103.79 258.5,-103.79"/>
</g>
<!-- LayersViewComponent -->
<g id="node2" class="node">
<title>LayersViewComponent</title>
<polygon fill="#ffffb3" stroke="black" points="173.75,-84.8 24.25,-84.8 24.25,-48.8 173.75,-48.8 173.75,-84.8"/>
<text text-anchor="middle" x="99" y="-62.6" font-family="Times,serif" font-size="14.00">LayersViewComponent</text>
</g>
<!-- LayersViewComponent&#45;&gt;LayersModule -->
<g id="edge2" class="edge">
<title>LayersViewComponent&#45;&gt;LayersModule</title>
<path fill="none" stroke="black" d="M99,-84.91C99,-104.14 99,-131.8 99,-131.8 99,-131.8 203.09,-131.8 203.09,-131.8"/>
<polygon fill="black" stroke="black" points="203.09,-135.3 213.09,-131.8 203.09,-128.3 203.09,-135.3"/>
</g>
<!-- SharedModule -->
<g id="node4" class="node">
<title>SharedModule</title>
<polygon fill="#8dd3c7" stroke="black" points="455.43,-84.8 452.43,-88.8 431.43,-88.8 428.43,-84.8 356.57,-84.8 356.57,-48.8 455.43,-48.8 455.43,-84.8"/>
<text text-anchor="middle" x="406" y="-62.6" font-family="Times,serif" font-size="14.00">SharedModule</text>
</g>
<!-- SharedModule&#45;&gt;LayersModule -->
<g id="edge3" class="edge">
<title>SharedModule&#45;&gt;LayersModule</title>
<path fill="none" stroke="black" d="M406,-84.91C406,-104.14 406,-131.8 406,-131.8 406,-131.8 320.75,-131.8 320.75,-131.8"/>
<polygon fill="black" stroke="black" points="320.75,-128.3 310.75,-131.8 320.75,-135.3 320.75,-128.3"/>
</g>
</g>
</svg>
