<?xml version="1.0" encoding="UTF-8" standalone="no"?>
<!DOCTYPE svg PUBLIC "-//W3C//DTD SVG 1.1//EN"
 "http://www.w3.org/Graphics/SVG/1.1/DTD/svg11.dtd">
<!-- Generated by graphviz version 5.0.0 (20220707.1540)
 -->
<!-- Title: dependencies Pages: 1 -->
<svg width="228pt" height="174pt"
 viewBox="0.00 0.00 228.00 173.80" xmlns="http://www.w3.org/2000/svg" xmlns:xlink="http://www.w3.org/1999/xlink">
<g id="graph0" class="graph" transform="scale(1 1) rotate(0) translate(4 169.8)">
<title>dependencies</title>
<polygon fill="white" stroke="transparent" points="-4,4 -4,-169.8 224,-169.8 224,4 -4,4"/>
<text text-anchor="middle" x="110" y="-8.2" font-family="sans-serif" font-size="14.00">dependencies</text>
<g id="clust1" class="cluster">
<title>cluster_AuthConfigModule</title>
<polygon fill="none" stroke="black" stroke-dasharray="1,5" points="8,-32.8 8,-157.8 212,-157.8 212,-32.8 8,-32.8"/>
</g>
<g id="clust6" class="cluster">
<title>cluster_AuthConfigModule_providers</title>
<polygon fill="none" stroke="black" points="16,-40.8 16,-92.8 204,-92.8 204,-40.8 16,-40.8"/>
</g>
<!-- AuthConfigService -->
<g id="node1" class="node">
<title>AuthConfigService</title>
<ellipse fill="#fdb462" stroke="black" cx="110" cy="-66.8" rx="86.27" ry="18"/>
<text text-anchor="middle" x="110" y="-62.6" font-family="Times,serif" font-size="14.00">AuthConfigService</text>
</g>
<!-- AuthConfigModule -->
<g id="node2" class="node">
<title>AuthConfigModule</title>
<polygon fill="#8dd3c7" stroke="black" points="173.44,-149.8 170.44,-153.8 149.44,-153.8 146.44,-149.8 46.56,-149.8 46.56,-113.8 173.44,-113.8 173.44,-149.8"/>
<text text-anchor="middle" x="110" y="-127.6" font-family="Times,serif" font-size="14.00">AuthConfigModule</text>
</g>
<!-- AuthConfigService&#45;&gt;AuthConfigModule -->
<g id="edge1" class="edge">
<title>AuthConfigService&#45;&gt;AuthConfigModule</title>
<path fill="none" stroke="black" d="M110,-84.91C110,-84.91 110,-103.79 110,-103.79"/>
<polygon fill="black" stroke="black" points="106.5,-103.79 110,-113.79 113.5,-103.79 106.5,-103.79"/>
</g>
</g>
</svg>
