<?xml version="1.0" encoding="UTF-8" standalone="no"?>
<!DOCTYPE svg PUBLIC "-//W3C//DTD SVG 1.1//EN"
 "http://www.w3.org/Graphics/SVG/1.1/DTD/svg11.dtd">
<!-- Generated by graphviz version 5.0.0 (20220707.1540)
 -->
<!-- Title: dependencies Pages: 1 -->
<svg width="5506pt" height="247pt"
 viewBox="0.00 0.00 5506.00 246.80" xmlns="http://www.w3.org/2000/svg" xmlns:xlink="http://www.w3.org/1999/xlink">
<g id="graph0" class="graph" transform="scale(1 1) rotate(0) translate(4 242.8)">
<title>dependencies</title>
<polygon fill="white" stroke="transparent" points="-4,4 -4,-242.8 5502,-242.8 5502,4 -4,4"/>
<text text-anchor="middle" x="2749" y="-8.2" font-family="sans-serif" font-size="14.00">dependencies</text>
<g id="clust1" class="cluster">
<title>cluster_AppModule</title>
<polygon fill="none" stroke="black" stroke-dasharray="1,5" points="8,-32.8 8,-230.8 5490,-230.8 5490,-32.8 8,-32.8"/>
</g>
<g id="clust2" class="cluster">
<title>cluster_AppModule_declarations</title>
<polygon fill="none" stroke="black" points="597,-40.8 597,-92.8 5482,-92.8 5482,-40.8 597,-40.8"/>
</g>
<g id="clust31" class="cluster">
<title>cluster_AppModule_providers</title>
<polygon fill="none" stroke="black" points="421,-40.8 421,-92.8 589,-92.8 589,-40.8 421,-40.8"/>
</g>
<g id="clust28" class="cluster">
<title>cluster_AppModule_imports</title>
<polygon fill="none" stroke="black" points="16,-40.8 16,-92.8 413,-92.8 413,-40.8 16,-40.8"/>
</g>
<g id="clust30" class="cluster">
<title>cluster_AppModule_bootstrap</title>
<polygon fill="none" stroke="black" points="2890,-170.8 2890,-222.8 3014,-222.8 3014,-170.8 2890,-170.8"/>
</g>
<!-- AnnotationEditorComponent -->
<g id="node1" class="node">
<title>AnnotationEditorComponent</title>
<polygon fill="#ffffb3" stroke="black" points="5473.82,-84.8 5294.18,-84.8 5294.18,-48.8 5473.82,-48.8 5473.82,-84.8"/>
<text text-anchor="middle" x="5384" y="-62.6" font-family="Times,serif" font-size="14.00">AnnotationEditorComponent</text>
</g>
<!-- AppModule -->
<g id="node26" class="node">
<title>AppModule</title>
<polygon fill="#8dd3c7" stroke="black" points="2993.66,-149.8 2990.66,-153.8 2969.66,-153.8 2966.66,-149.8 2910.34,-149.8 2910.34,-113.8 2993.66,-113.8 2993.66,-149.8"/>
<text text-anchor="middle" x="2952" y="-127.6" font-family="Times,serif" font-size="14.00">AppModule</text>
</g>
<!-- AnnotationEditorComponent&#45;&gt;AppModule -->
<g id="edge1" class="edge">
<title>AnnotationEditorComponent&#45;&gt;AppModule</title>
<path fill="none" stroke="black" d="M5384,-85.18C5384,-109.08 5384,-147.8 5384,-147.8 5384,-147.8 3003.7,-147.8 3003.7,-147.8"/>
<polygon fill="black" stroke="black" points="3003.7,-144.3 2993.7,-147.8 3003.7,-151.3 3003.7,-144.3"/>
</g>
<!-- AppComponent -->
<g id="node2" class="node">
<title>AppComponent</title>
<polygon fill="#ffffb3" stroke="black" points="5276.94,-84.8 5171.06,-84.8 5171.06,-48.8 5276.94,-48.8 5276.94,-84.8"/>
<text text-anchor="middle" x="5224" y="-62.6" font-family="Times,serif" font-size="14.00">AppComponent</text>
</g>
<!-- AppComponent&#45;&gt;AppModule -->
<g id="edge2" class="edge">
<title>AppComponent&#45;&gt;AppModule</title>
<path fill="none" stroke="black" d="M5224,-85.12C5224,-108.46 5224,-145.8 5224,-145.8 5224,-145.8 3003.87,-145.8 3003.87,-145.8"/>
<polygon fill="black" stroke="black" points="3003.87,-142.3 2993.87,-145.8 3003.87,-149.3 3003.87,-142.3"/>
</g>
<!-- LayersListComponent -->
<g id="node3" class="node">
<title>LayersListComponent</title>
<polygon fill="#ffffb3" stroke="black" points="5153.7,-84.8 5012.3,-84.8 5012.3,-48.8 5153.7,-48.8 5153.7,-84.8"/>
<text text-anchor="middle" x="5083" y="-62.6" font-family="Times,serif" font-size="14.00">LayersListComponent</text>
</g>
<!-- LayersListComponent&#45;&gt;AppModule -->
<g id="edge3" class="edge">
<title>LayersListComponent&#45;&gt;AppModule</title>
<path fill="none" stroke="black" d="M5083,-84.81C5083,-107.29 5083,-142.8 5083,-142.8 5083,-142.8 3004.09,-142.8 3004.09,-142.8"/>
<polygon fill="black" stroke="black" points="3004.09,-139.3 2994.09,-142.8 3004.09,-146.3 3004.09,-139.3"/>
</g>
<!-- LayersViewComponent -->
<g id="node4" class="node">
<title>LayersViewComponent</title>
<polygon fill="#ffffb3" stroke="black" points="4994.75,-84.8 4845.25,-84.8 4845.25,-48.8 4994.75,-48.8 4994.75,-84.8"/>
<text text-anchor="middle" x="4920" y="-62.6" font-family="Times,serif" font-size="14.00">LayersViewComponent</text>
</g>
<!-- LayersViewComponent&#45;&gt;AppModule -->
<g id="edge4" class="edge">
<title>LayersViewComponent&#45;&gt;AppModule</title>
<path fill="none" stroke="black" d="M4920,-85.09C4920,-107.01 4920,-140.8 4920,-140.8 4920,-140.8 3004.01,-140.8 3004.01,-140.8"/>
<polygon fill="black" stroke="black" points="3004.01,-137.3 2994.01,-140.8 3004.01,-144.3 3004.01,-137.3"/>
</g>
<!-- MainLayoutComponent -->
<g id="node5" class="node">
<title>MainLayoutComponent</title>
<polygon fill="#ffffb3" stroke="black" points="4827.04,-84.8 4676.96,-84.8 4676.96,-48.8 4827.04,-48.8 4827.04,-84.8"/>
<text text-anchor="middle" x="4752" y="-62.6" font-family="Times,serif" font-size="14.00">MainLayoutComponent</text>
</g>
<!-- MainLayoutComponent&#45;&gt;AppModule -->
<g id="edge5" class="edge">
<title>MainLayoutComponent&#45;&gt;AppModule</title>
<path fill="none" stroke="black" d="M4752,-85.08C4752,-106.12 4752,-137.8 4752,-137.8 4752,-137.8 3003.84,-137.8 3003.84,-137.8"/>
<polygon fill="black" stroke="black" points="3003.84,-134.3 2993.84,-137.8 3003.84,-141.3 3003.84,-134.3"/>
</g>
<!-- NotDuplicateNameDirective -->
<g id="node6" class="node">
<title>NotDuplicateNameDirective</title>
<polygon fill="#ffffb3" stroke="black" points="4658.43,-84.8 4481.57,-84.8 4481.57,-48.8 4658.43,-48.8 4658.43,-84.8"/>
<text text-anchor="middle" x="4570" y="-62.6" font-family="Times,serif" font-size="14.00">NotDuplicateNameDirective</text>
</g>
<!-- NotDuplicateNameDirective&#45;&gt;AppModule -->
<g id="edge6" class="edge">
<title>NotDuplicateNameDirective&#45;&gt;AppModule</title>
<path fill="none" stroke="black" d="M4570,-84.93C4570,-105.37 4570,-135.8 4570,-135.8 4570,-135.8 3004.03,-135.8 3004.03,-135.8"/>
<polygon fill="black" stroke="black" points="3004.03,-132.3 2994.03,-135.8 3004.03,-139.3 3004.03,-132.3"/>
</g>
<!-- PopupDeleteItemComponent -->
<g id="node7" class="node">
<title>PopupDeleteItemComponent</title>
<polygon fill="#ffffb3" stroke="black" points="4463.8,-84.8 4284.2,-84.8 4284.2,-48.8 4463.8,-48.8 4463.8,-84.8"/>
<text text-anchor="middle" x="4374" y="-62.6" font-family="Times,serif" font-size="14.00">PopupDeleteItemComponent</text>
</g>
<!-- PopupDeleteItemComponent&#45;&gt;AppModule -->
<g id="edge7" class="edge">
<title>PopupDeleteItemComponent&#45;&gt;AppModule</title>
<path fill="none" stroke="black" d="M4374,-85.11C4374,-104.95 4374,-133.8 4374,-133.8 4374,-133.8 3003.79,-133.8 3003.79,-133.8"/>
<polygon fill="black" stroke="black" points="3003.79,-130.3 2993.79,-133.8 3003.79,-137.3 3003.79,-130.3"/>
</g>
<!-- RelationEditorComponent -->
<g id="node8" class="node">
<title>RelationEditorComponent</title>
<polygon fill="#ffffb3" stroke="black" points="4265.76,-84.8 4102.24,-84.8 4102.24,-48.8 4265.76,-48.8 4265.76,-84.8"/>
<text text-anchor="middle" x="4184" y="-62.6" font-family="Times,serif" font-size="14.00">RelationEditorComponent</text>
</g>
<!-- RelationEditorComponent&#45;&gt;AppModule -->
<g id="edge8" class="edge">
<title>RelationEditorComponent&#45;&gt;AppModule</title>
<path fill="none" stroke="black" d="M4184,-84.97C4184,-103.89 4184,-130.8 4184,-130.8 4184,-130.8 3003.7,-130.8 3003.7,-130.8"/>
<polygon fill="black" stroke="black" points="3003.7,-127.3 2993.7,-130.8 3003.7,-134.3 3003.7,-127.3"/>
</g>
<!-- TagsetCreateEditComponent -->
<g id="node9" class="node">
<title>TagsetCreateEditComponent</title>
<polygon fill="#ffffb3" stroke="black" points="4084.01,-84.8 3905.99,-84.8 3905.99,-48.8 4084.01,-48.8 4084.01,-84.8"/>
<text text-anchor="middle" x="3995" y="-62.6" font-family="Times,serif" font-size="14.00">TagsetCreateEditComponent</text>
</g>
<!-- TagsetCreateEditComponent&#45;&gt;AppModule -->
<g id="edge9" class="edge">
<title>TagsetCreateEditComponent&#45;&gt;AppModule</title>
<path fill="none" stroke="black" d="M3995,-85.07C3995,-103.36 3995,-128.8 3995,-128.8 3995,-128.8 3003.85,-128.8 3003.85,-128.8"/>
<polygon fill="black" stroke="black" points="3003.85,-125.3 2993.85,-128.8 3003.85,-132.3 3003.85,-125.3"/>
</g>
<!-- TagsetValueNotDuplicateNameDirective -->
<g id="node10" class="node">
<title>TagsetValueNotDuplicateNameDirective</title>
<polygon fill="#ffffb3" stroke="black" points="3887.68,-84.8 3640.32,-84.8 3640.32,-48.8 3887.68,-48.8 3887.68,-84.8"/>
<text text-anchor="middle" x="3764" y="-62.6" font-family="Times,serif" font-size="14.00">TagsetValueNotDuplicateNameDirective</text>
</g>
<!-- TagsetValueNotDuplicateNameDirective&#45;&gt;AppModule -->
<g id="edge10" class="edge">
<title>TagsetValueNotDuplicateNameDirective&#45;&gt;AppModule</title>
<path fill="none" stroke="black" d="M3764,-84.82C3764,-102.17 3764,-125.8 3764,-125.8 3764,-125.8 3003.66,-125.8 3003.66,-125.8"/>
<polygon fill="black" stroke="black" points="3003.66,-122.3 2993.66,-125.8 3003.66,-129.3 3003.66,-122.3"/>
</g>
<!-- TagsetsListComponent -->
<g id="node11" class="node">
<title>TagsetsListComponent</title>
<polygon fill="#ffffb3" stroke="black" points="3621.88,-84.8 3476.12,-84.8 3476.12,-48.8 3621.88,-48.8 3621.88,-84.8"/>
<text text-anchor="middle" x="3549" y="-62.6" font-family="Times,serif" font-size="14.00">TagsetsListComponent</text>
</g>
<!-- TagsetsListComponent&#45;&gt;AppModule -->
<g id="edge11" class="edge">
<title>TagsetsListComponent&#45;&gt;AppModule</title>
<path fill="none" stroke="black" d="M3549,-84.84C3549,-101.53 3549,-123.8 3549,-123.8 3549,-123.8 3003.98,-123.8 3003.98,-123.8"/>
<polygon fill="black" stroke="black" points="3003.98,-120.3 2993.98,-123.8 3003.98,-127.3 3003.98,-120.3"/>
</g>
<!-- UriValidator -->
<g id="node12" class="node">
<title>UriValidator</title>
<polygon fill="#ffffb3" stroke="black" points="3457.53,-84.8 3370.47,-84.8 3370.47,-48.8 3457.53,-48.8 3457.53,-84.8"/>
<text text-anchor="middle" x="3414" y="-62.6" font-family="Times,serif" font-size="14.00">UriValidator</text>
</g>
<!-- UriValidator&#45;&gt;AppModule -->
<g id="edge12" class="edge">
<title>UriValidator&#45;&gt;AppModule</title>
<path fill="none" stroke="black" d="M3414,-84.81C3414,-100.85 3414,-121.8 3414,-121.8 3414,-121.8 3003.81,-121.8 3003.81,-121.8"/>
<polygon fill="black" stroke="black" points="3003.81,-118.3 2993.81,-121.8 3003.81,-125.3 3003.81,-118.3"/>
</g>
<!-- UserFormComponent -->
<g id="node13" class="node">
<title>UserFormComponent</title>
<polygon fill="#ffffb3" stroke="black" points="3352.1,-84.8 3213.9,-84.8 3213.9,-48.8 3352.1,-48.8 3352.1,-84.8"/>
<text text-anchor="middle" x="3283" y="-62.6" font-family="Times,serif" font-size="14.00">UserFormComponent</text>
</g>
<!-- UserFormComponent&#45;&gt;AppModule -->
<g id="edge13" class="edge">
<title>UserFormComponent&#45;&gt;AppModule</title>
<path fill="none" stroke="black" d="M3283,-84.99C3283,-99.98 3283,-118.8 3283,-118.8 3283,-118.8 3003.92,-118.8 3003.92,-118.8"/>
<polygon fill="black" stroke="black" points="3003.92,-115.3 2993.92,-118.8 3003.92,-122.3 3003.92,-115.3"/>
</g>
<!-- UserListComponent -->
<g id="node14" class="node">
<title>UserListComponent</title>
<polygon fill="#ffffb3" stroke="black" points="3195.55,-84.8 3066.45,-84.8 3066.45,-48.8 3195.55,-48.8 3195.55,-84.8"/>
<text text-anchor="middle" x="3131" y="-62.6" font-family="Times,serif" font-size="14.00">UserListComponent</text>
</g>
<!-- UserListComponent&#45;&gt;AppModule -->
<g id="edge14" class="edge">
<title>UserListComponent&#45;&gt;AppModule</title>
<path fill="none" stroke="black" d="M3131,-84.85C3131,-99.17 3131,-116.8 3131,-116.8 3131,-116.8 3003.97,-116.8 3003.97,-116.8"/>
<polygon fill="black" stroke="black" points="3003.97,-113.3 2993.97,-116.8 3003.97,-120.3 3003.97,-113.3"/>
</g>
<!-- WhitespacesValidatorDirective -->
<g id="node15" class="node">
<title>WhitespacesValidatorDirective</title>
<polygon fill="#ffffb3" stroke="black" points="3047.7,-84.8 2856.3,-84.8 2856.3,-48.8 3047.7,-48.8 3047.7,-84.8"/>
<text text-anchor="middle" x="2952" y="-62.6" font-family="Times,serif" font-size="14.00">WhitespacesValidatorDirective</text>
</g>
<!-- WhitespacesValidatorDirective&#45;&gt;AppModule -->
<g id="edge15" class="edge">
<title>WhitespacesValidatorDirective&#45;&gt;AppModule</title>
<path fill="none" stroke="black" d="M2952,-84.91C2952,-84.91 2952,-103.79 2952,-103.79"/>
<polygon fill="black" stroke="black" points="2948.5,-103.79 2952,-113.79 2955.5,-103.79 2948.5,-103.79"/>
</g>
<!-- WorkspaceComponent -->
<g id="node16" class="node">
<title>WorkspaceComponent</title>
<polygon fill="#ffffb3" stroke="black" points="2838.3,-84.8 2693.7,-84.8 2693.7,-48.8 2838.3,-48.8 2838.3,-84.8"/>
<text text-anchor="middle" x="2766" y="-62.6" font-family="Times,serif" font-size="14.00">WorkspaceComponent</text>
</g>
<!-- WorkspaceComponent&#45;&gt;AppModule -->
<g id="edge16" class="edge">
<title>WorkspaceComponent&#45;&gt;AppModule</title>
<path fill="none" stroke="black" d="M2766,-84.85C2766,-99.17 2766,-116.8 2766,-116.8 2766,-116.8 2900.26,-116.8 2900.26,-116.8"/>
<polygon fill="black" stroke="black" points="2900.26,-120.3 2910.26,-116.8 2900.26,-113.3 2900.26,-120.3"/>
</g>
<!-- WorkspaceCorpusExplorerComponent -->
<g id="node17" class="node">
<title>WorkspaceCorpusExplorerComponent</title>
<polygon fill="#ffffb3" stroke="black" points="2675.72,-84.8 2442.28,-84.8 2442.28,-48.8 2675.72,-48.8 2675.72,-84.8"/>
<text text-anchor="middle" x="2559" y="-62.6" font-family="Times,serif" font-size="14.00">WorkspaceCorpusExplorerComponent</text>
</g>
<!-- WorkspaceCorpusExplorerComponent&#45;&gt;AppModule -->
<g id="edge17" class="edge">
<title>WorkspaceCorpusExplorerComponent&#45;&gt;AppModule</title>
<path fill="none" stroke="black" d="M2559,-84.99C2559,-99.98 2559,-118.8 2559,-118.8 2559,-118.8 2900.31,-118.8 2900.31,-118.8"/>
<polygon fill="black" stroke="black" points="2900.31,-122.3 2910.31,-118.8 2900.31,-115.3 2900.31,-122.3"/>
</g>
<!-- WorkspaceLayersVisibilityManagerComponent -->
<g id="node18" class="node">
<title>WorkspaceLayersVisibilityManagerComponent</title>
<polygon fill="#ffffb3" stroke="black" points="2424.54,-84.8 2139.46,-84.8 2139.46,-48.8 2424.54,-48.8 2424.54,-84.8"/>
<text text-anchor="middle" x="2282" y="-62.6" font-family="Times,serif" font-size="14.00">WorkspaceLayersVisibilityManagerComponent</text>
</g>
<!-- WorkspaceLayersVisibilityManagerComponent&#45;&gt;AppModule -->
<g id="edge18" class="edge">
<title>WorkspaceLayersVisibilityManagerComponent&#45;&gt;AppModule</title>
<path fill="none" stroke="black" d="M2282,-84.81C2282,-100.85 2282,-121.8 2282,-121.8 2282,-121.8 2900.09,-121.8 2900.09,-121.8"/>
<polygon fill="black" stroke="black" points="2900.09,-125.3 2910.09,-121.8 2900.09,-118.3 2900.09,-125.3"/>
</g>
<!-- WorkspaceLayoutComponent -->
<g id="node19" class="node">
<title>WorkspaceLayoutComponent</title>
<polygon fill="#ffffb3" stroke="black" points="2121.95,-84.8 1938.05,-84.8 1938.05,-48.8 2121.95,-48.8 2121.95,-84.8"/>
<text text-anchor="middle" x="2030" y="-62.6" font-family="Times,serif" font-size="14.00">WorkspaceLayoutComponent</text>
</g>
<!-- WorkspaceLayoutComponent&#45;&gt;AppModule -->
<g id="edge19" class="edge">
<title>WorkspaceLayoutComponent&#45;&gt;AppModule</title>
<path fill="none" stroke="black" d="M2030,-84.84C2030,-101.53 2030,-123.8 2030,-123.8 2030,-123.8 2900.29,-123.8 2900.29,-123.8"/>
<polygon fill="black" stroke="black" points="2900.29,-127.3 2910.29,-123.8 2900.29,-120.3 2900.29,-127.3"/>
</g>
<!-- WorkspaceLexiconEditTileComponent -->
<g id="node20" class="node">
<title>WorkspaceLexiconEditTileComponent</title>
<polygon fill="#ffffb3" stroke="black" points="1920.04,-84.8 1683.96,-84.8 1683.96,-48.8 1920.04,-48.8 1920.04,-84.8"/>
<text text-anchor="middle" x="1802" y="-62.6" font-family="Times,serif" font-size="14.00">WorkspaceLexiconEditTileComponent</text>
</g>
<!-- WorkspaceLexiconEditTileComponent&#45;&gt;AppModule -->
<g id="edge20" class="edge">
<title>WorkspaceLexiconEditTileComponent&#45;&gt;AppModule</title>
<path fill="none" stroke="black" d="M1802,-84.82C1802,-102.17 1802,-125.8 1802,-125.8 1802,-125.8 2900.05,-125.8 2900.05,-125.8"/>
<polygon fill="black" stroke="black" points="2900.05,-129.3 2910.05,-125.8 2900.05,-122.3 2900.05,-129.3"/>
</g>
<!-- WorkspaceLexiconTileComponent -->
<g id="node21" class="node">
<title>WorkspaceLexiconTileComponent</title>
<polygon fill="#ffffb3" stroke="black" points="1666.21,-84.8 1453.79,-84.8 1453.79,-48.8 1666.21,-48.8 1666.21,-84.8"/>
<text text-anchor="middle" x="1560" y="-62.6" font-family="Times,serif" font-size="14.00">WorkspaceLexiconTileComponent</text>
</g>
<!-- WorkspaceLexiconTileComponent&#45;&gt;AppModule -->
<g id="edge21" class="edge">
<title>WorkspaceLexiconTileComponent&#45;&gt;AppModule</title>
<path fill="none" stroke="black" d="M1560,-85.07C1560,-103.36 1560,-128.8 1560,-128.8 1560,-128.8 2899.96,-128.8 2899.96,-128.8"/>
<polygon fill="black" stroke="black" points="2899.96,-132.3 2909.96,-128.8 2899.96,-125.3 2899.96,-132.3"/>
</g>
<!-- WorkspaceListComponent -->
<g id="node22" class="node">
<title>WorkspaceListComponent</title>
<polygon fill="#ffffb3" stroke="black" points="1436.08,-84.8 1269.92,-84.8 1269.92,-48.8 1436.08,-48.8 1436.08,-84.8"/>
<text text-anchor="middle" x="1353" y="-62.6" font-family="Times,serif" font-size="14.00">WorkspaceListComponent</text>
</g>
<!-- WorkspaceListComponent&#45;&gt;AppModule -->
<g id="edge22" class="edge">
<title>WorkspaceListComponent&#45;&gt;AppModule</title>
<path fill="none" stroke="black" d="M1353,-84.97C1353,-103.89 1353,-130.8 1353,-130.8 1353,-130.8 2900.05,-130.8 2900.05,-130.8"/>
<polygon fill="black" stroke="black" points="2900.05,-134.3 2910.05,-130.8 2900.05,-127.3 2900.05,-134.3"/>
</g>
<!-- WorkspaceMenuComponent -->
<g id="node23" class="node">
<title>WorkspaceMenuComponent</title>
<polygon fill="#ffffb3" stroke="black" points="1251.46,-84.8 1074.54,-84.8 1074.54,-48.8 1251.46,-48.8 1251.46,-84.8"/>
<text text-anchor="middle" x="1163" y="-62.6" font-family="Times,serif" font-size="14.00">WorkspaceMenuComponent</text>
</g>
<!-- WorkspaceMenuComponent&#45;&gt;AppModule -->
<g id="edge23" class="edge">
<title>WorkspaceMenuComponent&#45;&gt;AppModule</title>
<path fill="none" stroke="black" d="M1163,-85.11C1163,-104.95 1163,-133.8 1163,-133.8 1163,-133.8 2899.98,-133.8 2899.98,-133.8"/>
<polygon fill="black" stroke="black" points="2899.98,-137.3 2909.98,-133.8 2899.98,-130.3 2899.98,-137.3"/>
</g>
<!-- WorkspaceTextSelectorComponent -->
<g id="node24" class="node">
<title>WorkspaceTextSelectorComponent</title>
<polygon fill="#ffffb3" stroke="black" points="1056.82,-84.8 841.18,-84.8 841.18,-48.8 1056.82,-48.8 1056.82,-84.8"/>
<text text-anchor="middle" x="949" y="-62.6" font-family="Times,serif" font-size="14.00">WorkspaceTextSelectorComponent</text>
</g>
<!-- WorkspaceTextSelectorComponent&#45;&gt;AppModule -->
<g id="edge24" class="edge">
<title>WorkspaceTextSelectorComponent&#45;&gt;AppModule</title>
<path fill="none" stroke="black" d="M949,-84.93C949,-105.37 949,-135.8 949,-135.8 949,-135.8 2900.16,-135.8 2900.16,-135.8"/>
<polygon fill="black" stroke="black" points="2900.16,-139.3 2910.16,-135.8 2900.16,-132.3 2900.16,-139.3"/>
</g>
<!-- WorkspaceTextWindowComponent -->
<g id="node25" class="node">
<title>WorkspaceTextWindowComponent</title>
<polygon fill="#ffffb3" stroke="black" points="823.17,-84.8 604.83,-84.8 604.83,-48.8 823.17,-48.8 823.17,-84.8"/>
<text text-anchor="middle" x="714" y="-62.6" font-family="Times,serif" font-size="14.00">WorkspaceTextWindowComponent</text>
</g>
<!-- WorkspaceTextWindowComponent&#45;&gt;AppModule -->
<g id="edge25" class="edge">
<title>WorkspaceTextWindowComponent&#45;&gt;AppModule</title>
<path fill="none" stroke="black" d="M714,-85.08C714,-106.12 714,-137.8 714,-137.8 714,-137.8 2900.27,-137.8 2900.27,-137.8"/>
<polygon fill="black" stroke="black" points="2900.27,-141.3 2910.27,-137.8 2900.27,-134.3 2900.27,-141.3"/>
</g>
<!-- AppComponent  -->
<g id="node30" class="node">
<title>AppComponent </title>
<polygon fill="#80b1d3" stroke="black" points="3006.44,-214.8 2897.56,-214.8 2897.56,-178.8 3006.44,-178.8 3006.44,-214.8"/>
<text text-anchor="middle" x="2952" y="-192.6" font-family="Times,serif" font-size="14.00">AppComponent </text>
</g>
<!-- AppModule&#45;&gt;AppComponent  -->
<g id="edge29" class="edge">
<title>AppModule&#45;&gt;AppComponent </title>
<path fill="none" stroke="black" stroke-dasharray="1,5" d="M2952,-149.91C2952,-149.91 2952,-168.79 2952,-168.79"/>
<polygon fill="black" stroke="black" points="2948.5,-168.79 2952,-178.79 2955.5,-168.79 2948.5,-168.79"/>
</g>
<!-- AppRoutingModule -->
<g id="node27" class="node">
<title>AppRoutingModule</title>
<polygon fill="#8dd3c7" stroke="black" points="405.28,-84.8 402.28,-88.8 381.28,-88.8 378.28,-84.8 276.72,-84.8 276.72,-48.8 405.28,-48.8 405.28,-84.8"/>
<text text-anchor="middle" x="341" y="-62.6" font-family="Times,serif" font-size="14.00">AppRoutingModule</text>
</g>
<!-- AppRoutingModule&#45;&gt;AppModule -->
<g id="edge26" class="edge">
<title>AppRoutingModule&#45;&gt;AppModule</title>
<path fill="none" stroke="black" d="M341,-84.81C341,-107.29 341,-142.8 341,-142.8 341,-142.8 2900.2,-142.8 2900.2,-142.8"/>
<polygon fill="black" stroke="black" points="2900.2,-146.3 2910.2,-142.8 2900.2,-139.3 2900.2,-146.3"/>
</g>
<!-- AuthConfigModule -->
<g id="node28" class="node">
<title>AuthConfigModule</title>
<polygon fill="#8dd3c7" stroke="black" points="258.44,-84.8 255.44,-88.8 234.44,-88.8 231.44,-84.8 131.56,-84.8 131.56,-48.8 258.44,-48.8 258.44,-84.8"/>
<text text-anchor="middle" x="195" y="-62.6" font-family="Times,serif" font-size="14.00">AuthConfigModule</text>
</g>
<!-- AuthConfigModule&#45;&gt;AppModule -->
<g id="edge27" class="edge">
<title>AuthConfigModule&#45;&gt;AppModule</title>
<path fill="none" stroke="black" d="M195,-85.12C195,-108.46 195,-145.8 195,-145.8 195,-145.8 2900.07,-145.8 2900.07,-145.8"/>
<polygon fill="black" stroke="black" points="2900.07,-149.3 2910.07,-145.8 2900.07,-142.3 2900.07,-149.3"/>
</g>
<!-- IconsModule -->
<g id="node29" class="node">
<title>IconsModule</title>
<polygon fill="#8dd3c7" stroke="black" points="113.88,-84.8 110.88,-88.8 89.88,-88.8 86.88,-84.8 24.12,-84.8 24.12,-48.8 113.88,-48.8 113.88,-84.8"/>
<text text-anchor="middle" x="69" y="-62.6" font-family="Times,serif" font-size="14.00">IconsModule</text>
</g>
<!-- IconsModule&#45;&gt;AppModule -->
<g id="edge28" class="edge">
<title>IconsModule&#45;&gt;AppModule</title>
<path fill="none" stroke="black" d="M69,-85.18C69,-109.08 69,-147.8 69,-147.8 69,-147.8 2900.13,-147.8 2900.13,-147.8"/>
<polygon fill="black" stroke="black" points="2900.13,-151.3 2910.13,-147.8 2900.13,-144.3 2900.13,-151.3"/>
</g>
<!-- CommonService -->
<g id="node31" class="node">
<title>CommonService</title>
<ellipse fill="#fdb462" stroke="black" cx="505" cy="-66.8" rx="75.89" ry="18"/>
<text text-anchor="middle" x="505" y="-62.6" font-family="Times,serif" font-size="14.00">CommonService</text>
</g>
<!-- CommonService&#45;&gt;AppModule -->
<g id="edge30" class="edge">
<title>CommonService&#45;&gt;AppModule</title>
<path fill="none" stroke="black" d="M505,-85.09C505,-107.01 505,-140.8 505,-140.8 505,-140.8 2900.3,-140.8 2900.3,-140.8"/>
<polygon fill="black" stroke="black" points="2900.3,-144.3 2910.3,-140.8 2900.3,-137.3 2900.3,-144.3"/>
</g>
</g>
</svg>
