<?xml version="1.0" encoding="UTF-8" standalone="no"?>
<!DOCTYPE svg PUBLIC "-//W3C//DTD SVG 1.1//EN"
 "http://www.w3.org/Graphics/SVG/1.1/DTD/svg11.dtd">
<!-- Generated by graphviz version 5.0.0 (20220707.1540)
 -->
<!-- Title: dependencies Pages: 1 -->
<svg width="5399pt" height="247pt"
 viewBox="0.00 0.00 5399.00 246.80" xmlns="http://www.w3.org/2000/svg" xmlns:xlink="http://www.w3.org/1999/xlink">
<g id="graph0" class="graph" transform="scale(1 1) rotate(0) translate(4 242.8)">
<title>dependencies</title>
<polygon fill="white" stroke="transparent" points="-4,4 -4,-242.8 5395,-242.8 5395,4 -4,4"/>
<text text-anchor="middle" x="2695.5" y="-8.2" font-family="sans-serif" font-size="14.00">dependencies</text>
<g id="clust1" class="cluster">
<title>cluster_AppModule</title>
<polygon fill="none" stroke="black" stroke-dasharray="1,5" points="8,-32.8 8,-230.8 5383,-230.8 5383,-32.8 8,-32.8"/>
</g>
<g id="clust26" class="cluster">
<title>cluster_AppModule_imports</title>
<polygon fill="none" stroke="black" points="4862,-40.8 4862,-92.8 5375,-92.8 5375,-40.8 4862,-40.8"/>
</g>
<g id="clust28" class="cluster">
<title>cluster_AppModule_bootstrap</title>
<polygon fill="none" stroke="black" points="2917,-170.8 2917,-222.8 3041,-222.8 3041,-170.8 2917,-170.8"/>
</g>
<g id="clust29" class="cluster">
<title>cluster_AppModule_providers</title>
<polygon fill="none" stroke="black" points="4686,-40.8 4686,-92.8 4854,-92.8 4854,-40.8 4686,-40.8"/>
</g>
<g id="clust2" class="cluster">
<title>cluster_AppModule_declarations</title>
<polygon fill="none" stroke="black" points="16,-40.8 16,-92.8 4678,-92.8 4678,-40.8 16,-40.8"/>
</g>
<!-- AnnotationEditorComponent -->
<g id="node1" class="node">
<title>AnnotationEditorComponent</title>
<polygon fill="#ffffb3" stroke="black" points="4669.82,-84.8 4490.18,-84.8 4490.18,-48.8 4669.82,-48.8 4669.82,-84.8"/>
<text text-anchor="middle" x="4580" y="-62.6" font-family="Times,serif" font-size="14.00">AnnotationEditorComponent</text>
</g>
<!-- AppModule -->
<g id="node24" class="node">
<title>AppModule</title>
<polygon fill="#8dd3c7" stroke="black" points="3020.66,-149.8 3017.66,-153.8 2996.66,-153.8 2993.66,-149.8 2937.34,-149.8 2937.34,-113.8 3020.66,-113.8 3020.66,-149.8"/>
<text text-anchor="middle" x="2979" y="-127.6" font-family="Times,serif" font-size="14.00">AppModule</text>
</g>
<!-- AnnotationEditorComponent&#45;&gt;AppModule -->
<g id="edge1" class="edge">
<title>AnnotationEditorComponent&#45;&gt;AppModule</title>
<path fill="none" stroke="black" d="M4580,-85.02C4580,-105.17 4580,-134.8 4580,-134.8 4580,-134.8 3031,-134.8 3031,-134.8"/>
<polygon fill="black" stroke="black" points="3031,-131.3 3021,-134.8 3031,-138.3 3031,-131.3"/>
</g>
<!-- AppComponent -->
<g id="node2" class="node">
<title>AppComponent</title>
<polygon fill="#ffffb3" stroke="black" points="4472.94,-84.8 4367.06,-84.8 4367.06,-48.8 4472.94,-48.8 4472.94,-84.8"/>
<text text-anchor="middle" x="4420" y="-62.6" font-family="Times,serif" font-size="14.00">AppComponent</text>
</g>
<!-- AppComponent&#45;&gt;AppModule -->
<g id="edge2" class="edge">
<title>AppComponent&#45;&gt;AppModule</title>
<path fill="none" stroke="black" d="M4420,-84.91C4420,-104.14 4420,-131.8 4420,-131.8 4420,-131.8 3030.96,-131.8 3030.96,-131.8"/>
<polygon fill="black" stroke="black" points="3030.96,-128.3 3020.96,-131.8 3030.96,-135.3 3030.96,-128.3"/>
</g>
<!-- FormCoreEditorComponent -->
<g id="node3" class="node">
<title>FormCoreEditorComponent</title>
<polygon fill="#ffffb3" stroke="black" points="4348.88,-84.8 4175.12,-84.8 4175.12,-48.8 4348.88,-48.8 4348.88,-84.8"/>
<text text-anchor="middle" x="4262" y="-62.6" font-family="Times,serif" font-size="14.00">FormCoreEditorComponent</text>
</g>
<!-- FormCoreEditorComponent&#45;&gt;AppModule -->
<g id="edge3" class="edge">
<title>FormCoreEditorComponent&#45;&gt;AppModule</title>
<path fill="none" stroke="black" d="M4262,-85.02C4262,-103.63 4262,-129.8 4262,-129.8 4262,-129.8 3030.96,-129.8 3030.96,-129.8"/>
<polygon fill="black" stroke="black" points="3030.96,-126.3 3020.96,-129.8 3030.96,-133.3 3030.96,-126.3"/>
</g>
<!-- LexEntryEditorComponent -->
<g id="node4" class="node">
<title>LexEntryEditorComponent</title>
<polygon fill="#ffffb3" stroke="black" points="4156.69,-84.8 3987.31,-84.8 3987.31,-48.8 4156.69,-48.8 4156.69,-84.8"/>
<text text-anchor="middle" x="4072" y="-62.6" font-family="Times,serif" font-size="14.00">LexEntryEditorComponent</text>
</g>
<!-- LexEntryEditorComponent&#45;&gt;AppModule -->
<g id="edge4" class="edge">
<title>LexEntryEditorComponent&#45;&gt;AppModule</title>
<path fill="none" stroke="black" d="M4072,-84.8C4072,-102.48 4072,-126.8 4072,-126.8 4072,-126.8 3030.84,-126.8 3030.84,-126.8"/>
<polygon fill="black" stroke="black" points="3030.84,-123.3 3020.84,-126.8 3030.84,-130.3 3030.84,-123.3"/>
</g>
<!-- LexEntryMetadataEditorComponent -->
<g id="node5" class="node">
<title>LexEntryMetadataEditorComponent</title>
<polygon fill="#ffffb3" stroke="black" points="3969.78,-84.8 3748.22,-84.8 3748.22,-48.8 3969.78,-48.8 3969.78,-84.8"/>
<text text-anchor="middle" x="3859" y="-62.6" font-family="Times,serif" font-size="14.00">LexEntryMetadataEditorComponent</text>
</g>
<!-- LexEntryMetadataEditorComponent&#45;&gt;AppModule -->
<g id="edge5" class="edge">
<title>LexEntryMetadataEditorComponent&#45;&gt;AppModule</title>
<path fill="none" stroke="black" d="M3859,-84.83C3859,-101.86 3859,-124.8 3859,-124.8 3859,-124.8 3030.85,-124.8 3030.85,-124.8"/>
<polygon fill="black" stroke="black" points="3030.85,-121.3 3020.85,-124.8 3030.85,-128.3 3030.85,-121.3"/>
</g>
<!-- LexicalEntryEditorComponent -->
<g id="node6" class="node">
<title>LexicalEntryEditorComponent</title>
<polygon fill="#ffffb3" stroke="black" points="3730.9,-84.8 3541.1,-84.8 3541.1,-48.8 3730.9,-48.8 3730.9,-84.8"/>
<text text-anchor="middle" x="3636" y="-62.6" font-family="Times,serif" font-size="14.00">LexicalEntryEditorComponent</text>
</g>
<!-- LexicalEntryEditorComponent&#45;&gt;AppModule -->
<g id="edge6" class="edge">
<title>LexicalEntryEditorComponent&#45;&gt;AppModule</title>
<path fill="none" stroke="black" d="M3636,-84.81C3636,-100.85 3636,-121.8 3636,-121.8 3636,-121.8 3030.85,-121.8 3030.85,-121.8"/>
<polygon fill="black" stroke="black" points="3030.85,-118.3 3020.85,-121.8 3030.85,-125.3 3030.85,-118.3"/>
</g>
<!-- MainLayoutComponent -->
<g id="node7" class="node">
<title>MainLayoutComponent</title>
<polygon fill="#ffffb3" stroke="black" points="3523.04,-84.8 3372.96,-84.8 3372.96,-48.8 3523.04,-48.8 3523.04,-84.8"/>
<text text-anchor="middle" x="3448" y="-62.6" font-family="Times,serif" font-size="14.00">MainLayoutComponent</text>
</g>
<!-- MainLayoutComponent&#45;&gt;AppModule -->
<g id="edge7" class="edge">
<title>MainLayoutComponent&#45;&gt;AppModule</title>
<path fill="none" stroke="black" d="M3448,-85.04C3448,-100.37 3448,-119.8 3448,-119.8 3448,-119.8 3031.03,-119.8 3031.03,-119.8"/>
<polygon fill="black" stroke="black" points="3031.03,-116.3 3021.03,-119.8 3031.03,-123.3 3031.03,-116.3"/>
</g>
<!-- RelationEditorComponent -->
<g id="node8" class="node">
<title>RelationEditorComponent</title>
<polygon fill="#ffffb3" stroke="black" points="3354.76,-84.8 3191.24,-84.8 3191.24,-48.8 3354.76,-48.8 3354.76,-84.8"/>
<text text-anchor="middle" x="3273" y="-62.6" font-family="Times,serif" font-size="14.00">RelationEditorComponent</text>
</g>
<!-- RelationEditorComponent&#45;&gt;AppModule -->
<g id="edge8" class="edge">
<title>RelationEditorComponent&#45;&gt;AppModule</title>
<path fill="none" stroke="black" d="M3273,-84.85C3273,-99.17 3273,-116.8 3273,-116.8 3273,-116.8 3030.81,-116.8 3030.81,-116.8"/>
<polygon fill="black" stroke="black" points="3030.81,-113.3 3020.81,-116.8 3030.81,-120.3 3030.81,-113.3"/>
</g>
<!-- SemanticRelEditorComponent -->
<g id="node9" class="node">
<title>SemanticRelEditorComponent</title>
<polygon fill="#ffffb3" stroke="black" points="3172.86,-84.8 2985.14,-84.8 2985.14,-48.8 3172.86,-48.8 3172.86,-84.8"/>
<text text-anchor="middle" x="3079" y="-62.6" font-family="Times,serif" font-size="14.00">SemanticRelEditorComponent</text>
</g>
<!-- SemanticRelEditorComponent&#45;&gt;AppModule -->
<g id="edge9" class="edge">
<title>SemanticRelEditorComponent&#45;&gt;AppModule</title>
<path fill="none" stroke="black" d="M3002.95,-84.91C3002.95,-84.91 3002.95,-103.79 3002.95,-103.79"/>
<polygon fill="black" stroke="black" points="2999.45,-103.79 3002.95,-113.79 3006.45,-103.79 2999.45,-103.79"/>
</g>
<!-- SenseCoreEditorComponent -->
<g id="node10" class="node">
<title>SenseCoreEditorComponent</title>
<polygon fill="#ffffb3" stroke="black" points="2967.2,-84.8 2790.8,-84.8 2790.8,-48.8 2967.2,-48.8 2967.2,-84.8"/>
<text text-anchor="middle" x="2879" y="-62.6" font-family="Times,serif" font-size="14.00">SenseCoreEditorComponent</text>
</g>
<!-- SenseCoreEditorComponent&#45;&gt;AppModule -->
<g id="edge10" class="edge">
<title>SenseCoreEditorComponent&#45;&gt;AppModule</title>
<path fill="none" stroke="black" d="M2952.13,-84.91C2952.13,-84.91 2952.13,-103.79 2952.13,-103.79"/>
<polygon fill="black" stroke="black" points="2948.63,-103.79 2952.13,-113.79 2955.63,-103.79 2948.63,-103.79"/>
</g>
<!-- TabsFormComponent -->
<g id="node11" class="node">
<title>TabsFormComponent</title>
<polygon fill="#ffffb3" stroke="black" points="2772.38,-84.8 2633.62,-84.8 2633.62,-48.8 2772.38,-48.8 2772.38,-84.8"/>
<text text-anchor="middle" x="2703" y="-62.6" font-family="Times,serif" font-size="14.00">TabsFormComponent</text>
</g>
<!-- TabsFormComponent&#45;&gt;AppModule -->
<g id="edge11" class="edge">
<title>TabsFormComponent&#45;&gt;AppModule</title>
<path fill="none" stroke="black" d="M2703,-84.85C2703,-99.17 2703,-116.8 2703,-116.8 2703,-116.8 2927.08,-116.8 2927.08,-116.8"/>
<polygon fill="black" stroke="black" points="2927.08,-120.3 2937.08,-116.8 2927.08,-113.3 2927.08,-120.3"/>
</g>
<!-- TabsLexicalEntryComponent -->
<g id="node12" class="node">
<title>TabsLexicalEntryComponent</title>
<polygon fill="#ffffb3" stroke="black" points="2615.62,-84.8 2434.38,-84.8 2434.38,-48.8 2615.62,-48.8 2615.62,-84.8"/>
<text text-anchor="middle" x="2525" y="-62.6" font-family="Times,serif" font-size="14.00">TabsLexicalEntryComponent</text>
</g>
<!-- TabsLexicalEntryComponent&#45;&gt;AppModule -->
<g id="edge12" class="edge">
<title>TabsLexicalEntryComponent&#45;&gt;AppModule</title>
<path fill="none" stroke="black" d="M2525,-85.04C2525,-100.37 2525,-119.8 2525,-119.8 2525,-119.8 2927.1,-119.8 2927.1,-119.8"/>
<polygon fill="black" stroke="black" points="2927.1,-123.3 2937.1,-119.8 2927.1,-116.3 2927.1,-123.3"/>
</g>
<!-- TabsSenseComponent -->
<g id="node13" class="node">
<title>TabsSenseComponent</title>
<polygon fill="#ffffb3" stroke="black" points="2416.71,-84.8 2275.29,-84.8 2275.29,-48.8 2416.71,-48.8 2416.71,-84.8"/>
<text text-anchor="middle" x="2346" y="-62.6" font-family="Times,serif" font-size="14.00">TabsSenseComponent</text>
</g>
<!-- TabsSenseComponent&#45;&gt;AppModule -->
<g id="edge13" class="edge">
<title>TabsSenseComponent&#45;&gt;AppModule</title>
<path fill="none" stroke="black" d="M2346,-84.81C2346,-100.85 2346,-121.8 2346,-121.8 2346,-121.8 2926.98,-121.8 2926.98,-121.8"/>
<polygon fill="black" stroke="black" points="2926.98,-125.3 2936.98,-121.8 2926.98,-118.3 2926.98,-125.3"/>
</g>
<!-- WorkspaceComponent -->
<g id="node14" class="node">
<title>WorkspaceComponent</title>
<polygon fill="#ffffb3" stroke="black" points="2257.3,-84.8 2112.7,-84.8 2112.7,-48.8 2257.3,-48.8 2257.3,-84.8"/>
<text text-anchor="middle" x="2185" y="-62.6" font-family="Times,serif" font-size="14.00">WorkspaceComponent</text>
</g>
<!-- WorkspaceComponent&#45;&gt;AppModule -->
<g id="edge14" class="edge">
<title>WorkspaceComponent&#45;&gt;AppModule</title>
<path fill="none" stroke="black" d="M2185,-84.83C2185,-101.86 2185,-124.8 2185,-124.8 2185,-124.8 2927.15,-124.8 2927.15,-124.8"/>
<polygon fill="black" stroke="black" points="2927.15,-128.3 2937.15,-124.8 2927.15,-121.3 2927.15,-128.3"/>
</g>
<!-- WorkspaceCorpusExplorerComponent -->
<g id="node15" class="node">
<title>WorkspaceCorpusExplorerComponent</title>
<polygon fill="#ffffb3" stroke="black" points="2094.72,-84.8 1861.28,-84.8 1861.28,-48.8 2094.72,-48.8 2094.72,-84.8"/>
<text text-anchor="middle" x="1978" y="-62.6" font-family="Times,serif" font-size="14.00">WorkspaceCorpusExplorerComponent</text>
</g>
<!-- WorkspaceCorpusExplorerComponent&#45;&gt;AppModule -->
<g id="edge15" class="edge">
<title>WorkspaceCorpusExplorerComponent&#45;&gt;AppModule</title>
<path fill="none" stroke="black" d="M1978,-84.8C1978,-102.48 1978,-126.8 1978,-126.8 1978,-126.8 2927.26,-126.8 2927.26,-126.8"/>
<polygon fill="black" stroke="black" points="2927.26,-130.3 2937.26,-126.8 2927.26,-123.3 2927.26,-130.3"/>
</g>
<!-- WorkspaceLayersVisibilityManagerComponent -->
<g id="node16" class="node">
<title>WorkspaceLayersVisibilityManagerComponent</title>
<polygon fill="#ffffb3" stroke="black" points="1843.54,-84.8 1558.46,-84.8 1558.46,-48.8 1843.54,-48.8 1843.54,-84.8"/>
<text text-anchor="middle" x="1701" y="-62.6" font-family="Times,serif" font-size="14.00">WorkspaceLayersVisibilityManagerComponent</text>
</g>
<!-- WorkspaceLayersVisibilityManagerComponent&#45;&gt;AppModule -->
<g id="edge16" class="edge">
<title>WorkspaceLayersVisibilityManagerComponent&#45;&gt;AppModule</title>
<path fill="none" stroke="black" d="M1701,-85.02C1701,-103.63 1701,-129.8 1701,-129.8 1701,-129.8 2927.21,-129.8 2927.21,-129.8"/>
<polygon fill="black" stroke="black" points="2927.21,-133.3 2937.21,-129.8 2927.21,-126.3 2927.21,-133.3"/>
</g>
<!-- WorkspaceLayoutComponent -->
<g id="node17" class="node">
<title>WorkspaceLayoutComponent</title>
<polygon fill="#ffffb3" stroke="black" points="1540.95,-84.8 1357.05,-84.8 1357.05,-48.8 1540.95,-48.8 1540.95,-84.8"/>
<text text-anchor="middle" x="1449" y="-62.6" font-family="Times,serif" font-size="14.00">WorkspaceLayoutComponent</text>
</g>
<!-- WorkspaceLayoutComponent&#45;&gt;AppModule -->
<g id="edge17" class="edge">
<title>WorkspaceLayoutComponent&#45;&gt;AppModule</title>
<path fill="none" stroke="black" d="M1449,-84.91C1449,-104.14 1449,-131.8 1449,-131.8 1449,-131.8 2927.28,-131.8 2927.28,-131.8"/>
<polygon fill="black" stroke="black" points="2927.28,-135.3 2937.28,-131.8 2927.28,-128.3 2927.28,-135.3"/>
</g>
<!-- WorkspaceLexiconEditTileComponent -->
<g id="node18" class="node">
<title>WorkspaceLexiconEditTileComponent</title>
<polygon fill="#ffffb3" stroke="black" points="1339.04,-84.8 1102.96,-84.8 1102.96,-48.8 1339.04,-48.8 1339.04,-84.8"/>
<text text-anchor="middle" x="1221" y="-62.6" font-family="Times,serif" font-size="14.00">WorkspaceLexiconEditTileComponent</text>
</g>
<!-- WorkspaceLexiconEditTileComponent&#45;&gt;AppModule -->
<g id="edge18" class="edge">
<title>WorkspaceLexiconEditTileComponent&#45;&gt;AppModule</title>
<path fill="none" stroke="black" d="M1221,-85.02C1221,-105.17 1221,-134.8 1221,-134.8 1221,-134.8 2927.28,-134.8 2927.28,-134.8"/>
<polygon fill="black" stroke="black" points="2927.28,-138.3 2937.28,-134.8 2927.28,-131.3 2927.28,-138.3"/>
</g>
<!-- WorkspaceLexiconTileComponent -->
<g id="node19" class="node">
<title>WorkspaceLexiconTileComponent</title>
<polygon fill="#ffffb3" stroke="black" points="1085.21,-84.8 872.79,-84.8 872.79,-48.8 1085.21,-48.8 1085.21,-84.8"/>
<text text-anchor="middle" x="979" y="-62.6" font-family="Times,serif" font-size="14.00">WorkspaceLexiconTileComponent</text>
</g>
<!-- WorkspaceLexiconTileComponent&#45;&gt;AppModule -->
<g id="edge19" class="edge">
<title>WorkspaceLexiconTileComponent&#45;&gt;AppModule</title>
<path fill="none" stroke="black" d="M979,-85.08C979,-106.12 979,-137.8 979,-137.8 979,-137.8 2927.23,-137.8 2927.23,-137.8"/>
<polygon fill="black" stroke="black" points="2927.23,-141.3 2937.23,-137.8 2927.23,-134.3 2927.23,-141.3"/>
</g>
<!-- WorkspaceListComponent -->
<g id="node20" class="node">
<title>WorkspaceListComponent</title>
<polygon fill="#ffffb3" stroke="black" points="855.08,-84.8 688.92,-84.8 688.92,-48.8 855.08,-48.8 855.08,-84.8"/>
<text text-anchor="middle" x="772" y="-62.6" font-family="Times,serif" font-size="14.00">WorkspaceListComponent</text>
</g>
<!-- WorkspaceListComponent&#45;&gt;AppModule -->
<g id="edge20" class="edge">
<title>WorkspaceListComponent&#45;&gt;AppModule</title>
<path fill="none" stroke="black" d="M772,-84.84C772,-106.46 772,-139.8 772,-139.8 772,-139.8 2926.88,-139.8 2926.88,-139.8"/>
<polygon fill="black" stroke="black" points="2926.88,-143.3 2936.88,-139.8 2926.88,-136.3 2926.88,-143.3"/>
</g>
<!-- WorkspaceMenuComponent -->
<g id="node21" class="node">
<title>WorkspaceMenuComponent</title>
<polygon fill="#ffffb3" stroke="black" points="670.46,-84.8 493.54,-84.8 493.54,-48.8 670.46,-48.8 670.46,-84.8"/>
<text text-anchor="middle" x="582" y="-62.6" font-family="Times,serif" font-size="14.00">WorkspaceMenuComponent</text>
</g>
<!-- WorkspaceMenuComponent&#45;&gt;AppModule -->
<g id="edge21" class="edge">
<title>WorkspaceMenuComponent&#45;&gt;AppModule</title>
<path fill="none" stroke="black" d="M582,-84.81C582,-107.29 582,-142.8 582,-142.8 582,-142.8 2927.14,-142.8 2927.14,-142.8"/>
<polygon fill="black" stroke="black" points="2927.14,-146.3 2937.14,-142.8 2927.14,-139.3 2927.14,-146.3"/>
</g>
<!-- WorkspaceTextSelectorComponent -->
<g id="node22" class="node">
<title>WorkspaceTextSelectorComponent</title>
<polygon fill="#ffffb3" stroke="black" points="475.82,-84.8 260.18,-84.8 260.18,-48.8 475.82,-48.8 475.82,-84.8"/>
<text text-anchor="middle" x="368" y="-62.6" font-family="Times,serif" font-size="14.00">WorkspaceTextSelectorComponent</text>
</g>
<!-- WorkspaceTextSelectorComponent&#45;&gt;AppModule -->
<g id="edge22" class="edge">
<title>WorkspaceTextSelectorComponent&#45;&gt;AppModule</title>
<path fill="none" stroke="black" d="M368,-84.89C368,-107.93 368,-144.8 368,-144.8 368,-144.8 2927.2,-144.8 2927.2,-144.8"/>
<polygon fill="black" stroke="black" points="2927.2,-148.3 2937.2,-144.8 2927.2,-141.3 2927.2,-148.3"/>
</g>
<!-- WorkspaceTextWindowComponent -->
<g id="node23" class="node">
<title>WorkspaceTextWindowComponent</title>
<polygon fill="#ffffb3" stroke="black" points="242.17,-84.8 23.83,-84.8 23.83,-48.8 242.17,-48.8 242.17,-84.8"/>
<text text-anchor="middle" x="133" y="-62.6" font-family="Times,serif" font-size="14.00">WorkspaceTextWindowComponent</text>
</g>
<!-- WorkspaceTextWindowComponent&#45;&gt;AppModule -->
<g id="edge23" class="edge">
<title>WorkspaceTextWindowComponent&#45;&gt;AppModule</title>
<path fill="none" stroke="black" d="M133,-85.18C133,-109.08 133,-147.8 133,-147.8 133,-147.8 2927.12,-147.8 2927.12,-147.8"/>
<polygon fill="black" stroke="black" points="2927.12,-151.3 2937.12,-147.8 2927.12,-144.3 2927.12,-151.3"/>
</g>
<!-- AppComponent  -->
<g id="node29" class="node">
<title>AppComponent </title>
<polygon fill="#80b1d3" stroke="black" points="3033.44,-214.8 2924.56,-214.8 2924.56,-178.8 3033.44,-178.8 3033.44,-214.8"/>
<text text-anchor="middle" x="2979" y="-192.6" font-family="Times,serif" font-size="14.00">AppComponent </text>
</g>
<!-- AppModule&#45;&gt;AppComponent  -->
<g id="edge28" class="edge">
<title>AppModule&#45;&gt;AppComponent </title>
<path fill="none" stroke="black" stroke-dasharray="1,5" d="M2979,-149.91C2979,-149.91 2979,-168.79 2979,-168.79"/>
<polygon fill="black" stroke="black" points="2975.5,-168.79 2979,-178.79 2982.5,-168.79 2975.5,-168.79"/>
</g>
<!-- AppRoutingModule -->
<g id="node25" class="node">
<title>AppRoutingModule</title>
<polygon fill="#8dd3c7" stroke="black" points="5367.28,-84.8 5364.28,-88.8 5343.28,-88.8 5340.28,-84.8 5238.72,-84.8 5238.72,-48.8 5367.28,-48.8 5367.28,-84.8"/>
<text text-anchor="middle" x="5303" y="-62.6" font-family="Times,serif" font-size="14.00">AppRoutingModule</text>
</g>
<!-- AppRoutingModule&#45;&gt;AppModule -->
<g id="edge24" class="edge">
<title>AppRoutingModule&#45;&gt;AppModule</title>
<path fill="none" stroke="black" d="M5303,-85.18C5303,-109.08 5303,-147.8 5303,-147.8 5303,-147.8 3030.82,-147.8 3030.82,-147.8"/>
<polygon fill="black" stroke="black" points="3030.82,-144.3 3020.82,-147.8 3030.82,-151.3 3030.82,-144.3"/>
</g>
<!-- AuthConfigModule -->
<g id="node26" class="node">
<title>AuthConfigModule</title>
<polygon fill="#8dd3c7" stroke="black" points="5220.44,-84.8 5217.44,-88.8 5196.44,-88.8 5193.44,-84.8 5093.56,-84.8 5093.56,-48.8 5220.44,-48.8 5220.44,-84.8"/>
<text text-anchor="middle" x="5157" y="-62.6" font-family="Times,serif" font-size="14.00">AuthConfigModule</text>
</g>
<!-- AuthConfigModule&#45;&gt;AppModule -->
<g id="edge25" class="edge">
<title>AuthConfigModule&#45;&gt;AppModule</title>
<path fill="none" stroke="black" d="M5157,-84.89C5157,-107.93 5157,-144.8 5157,-144.8 5157,-144.8 3031.05,-144.8 3031.05,-144.8"/>
<polygon fill="black" stroke="black" points="3031.05,-141.3 3021.05,-144.8 3031.05,-148.3 3031.05,-141.3"/>
</g>
<!-- IconsModule -->
<g id="node27" class="node">
<title>IconsModule</title>
<polygon fill="#8dd3c7" stroke="black" points="5075.88,-84.8 5072.88,-88.8 5051.88,-88.8 5048.88,-84.8 4986.12,-84.8 4986.12,-48.8 5075.88,-48.8 5075.88,-84.8"/>
<text text-anchor="middle" x="5031" y="-62.6" font-family="Times,serif" font-size="14.00">IconsModule</text>
</g>
<!-- IconsModule&#45;&gt;AppModule -->
<g id="edge26" class="edge">
<title>IconsModule&#45;&gt;AppModule</title>
<path fill="none" stroke="black" d="M5031,-84.81C5031,-107.29 5031,-142.8 5031,-142.8 5031,-142.8 3030.92,-142.8 3030.92,-142.8"/>
<polygon fill="black" stroke="black" points="3030.92,-139.3 3020.92,-142.8 3030.92,-146.3 3030.92,-139.3"/>
</g>
<!-- SharedModule -->
<g id="node28" class="node">
<title>SharedModule</title>
<polygon fill="#8dd3c7" stroke="black" points="4968.43,-84.8 4965.43,-88.8 4944.43,-88.8 4941.43,-84.8 4869.57,-84.8 4869.57,-48.8 4968.43,-48.8 4968.43,-84.8"/>
<text text-anchor="middle" x="4919" y="-62.6" font-family="Times,serif" font-size="14.00">SharedModule</text>
</g>
<!-- SharedModule&#45;&gt;AppModule -->
<g id="edge27" class="edge">
<title>SharedModule&#45;&gt;AppModule</title>
<path fill="none" stroke="black" d="M4919,-84.84C4919,-106.46 4919,-139.8 4919,-139.8 4919,-139.8 3030.87,-139.8 3030.87,-139.8"/>
<polygon fill="black" stroke="black" points="3030.87,-136.3 3020.87,-139.8 3030.87,-143.3 3030.87,-136.3"/>
</g>
<!-- CommonService -->
<g id="node30" class="node">
<title>CommonService</title>
<ellipse fill="#fdb462" stroke="black" cx="4770" cy="-66.8" rx="75.89" ry="18"/>
<text text-anchor="middle" x="4770" y="-62.6" font-family="Times,serif" font-size="14.00">CommonService</text>
</g>
<!-- CommonService&#45;&gt;AppModule -->
<g id="edge29" class="edge">
<title>CommonService&#45;&gt;AppModule</title>
<path fill="none" stroke="black" d="M4770,-85.08C4770,-106.12 4770,-137.8 4770,-137.8 4770,-137.8 3031.07,-137.8 3031.07,-137.8"/>
<polygon fill="black" stroke="black" points="3031.07,-134.3 3021.07,-137.8 3031.07,-141.3 3031.07,-134.3"/>
</g>
</g>
</svg>
