<?xml version="1.0" encoding="UTF-8" standalone="no"?>
<!DOCTYPE svg PUBLIC "-//W3C//DTD SVG 1.1//EN"
 "http://www.w3.org/Graphics/SVG/1.1/DTD/svg11.dtd">
<!-- Generated by graphviz version 5.0.0 (20220707.1540)
 -->
<!-- Title: dependencies Pages: 1 -->
<svg width="6046pt" height="247pt"
 viewBox="0.00 0.00 6046.00 246.80" xmlns="http://www.w3.org/2000/svg" xmlns:xlink="http://www.w3.org/1999/xlink">
<g id="graph0" class="graph" transform="scale(1 1) rotate(0) translate(4 242.8)">
<title>dependencies</title>
<polygon fill="white" stroke="transparent" points="-4,4 -4,-242.8 6042,-242.8 6042,4 -4,4"/>
<text text-anchor="middle" x="3019" y="-8.2" font-family="sans-serif" font-size="14.00">dependencies</text>
<g id="clust1" class="cluster">
<title>cluster_AppModule</title>
<polygon fill="none" stroke="black" stroke-dasharray="1,5" points="8,-32.8 8,-230.8 6030,-230.8 6030,-32.8 8,-32.8"/>
</g>
<g id="clust2" class="cluster">
<title>cluster_AppModule_declarations</title>
<polygon fill="none" stroke="black" points="597,-40.8 597,-92.8 6022,-92.8 6022,-40.8 597,-40.8"/>
</g>
<g id="clust34" class="cluster">
<title>cluster_AppModule_providers</title>
<polygon fill="none" stroke="black" points="421,-40.8 421,-92.8 589,-92.8 589,-40.8 421,-40.8"/>
</g>
<g id="clust31" class="cluster">
<title>cluster_AppModule_imports</title>
<polygon fill="none" stroke="black" points="16,-40.8 16,-92.8 413,-92.8 413,-40.8 16,-40.8"/>
</g>
<g id="clust33" class="cluster">
<title>cluster_AppModule_bootstrap</title>
<polygon fill="none" stroke="black" points="3145,-170.8 3145,-222.8 3269,-222.8 3269,-170.8 3145,-170.8"/>
</g>
<!-- AnnotationEditorComponent -->
<g id="node1" class="node">
<title>AnnotationEditorComponent</title>
<polygon fill="#ffffb3" stroke="black" points="6013.82,-84.8 5834.18,-84.8 5834.18,-48.8 6013.82,-48.8 6013.82,-84.8"/>
<text text-anchor="middle" x="5924" y="-62.6" font-family="Times,serif" font-size="14.00">AnnotationEditorComponent</text>
</g>
<!-- AppModule -->
<g id="node29" class="node">
<title>AppModule</title>
<polygon fill="#8dd3c7" stroke="black" points="3248.66,-149.8 3245.66,-153.8 3224.66,-153.8 3221.66,-149.8 3165.34,-149.8 3165.34,-113.8 3248.66,-113.8 3248.66,-149.8"/>
<text text-anchor="middle" x="3207" y="-127.6" font-family="Times,serif" font-size="14.00">AppModule</text>
</g>
<!-- AnnotationEditorComponent&#45;&gt;AppModule -->
<g id="edge1" class="edge">
<title>AnnotationEditorComponent&#45;&gt;AppModule</title>
<path fill="none" stroke="black" d="M5924,-85.18C5924,-109.08 5924,-147.8 5924,-147.8 5924,-147.8 3258.86,-147.8 3258.86,-147.8"/>
<polygon fill="black" stroke="black" points="3258.86,-144.3 3248.86,-147.8 3258.86,-151.3 3258.86,-144.3"/>
</g>
<!-- AppComponent -->
<g id="node2" class="node">
<title>AppComponent</title>
<polygon fill="#ffffb3" stroke="black" points="5816.94,-84.8 5711.06,-84.8 5711.06,-48.8 5816.94,-48.8 5816.94,-84.8"/>
<text text-anchor="middle" x="5764" y="-62.6" font-family="Times,serif" font-size="14.00">AppComponent</text>
</g>
<!-- AppComponent&#45;&gt;AppModule -->
<g id="edge2" class="edge">
<title>AppComponent&#45;&gt;AppModule</title>
<path fill="none" stroke="black" d="M5764,-85.12C5764,-108.46 5764,-145.8 5764,-145.8 5764,-145.8 3258.72,-145.8 3258.72,-145.8"/>
<polygon fill="black" stroke="black" points="3258.72,-142.3 3248.72,-145.8 3258.72,-149.3 3258.72,-142.3"/>
</g>
<!-- FormEditorComponent -->
<g id="node3" class="node">
<title>FormEditorComponent</title>
<polygon fill="#ffffb3" stroke="black" points="5693.16,-84.8 5546.84,-84.8 5546.84,-48.8 5693.16,-48.8 5693.16,-84.8"/>
<text text-anchor="middle" x="5620" y="-62.6" font-family="Times,serif" font-size="14.00">FormEditorComponent</text>
</g>
<!-- FormEditorComponent&#45;&gt;AppModule -->
<g id="edge3" class="edge">
<title>FormEditorComponent&#45;&gt;AppModule</title>
<path fill="none" stroke="black" d="M5620,-85.05C5620,-107.82 5620,-143.8 5620,-143.8 5620,-143.8 3258.88,-143.8 3258.88,-143.8"/>
<polygon fill="black" stroke="black" points="3258.88,-140.3 3248.88,-143.8 3258.88,-147.3 3258.88,-140.3"/>
</g>
<!-- LayersListComponent -->
<g id="node4" class="node">
<title>LayersListComponent</title>
<polygon fill="#ffffb3" stroke="black" points="5528.7,-84.8 5387.3,-84.8 5387.3,-48.8 5528.7,-48.8 5528.7,-84.8"/>
<text text-anchor="middle" x="5458" y="-62.6" font-family="Times,serif" font-size="14.00">LayersListComponent</text>
</g>
<!-- LayersListComponent&#45;&gt;AppModule -->
<g id="edge4" class="edge">
<title>LayersListComponent&#45;&gt;AppModule</title>
<path fill="none" stroke="black" d="M5458,-85.09C5458,-107.01 5458,-140.8 5458,-140.8 5458,-140.8 3258.97,-140.8 3258.97,-140.8"/>
<polygon fill="black" stroke="black" points="3258.97,-137.3 3248.97,-140.8 3258.97,-144.3 3258.97,-137.3"/>
</g>
<!-- LayersViewComponent -->
<g id="node5" class="node">
<title>LayersViewComponent</title>
<polygon fill="#ffffb3" stroke="black" points="5369.75,-84.8 5220.25,-84.8 5220.25,-48.8 5369.75,-48.8 5369.75,-84.8"/>
<text text-anchor="middle" x="5295" y="-62.6" font-family="Times,serif" font-size="14.00">LayersViewComponent</text>
</g>
<!-- LayersViewComponent&#45;&gt;AppModule -->
<g id="edge5" class="edge">
<title>LayersViewComponent&#45;&gt;AppModule</title>
<path fill="none" stroke="black" d="M5295,-84.97C5295,-106.3 5295,-138.8 5295,-138.8 5295,-138.8 3258.71,-138.8 3258.71,-138.8"/>
<polygon fill="black" stroke="black" points="3258.71,-135.3 3248.71,-138.8 3258.71,-142.3 3258.71,-135.3"/>
</g>
<!-- LexicalEntryEditorComponent -->
<g id="node6" class="node">
<title>LexicalEntryEditorComponent</title>
<polygon fill="#ffffb3" stroke="black" points="5201.9,-84.8 5012.1,-84.8 5012.1,-48.8 5201.9,-48.8 5201.9,-84.8"/>
<text text-anchor="middle" x="5107" y="-62.6" font-family="Times,serif" font-size="14.00">LexicalEntryEditorComponent</text>
</g>
<!-- LexicalEntryEditorComponent&#45;&gt;AppModule -->
<g id="edge6" class="edge">
<title>LexicalEntryEditorComponent&#45;&gt;AppModule</title>
<path fill="none" stroke="black" d="M5107,-84.83C5107,-105.57 5107,-136.8 5107,-136.8 5107,-136.8 3258.9,-136.8 3258.9,-136.8"/>
<polygon fill="black" stroke="black" points="3258.9,-133.3 3248.9,-136.8 3258.9,-140.3 3258.9,-133.3"/>
</g>
<!-- MainLayoutComponent -->
<g id="node7" class="node">
<title>MainLayoutComponent</title>
<polygon fill="#ffffb3" stroke="black" points="4994.04,-84.8 4843.96,-84.8 4843.96,-48.8 4994.04,-48.8 4994.04,-84.8"/>
<text text-anchor="middle" x="4919" y="-62.6" font-family="Times,serif" font-size="14.00">MainLayoutComponent</text>
</g>
<!-- MainLayoutComponent&#45;&gt;AppModule -->
<g id="edge7" class="edge">
<title>MainLayoutComponent&#45;&gt;AppModule</title>
<path fill="none" stroke="black" d="M4919,-85.02C4919,-105.17 4919,-134.8 4919,-134.8 4919,-134.8 3258.89,-134.8 3258.89,-134.8"/>
<polygon fill="black" stroke="black" points="3258.89,-131.3 3248.89,-134.8 3258.89,-138.3 3258.89,-131.3"/>
</g>
<!-- NotDuplicateNameDirective -->
<g id="node8" class="node">
<title>NotDuplicateNameDirective</title>
<polygon fill="#ffffb3" stroke="black" points="4825.43,-84.8 4648.57,-84.8 4648.57,-48.8 4825.43,-48.8 4825.43,-84.8"/>
<text text-anchor="middle" x="4737" y="-62.6" font-family="Times,serif" font-size="14.00">NotDuplicateNameDirective</text>
</g>
<!-- NotDuplicateNameDirective&#45;&gt;AppModule -->
<g id="edge8" class="edge">
<title>NotDuplicateNameDirective&#45;&gt;AppModule</title>
<path fill="none" stroke="black" d="M4737,-84.91C4737,-104.14 4737,-131.8 4737,-131.8 4737,-131.8 3258.72,-131.8 3258.72,-131.8"/>
<polygon fill="black" stroke="black" points="3258.72,-128.3 3248.72,-131.8 3258.72,-135.3 3258.72,-128.3"/>
</g>
<!-- PopupDeleteItemComponent -->
<g id="node9" class="node">
<title>PopupDeleteItemComponent</title>
<polygon fill="#ffffb3" stroke="black" points="4630.8,-84.8 4451.2,-84.8 4451.2,-48.8 4630.8,-48.8 4630.8,-84.8"/>
<text text-anchor="middle" x="4541" y="-62.6" font-family="Times,serif" font-size="14.00">PopupDeleteItemComponent</text>
</g>
<!-- PopupDeleteItemComponent&#45;&gt;AppModule -->
<g id="edge9" class="edge">
<title>PopupDeleteItemComponent&#45;&gt;AppModule</title>
<path fill="none" stroke="black" d="M4541,-85.02C4541,-103.63 4541,-129.8 4541,-129.8 4541,-129.8 3258.76,-129.8 3258.76,-129.8"/>
<polygon fill="black" stroke="black" points="3258.76,-126.3 3248.76,-129.8 3258.76,-133.3 3258.76,-126.3"/>
</g>
<!-- RelationEditorComponent -->
<g id="node10" class="node">
<title>RelationEditorComponent</title>
<polygon fill="#ffffb3" stroke="black" points="4432.76,-84.8 4269.24,-84.8 4269.24,-48.8 4432.76,-48.8 4432.76,-84.8"/>
<text text-anchor="middle" x="4351" y="-62.6" font-family="Times,serif" font-size="14.00">RelationEditorComponent</text>
</g>
<!-- RelationEditorComponent&#45;&gt;AppModule -->
<g id="edge10" class="edge">
<title>RelationEditorComponent&#45;&gt;AppModule</title>
<path fill="none" stroke="black" d="M4351,-85.1C4351,-103.07 4351,-127.8 4351,-127.8 4351,-127.8 3258.73,-127.8 3258.73,-127.8"/>
<polygon fill="black" stroke="black" points="3258.73,-124.3 3248.73,-127.8 3258.73,-131.3 3258.73,-124.3"/>
</g>
<!-- SenseEditorComponent -->
<g id="node11" class="node">
<title>SenseEditorComponent</title>
<polygon fill="#ffffb3" stroke="black" points="4251.49,-84.8 4102.51,-84.8 4102.51,-48.8 4251.49,-48.8 4251.49,-84.8"/>
<text text-anchor="middle" x="4177" y="-62.6" font-family="Times,serif" font-size="14.00">SenseEditorComponent</text>
</g>
<!-- SenseEditorComponent&#45;&gt;AppModule -->
<g id="edge11" class="edge">
<title>SenseEditorComponent&#45;&gt;AppModule</title>
<path fill="none" stroke="black" d="M4177,-84.82C4177,-102.17 4177,-125.8 4177,-125.8 4177,-125.8 3258.68,-125.8 3258.68,-125.8"/>
<polygon fill="black" stroke="black" points="3258.68,-122.3 3248.68,-125.8 3258.68,-129.3 3258.68,-122.3"/>
</g>
<!-- TagsetCreateEditComponent -->
<g id="node12" class="node">
<title>TagsetCreateEditComponent</title>
<polygon fill="#ffffb3" stroke="black" points="4084.01,-84.8 3905.99,-84.8 3905.99,-48.8 4084.01,-48.8 4084.01,-84.8"/>
<text text-anchor="middle" x="3995" y="-62.6" font-family="Times,serif" font-size="14.00">TagsetCreateEditComponent</text>
</g>
<!-- TagsetCreateEditComponent&#45;&gt;AppModule -->
<g id="edge12" class="edge">
<title>TagsetCreateEditComponent&#45;&gt;AppModule</title>
<path fill="none" stroke="black" d="M3995,-84.83C3995,-101.2 3995,-122.8 3995,-122.8 3995,-122.8 3258.81,-122.8 3258.81,-122.8"/>
<polygon fill="black" stroke="black" points="3258.81,-119.3 3248.81,-122.8 3258.81,-126.3 3258.81,-119.3"/>
</g>
<!-- TagsetValueNotDuplicateNameDirective -->
<g id="node13" class="node">
<title>TagsetValueNotDuplicateNameDirective</title>
<polygon fill="#ffffb3" stroke="black" points="3887.68,-84.8 3640.32,-84.8 3640.32,-48.8 3887.68,-48.8 3887.68,-84.8"/>
<text text-anchor="middle" x="3764" y="-62.6" font-family="Times,serif" font-size="14.00">TagsetValueNotDuplicateNameDirective</text>
</g>
<!-- TagsetValueNotDuplicateNameDirective&#45;&gt;AppModule -->
<g id="edge13" class="edge">
<title>TagsetValueNotDuplicateNameDirective&#45;&gt;AppModule</title>
<path fill="none" stroke="black" d="M3764,-85.08C3764,-100.75 3764,-120.8 3764,-120.8 3764,-120.8 3258.87,-120.8 3258.87,-120.8"/>
<polygon fill="black" stroke="black" points="3258.87,-117.3 3248.87,-120.8 3258.87,-124.3 3258.87,-117.3"/>
</g>
<!-- TagsetsListComponent -->
<g id="node14" class="node">
<title>TagsetsListComponent</title>
<polygon fill="#ffffb3" stroke="black" points="3621.88,-84.8 3476.12,-84.8 3476.12,-48.8 3621.88,-48.8 3621.88,-84.8"/>
<text text-anchor="middle" x="3549" y="-62.6" font-family="Times,serif" font-size="14.00">TagsetsListComponent</text>
</g>
<!-- TagsetsListComponent&#45;&gt;AppModule -->
<g id="edge14" class="edge">
<title>TagsetsListComponent&#45;&gt;AppModule</title>
<path fill="none" stroke="black" d="M3549,-84.99C3549,-99.98 3549,-118.8 3549,-118.8 3549,-118.8 3258.94,-118.8 3258.94,-118.8"/>
<polygon fill="black" stroke="black" points="3258.94,-115.3 3248.94,-118.8 3258.94,-122.3 3258.94,-115.3"/>
</g>
<!-- UriValidator -->
<g id="node15" class="node">
<title>UriValidator</title>
<polygon fill="#ffffb3" stroke="black" points="3457.53,-84.8 3370.47,-84.8 3370.47,-48.8 3457.53,-48.8 3457.53,-84.8"/>
<text text-anchor="middle" x="3414" y="-62.6" font-family="Times,serif" font-size="14.00">UriValidator</text>
</g>
<!-- UriValidator&#45;&gt;AppModule -->
<g id="edge15" class="edge">
<title>UriValidator&#45;&gt;AppModule</title>
<path fill="none" stroke="black" d="M3414,-84.85C3414,-99.17 3414,-116.8 3414,-116.8 3414,-116.8 3258.89,-116.8 3258.89,-116.8"/>
<polygon fill="black" stroke="black" points="3258.89,-113.3 3248.89,-116.8 3258.89,-120.3 3258.89,-113.3"/>
</g>
<!-- UserFormComponent -->
<g id="node16" class="node">
<title>UserFormComponent</title>
<polygon fill="#ffffb3" stroke="black" points="3352.1,-84.8 3213.9,-84.8 3213.9,-48.8 3352.1,-48.8 3352.1,-84.8"/>
<text text-anchor="middle" x="3283" y="-62.6" font-family="Times,serif" font-size="14.00">UserFormComponent</text>
</g>
<!-- UserFormComponent&#45;&gt;AppModule -->
<g id="edge16" class="edge">
<title>UserFormComponent&#45;&gt;AppModule</title>
<path fill="none" stroke="black" d="M3231.39,-84.91C3231.39,-84.91 3231.39,-103.79 3231.39,-103.79"/>
<polygon fill="black" stroke="black" points="3227.89,-103.79 3231.39,-113.79 3234.89,-103.79 3227.89,-103.79"/>
</g>
<!-- UserListComponent -->
<g id="node17" class="node">
<title>UserListComponent</title>
<polygon fill="#ffffb3" stroke="black" points="3195.55,-84.8 3066.45,-84.8 3066.45,-48.8 3195.55,-48.8 3195.55,-84.8"/>
<text text-anchor="middle" x="3131" y="-62.6" font-family="Times,serif" font-size="14.00">UserListComponent</text>
</g>
<!-- UserListComponent&#45;&gt;AppModule -->
<g id="edge17" class="edge">
<title>UserListComponent&#45;&gt;AppModule</title>
<path fill="none" stroke="black" d="M3180.47,-84.91C3180.47,-84.91 3180.47,-103.79 3180.47,-103.79"/>
<polygon fill="black" stroke="black" points="3176.97,-103.79 3180.47,-113.79 3183.97,-103.79 3176.97,-103.79"/>
</g>
<!-- WhitespacesValidatorDirective -->
<g id="node18" class="node">
<title>WhitespacesValidatorDirective</title>
<polygon fill="#ffffb3" stroke="black" points="3047.7,-84.8 2856.3,-84.8 2856.3,-48.8 3047.7,-48.8 3047.7,-84.8"/>
<text text-anchor="middle" x="2952" y="-62.6" font-family="Times,serif" font-size="14.00">WhitespacesValidatorDirective</text>
</g>
<!-- WhitespacesValidatorDirective&#45;&gt;AppModule -->
<g id="edge18" class="edge">
<title>WhitespacesValidatorDirective&#45;&gt;AppModule</title>
<path fill="none" stroke="black" d="M2952,-84.85C2952,-99.17 2952,-116.8 2952,-116.8 2952,-116.8 3155.18,-116.8 3155.18,-116.8"/>
<polygon fill="black" stroke="black" points="3155.18,-120.3 3165.18,-116.8 3155.18,-113.3 3155.18,-120.3"/>
</g>
<!-- WorkspaceComponent -->
<g id="node19" class="node">
<title>WorkspaceComponent</title>
<polygon fill="#ffffb3" stroke="black" points="2838.3,-84.8 2693.7,-84.8 2693.7,-48.8 2838.3,-48.8 2838.3,-84.8"/>
<text text-anchor="middle" x="2766" y="-62.6" font-family="Times,serif" font-size="14.00">WorkspaceComponent</text>
</g>
<!-- WorkspaceComponent&#45;&gt;AppModule -->
<g id="edge19" class="edge">
<title>WorkspaceComponent&#45;&gt;AppModule</title>
<path fill="none" stroke="black" d="M2766,-84.99C2766,-99.98 2766,-118.8 2766,-118.8 2766,-118.8 3155.11,-118.8 3155.11,-118.8"/>
<polygon fill="black" stroke="black" points="3155.11,-122.3 3165.11,-118.8 3155.11,-115.3 3155.11,-122.3"/>
</g>
<!-- WorkspaceCorpusExplorerComponent -->
<g id="node20" class="node">
<title>WorkspaceCorpusExplorerComponent</title>
<polygon fill="#ffffb3" stroke="black" points="2675.72,-84.8 2442.28,-84.8 2442.28,-48.8 2675.72,-48.8 2675.72,-84.8"/>
<text text-anchor="middle" x="2559" y="-62.6" font-family="Times,serif" font-size="14.00">WorkspaceCorpusExplorerComponent</text>
</g>
<!-- WorkspaceCorpusExplorerComponent&#45;&gt;AppModule -->
<g id="edge20" class="edge">
<title>WorkspaceCorpusExplorerComponent&#45;&gt;AppModule</title>
<path fill="none" stroke="black" d="M2559,-85.08C2559,-100.75 2559,-120.8 2559,-120.8 2559,-120.8 3154.98,-120.8 3154.98,-120.8"/>
<polygon fill="black" stroke="black" points="3154.98,-124.3 3164.98,-120.8 3154.98,-117.3 3154.98,-124.3"/>
</g>
<!-- WorkspaceLayersVisibilityManagerComponent -->
<g id="node21" class="node">
<title>WorkspaceLayersVisibilityManagerComponent</title>
<polygon fill="#ffffb3" stroke="black" points="2424.54,-84.8 2139.46,-84.8 2139.46,-48.8 2424.54,-48.8 2424.54,-84.8"/>
<text text-anchor="middle" x="2282" y="-62.6" font-family="Times,serif" font-size="14.00">WorkspaceLayersVisibilityManagerComponent</text>
</g>
<!-- WorkspaceLayersVisibilityManagerComponent&#45;&gt;AppModule -->
<g id="edge21" class="edge">
<title>WorkspaceLayersVisibilityManagerComponent&#45;&gt;AppModule</title>
<path fill="none" stroke="black" d="M2282,-84.83C2282,-101.2 2282,-122.8 2282,-122.8 2282,-122.8 3155.15,-122.8 3155.15,-122.8"/>
<polygon fill="black" stroke="black" points="3155.15,-126.3 3165.15,-122.8 3155.15,-119.3 3155.15,-126.3"/>
</g>
<!-- WorkspaceLayoutComponent -->
<g id="node22" class="node">
<title>WorkspaceLayoutComponent</title>
<polygon fill="#ffffb3" stroke="black" points="2121.95,-84.8 1938.05,-84.8 1938.05,-48.8 2121.95,-48.8 2121.95,-84.8"/>
<text text-anchor="middle" x="2030" y="-62.6" font-family="Times,serif" font-size="14.00">WorkspaceLayoutComponent</text>
</g>
<!-- WorkspaceLayoutComponent&#45;&gt;AppModule -->
<g id="edge22" class="edge">
<title>WorkspaceLayoutComponent&#45;&gt;AppModule</title>
<path fill="none" stroke="black" d="M2030,-84.82C2030,-102.17 2030,-125.8 2030,-125.8 2030,-125.8 3155.11,-125.8 3155.11,-125.8"/>
<polygon fill="black" stroke="black" points="3155.11,-129.3 3165.11,-125.8 3155.11,-122.3 3155.11,-129.3"/>
</g>
<!-- WorkspaceLexiconEditTileComponent -->
<g id="node23" class="node">
<title>WorkspaceLexiconEditTileComponent</title>
<polygon fill="#ffffb3" stroke="black" points="1920.04,-84.8 1683.96,-84.8 1683.96,-48.8 1920.04,-48.8 1920.04,-84.8"/>
<text text-anchor="middle" x="1802" y="-62.6" font-family="Times,serif" font-size="14.00">WorkspaceLexiconEditTileComponent</text>
</g>
<!-- WorkspaceLexiconEditTileComponent&#45;&gt;AppModule -->
<g id="edge23" class="edge">
<title>WorkspaceLexiconEditTileComponent&#45;&gt;AppModule</title>
<path fill="none" stroke="black" d="M1802,-85.1C1802,-103.07 1802,-127.8 1802,-127.8 1802,-127.8 3155.33,-127.8 3155.33,-127.8"/>
<polygon fill="black" stroke="black" points="3155.33,-131.3 3165.33,-127.8 3155.33,-124.3 3155.33,-131.3"/>
</g>
<!-- WorkspaceLexiconTileComponent -->
<g id="node24" class="node">
<title>WorkspaceLexiconTileComponent</title>
<polygon fill="#ffffb3" stroke="black" points="1666.21,-84.8 1453.79,-84.8 1453.79,-48.8 1666.21,-48.8 1666.21,-84.8"/>
<text text-anchor="middle" x="1560" y="-62.6" font-family="Times,serif" font-size="14.00">WorkspaceLexiconTileComponent</text>
</g>
<!-- WorkspaceLexiconTileComponent&#45;&gt;AppModule -->
<g id="edge24" class="edge">
<title>WorkspaceLexiconTileComponent&#45;&gt;AppModule</title>
<path fill="none" stroke="black" d="M1560,-85.02C1560,-103.63 1560,-129.8 1560,-129.8 1560,-129.8 3155.05,-129.8 3155.05,-129.8"/>
<polygon fill="black" stroke="black" points="3155.05,-133.3 3165.05,-129.8 3155.05,-126.3 3155.05,-133.3"/>
</g>
<!-- WorkspaceListComponent -->
<g id="node25" class="node">
<title>WorkspaceListComponent</title>
<polygon fill="#ffffb3" stroke="black" points="1436.08,-84.8 1269.92,-84.8 1269.92,-48.8 1436.08,-48.8 1436.08,-84.8"/>
<text text-anchor="middle" x="1353" y="-62.6" font-family="Times,serif" font-size="14.00">WorkspaceListComponent</text>
</g>
<!-- WorkspaceListComponent&#45;&gt;AppModule -->
<g id="edge25" class="edge">
<title>WorkspaceListComponent&#45;&gt;AppModule</title>
<path fill="none" stroke="black" d="M1353,-84.91C1353,-104.14 1353,-131.8 1353,-131.8 1353,-131.8 3155.24,-131.8 3155.24,-131.8"/>
<polygon fill="black" stroke="black" points="3155.24,-135.3 3165.24,-131.8 3155.24,-128.3 3155.24,-135.3"/>
</g>
<!-- WorkspaceMenuComponent -->
<g id="node26" class="node">
<title>WorkspaceMenuComponent</title>
<polygon fill="#ffffb3" stroke="black" points="1251.46,-84.8 1074.54,-84.8 1074.54,-48.8 1251.46,-48.8 1251.46,-84.8"/>
<text text-anchor="middle" x="1163" y="-62.6" font-family="Times,serif" font-size="14.00">WorkspaceMenuComponent</text>
</g>
<!-- WorkspaceMenuComponent&#45;&gt;AppModule -->
<g id="edge26" class="edge">
<title>WorkspaceMenuComponent&#45;&gt;AppModule</title>
<path fill="none" stroke="black" d="M1163,-85.02C1163,-105.17 1163,-134.8 1163,-134.8 1163,-134.8 3155.24,-134.8 3155.24,-134.8"/>
<polygon fill="black" stroke="black" points="3155.24,-138.3 3165.24,-134.8 3155.24,-131.3 3155.24,-138.3"/>
</g>
<!-- WorkspaceTextSelectorComponent -->
<g id="node27" class="node">
<title>WorkspaceTextSelectorComponent</title>
<polygon fill="#ffffb3" stroke="black" points="1056.82,-84.8 841.18,-84.8 841.18,-48.8 1056.82,-48.8 1056.82,-84.8"/>
<text text-anchor="middle" x="949" y="-62.6" font-family="Times,serif" font-size="14.00">WorkspaceTextSelectorComponent</text>
</g>
<!-- WorkspaceTextSelectorComponent&#45;&gt;AppModule -->
<g id="edge27" class="edge">
<title>WorkspaceTextSelectorComponent&#45;&gt;AppModule</title>
<path fill="none" stroke="black" d="M949,-84.83C949,-105.57 949,-136.8 949,-136.8 949,-136.8 3154.9,-136.8 3154.9,-136.8"/>
<polygon fill="black" stroke="black" points="3154.9,-140.3 3164.9,-136.8 3154.9,-133.3 3154.9,-140.3"/>
</g>
<!-- WorkspaceTextWindowComponent -->
<g id="node28" class="node">
<title>WorkspaceTextWindowComponent</title>
<polygon fill="#ffffb3" stroke="black" points="823.17,-84.8 604.83,-84.8 604.83,-48.8 823.17,-48.8 823.17,-84.8"/>
<text text-anchor="middle" x="714" y="-62.6" font-family="Times,serif" font-size="14.00">WorkspaceTextWindowComponent</text>
</g>
<!-- WorkspaceTextWindowComponent&#45;&gt;AppModule -->
<g id="edge28" class="edge">
<title>WorkspaceTextWindowComponent&#45;&gt;AppModule</title>
<path fill="none" stroke="black" d="M714,-84.97C714,-106.3 714,-138.8 714,-138.8 714,-138.8 3155.29,-138.8 3155.29,-138.8"/>
<polygon fill="black" stroke="black" points="3155.29,-142.3 3165.29,-138.8 3155.29,-135.3 3155.29,-142.3"/>
</g>
<!-- AppComponent  -->
<g id="node33" class="node">
<title>AppComponent </title>
<polygon fill="#80b1d3" stroke="black" points="3261.44,-214.8 3152.56,-214.8 3152.56,-178.8 3261.44,-178.8 3261.44,-214.8"/>
<text text-anchor="middle" x="3207" y="-192.6" font-family="Times,serif" font-size="14.00">AppComponent </text>
</g>
<!-- AppModule&#45;&gt;AppComponent  -->
<g id="edge32" class="edge">
<title>AppModule&#45;&gt;AppComponent </title>
<path fill="none" stroke="black" stroke-dasharray="1,5" d="M3207,-149.91C3207,-149.91 3207,-168.79 3207,-168.79"/>
<polygon fill="black" stroke="black" points="3203.5,-168.79 3207,-178.79 3210.5,-168.79 3203.5,-168.79"/>
</g>
<!-- AppRoutingModule -->
<g id="node30" class="node">
<title>AppRoutingModule</title>
<polygon fill="#8dd3c7" stroke="black" points="405.28,-84.8 402.28,-88.8 381.28,-88.8 378.28,-84.8 276.72,-84.8 276.72,-48.8 405.28,-48.8 405.28,-84.8"/>
<text text-anchor="middle" x="341" y="-62.6" font-family="Times,serif" font-size="14.00">AppRoutingModule</text>
</g>
<!-- AppRoutingModule&#45;&gt;AppModule -->
<g id="edge29" class="edge">
<title>AppRoutingModule&#45;&gt;AppModule</title>
<path fill="none" stroke="black" d="M341,-85.05C341,-107.82 341,-143.8 341,-143.8 341,-143.8 3155.1,-143.8 3155.1,-143.8"/>
<polygon fill="black" stroke="black" points="3155.1,-147.3 3165.1,-143.8 3155.1,-140.3 3155.1,-147.3"/>
</g>
<!-- AuthConfigModule -->
<g id="node31" class="node">
<title>AuthConfigModule</title>
<polygon fill="#8dd3c7" stroke="black" points="258.44,-84.8 255.44,-88.8 234.44,-88.8 231.44,-84.8 131.56,-84.8 131.56,-48.8 258.44,-48.8 258.44,-84.8"/>
<text text-anchor="middle" x="195" y="-62.6" font-family="Times,serif" font-size="14.00">AuthConfigModule</text>
</g>
<!-- AuthConfigModule&#45;&gt;AppModule -->
<g id="edge30" class="edge">
<title>AuthConfigModule&#45;&gt;AppModule</title>
<path fill="none" stroke="black" d="M195,-85.12C195,-108.46 195,-145.8 195,-145.8 195,-145.8 3155.28,-145.8 3155.28,-145.8"/>
<polygon fill="black" stroke="black" points="3155.28,-149.3 3165.28,-145.8 3155.28,-142.3 3155.28,-149.3"/>
</g>
<!-- IconsModule -->
<g id="node32" class="node">
<title>IconsModule</title>
<polygon fill="#8dd3c7" stroke="black" points="113.88,-84.8 110.88,-88.8 89.88,-88.8 86.88,-84.8 24.12,-84.8 24.12,-48.8 113.88,-48.8 113.88,-84.8"/>
<text text-anchor="middle" x="69" y="-62.6" font-family="Times,serif" font-size="14.00">IconsModule</text>
</g>
<!-- IconsModule&#45;&gt;AppModule -->
<g id="edge31" class="edge">
<title>IconsModule&#45;&gt;AppModule</title>
<path fill="none" stroke="black" d="M69,-85.18C69,-109.08 69,-147.8 69,-147.8 69,-147.8 3155.31,-147.8 3155.31,-147.8"/>
<polygon fill="black" stroke="black" points="3155.31,-151.3 3165.31,-147.8 3155.31,-144.3 3155.31,-151.3"/>
</g>
<!-- CommonService -->
<g id="node34" class="node">
<title>CommonService</title>
<ellipse fill="#fdb462" stroke="black" cx="505" cy="-66.8" rx="75.89" ry="18"/>
<text text-anchor="middle" x="505" y="-62.6" font-family="Times,serif" font-size="14.00">CommonService</text>
</g>
<!-- CommonService&#45;&gt;AppModule -->
<g id="edge33" class="edge">
<title>CommonService&#45;&gt;AppModule</title>
<path fill="none" stroke="black" d="M505,-85.09C505,-107.01 505,-140.8 505,-140.8 505,-140.8 3155.1,-140.8 3155.1,-140.8"/>
<polygon fill="black" stroke="black" points="3155.1,-144.3 3165.1,-140.8 3155.1,-137.3 3155.1,-144.3"/>
</g>
</g>
</svg>
