<?xml version="1.0" encoding="UTF-8" standalone="no"?>
<!DOCTYPE svg PUBLIC "-//W3C//DTD SVG 1.1//EN"
 "http://www.w3.org/Graphics/SVG/1.1/DTD/svg11.dtd">
<!-- Generated by graphviz version 5.0.0 (20220707.1540)
 -->
<!-- Title: dependencies Pages: 1 -->
<svg width="8470pt" height="247pt"
 viewBox="0.00 0.00 8470.00 246.80" xmlns="http://www.w3.org/2000/svg" xmlns:xlink="http://www.w3.org/1999/xlink">
<g id="graph0" class="graph" transform="scale(1 1) rotate(0) translate(4 242.8)">
<title>dependencies</title>
<polygon fill="white" stroke="transparent" points="-4,4 -4,-242.8 8466,-242.8 8466,4 -4,4"/>
<text text-anchor="middle" x="4231" y="-8.2" font-family="sans-serif" font-size="14.00">dependencies</text>
<g id="clust1" class="cluster">
<title>cluster_AppModule</title>
<polygon fill="none" stroke="black" stroke-dasharray="1,5" points="8,-32.8 8,-230.8 8454,-230.8 8454,-32.8 8,-32.8"/>
</g>
<g id="clust43" class="cluster">
<title>cluster_AppModule_bootstrap</title>
<polygon fill="none" stroke="black" points="4223,-170.8 4223,-222.8 4347,-222.8 4347,-170.8 4223,-170.8"/>
</g>
<g id="clust41" class="cluster">
<title>cluster_AppModule_imports</title>
<polygon fill="none" stroke="black" points="8078,-40.8 8078,-92.8 8446,-92.8 8446,-40.8 8078,-40.8"/>
</g>
<g id="clust44" class="cluster">
<title>cluster_AppModule_providers</title>
<polygon fill="none" stroke="black" points="7902,-40.8 7902,-92.8 8070,-92.8 8070,-40.8 7902,-40.8"/>
</g>
<g id="clust2" class="cluster">
<title>cluster_AppModule_declarations</title>
<polygon fill="none" stroke="black" points="16,-40.8 16,-92.8 7894,-92.8 7894,-40.8 16,-40.8"/>
</g>
<!-- AppComponent -->
<g id="node1" class="node">
<title>AppComponent</title>
<polygon fill="#ffffb3" stroke="black" points="7885.94,-84.8 7780.06,-84.8 7780.06,-48.8 7885.94,-48.8 7885.94,-84.8"/>
<text text-anchor="middle" x="7833" y="-62.6" font-family="Times,serif" font-size="14.00">AppComponent</text>
</g>
<!-- AppModule -->
<g id="node39" class="node">
<title>AppModule</title>
<polygon fill="#8dd3c7" stroke="black" points="4326.66,-149.8 4323.66,-153.8 4302.66,-153.8 4299.66,-149.8 4243.34,-149.8 4243.34,-113.8 4326.66,-113.8 4326.66,-149.8"/>
<text text-anchor="middle" x="4285" y="-127.6" font-family="Times,serif" font-size="14.00">AppModule</text>
</g>
<!-- AppComponent&#45;&gt;AppModule -->
<g id="edge1" class="edge">
<title>AppComponent&#45;&gt;AppModule</title>
<path fill="none" stroke="black" d="M7833,-84.96C7833,-107.15 7833,-141.8 7833,-141.8 7833,-141.8 4336.69,-141.8 4336.69,-141.8"/>
<polygon fill="black" stroke="black" points="4336.69,-138.3 4326.69,-141.8 4336.69,-145.3 4336.69,-138.3"/>
</g>
<!-- BaseMetadataEditorComponent -->
<g id="node2" class="node">
<title>BaseMetadataEditorComponent</title>
<polygon fill="#ffffb3" stroke="black" points="7761.62,-84.8 7566.38,-84.8 7566.38,-48.8 7761.62,-48.8 7761.62,-84.8"/>
<text text-anchor="middle" x="7664" y="-62.6" font-family="Times,serif" font-size="14.00">BaseMetadataEditorComponent</text>
</g>
<!-- BaseMetadataEditorComponent&#45;&gt;AppModule -->
<g id="edge2" class="edge">
<title>BaseMetadataEditorComponent&#45;&gt;AppModule</title>
<path fill="none" stroke="black" d="M7664,-84.84C7664,-106.46 7664,-139.8 7664,-139.8 7664,-139.8 4336.81,-139.8 4336.81,-139.8"/>
<polygon fill="black" stroke="black" points="4336.81,-136.3 4326.81,-139.8 4336.81,-143.3 4336.81,-136.3"/>
</g>
<!-- DirectRelationsComponent -->
<g id="node3" class="node">
<title>DirectRelationsComponent</title>
<polygon fill="#ffffb3" stroke="black" points="7548.69,-84.8 7379.31,-84.8 7379.31,-48.8 7548.69,-48.8 7548.69,-84.8"/>
<text text-anchor="middle" x="7464" y="-62.6" font-family="Times,serif" font-size="14.00">DirectRelationsComponent</text>
</g>
<!-- DirectRelationsComponent&#45;&gt;AppModule -->
<g id="edge3" class="edge">
<title>DirectRelationsComponent&#45;&gt;AppModule</title>
<path fill="none" stroke="black" d="M7464,-85.08C7464,-106.12 7464,-137.8 7464,-137.8 7464,-137.8 4336.94,-137.8 4336.94,-137.8"/>
<polygon fill="black" stroke="black" points="4336.94,-134.3 4326.94,-137.8 4336.94,-141.3 4336.94,-134.3"/>
</g>
<!-- FormCoreEditorComponent -->
<g id="node4" class="node">
<title>FormCoreEditorComponent</title>
<polygon fill="#ffffb3" stroke="black" points="7360.88,-84.8 7187.12,-84.8 7187.12,-48.8 7360.88,-48.8 7360.88,-84.8"/>
<text text-anchor="middle" x="7274" y="-62.6" font-family="Times,serif" font-size="14.00">FormCoreEditorComponent</text>
</g>
<!-- FormCoreEditorComponent&#45;&gt;AppModule -->
<g id="edge4" class="edge">
<title>FormCoreEditorComponent&#45;&gt;AppModule</title>
<path fill="none" stroke="black" d="M7274,-84.83C7274,-105.57 7274,-136.8 7274,-136.8 7274,-136.8 4336.68,-136.8 4336.68,-136.8"/>
<polygon fill="black" stroke="black" points="4336.68,-133.3 4326.68,-136.8 4336.68,-140.3 4336.68,-133.3"/>
</g>
<!-- FormMetadataEditorComponent -->
<g id="node5" class="node">
<title>FormMetadataEditorComponent</title>
<polygon fill="#ffffb3" stroke="black" points="7169.25,-84.8 6970.75,-84.8 6970.75,-48.8 7169.25,-48.8 7169.25,-84.8"/>
<text text-anchor="middle" x="7070" y="-62.6" font-family="Times,serif" font-size="14.00">FormMetadataEditorComponent</text>
</g>
<!-- FormMetadataEditorComponent&#45;&gt;AppModule -->
<g id="edge5" class="edge">
<title>FormMetadataEditorComponent&#45;&gt;AppModule</title>
<path fill="none" stroke="black" d="M7070,-85.02C7070,-105.17 7070,-134.8 7070,-134.8 7070,-134.8 4336.8,-134.8 4336.8,-134.8"/>
<polygon fill="black" stroke="black" points="4336.8,-131.3 4326.8,-134.8 4336.8,-138.3 4336.8,-131.3"/>
</g>
<!-- IndirectRelPropertyComponent -->
<g id="node6" class="node">
<title>IndirectRelPropertyComponent</title>
<polygon fill="#ffffb3" stroke="black" points="6952.02,-84.8 6759.98,-84.8 6759.98,-48.8 6952.02,-48.8 6952.02,-84.8"/>
<text text-anchor="middle" x="6856" y="-62.6" font-family="Times,serif" font-size="14.00">IndirectRelPropertyComponent</text>
</g>
<!-- IndirectRelPropertyComponent&#45;&gt;AppModule -->
<g id="edge6" class="edge">
<title>IndirectRelPropertyComponent&#45;&gt;AppModule</title>
<path fill="none" stroke="black" d="M6856,-84.83C6856,-104.38 6856,-132.8 6856,-132.8 6856,-132.8 4336.69,-132.8 4336.69,-132.8"/>
<polygon fill="black" stroke="black" points="4336.69,-129.3 4326.69,-132.8 4336.69,-136.3 4336.69,-129.3"/>
</g>
<!-- IndirectRelationsComponent -->
<g id="node7" class="node">
<title>IndirectRelationsComponent</title>
<polygon fill="#ffffb3" stroke="black" points="6741.75,-84.8 6564.25,-84.8 6564.25,-48.8 6741.75,-48.8 6741.75,-84.8"/>
<text text-anchor="middle" x="6653" y="-62.6" font-family="Times,serif" font-size="14.00">IndirectRelationsComponent</text>
</g>
<!-- IndirectRelationsComponent&#45;&gt;AppModule -->
<g id="edge7" class="edge">
<title>IndirectRelationsComponent&#45;&gt;AppModule</title>
<path fill="none" stroke="black" d="M6653,-84.91C6653,-104.14 6653,-131.8 6653,-131.8 6653,-131.8 4336.85,-131.8 4336.85,-131.8"/>
<polygon fill="black" stroke="black" points="4336.85,-128.3 4326.85,-131.8 4336.85,-135.3 4336.85,-128.3"/>
</g>
<!-- LexEntityIndirectRelPropertyComponent -->
<g id="node8" class="node">
<title>LexEntityIndirectRelPropertyComponent</title>
<polygon fill="#ffffb3" stroke="black" points="6546,-84.8 6298,-84.8 6298,-48.8 6546,-48.8 6546,-84.8"/>
<text text-anchor="middle" x="6422" y="-62.6" font-family="Times,serif" font-size="14.00">LexEntityIndirectRelPropertyComponent</text>
</g>
<!-- LexEntityIndirectRelPropertyComponent&#45;&gt;AppModule -->
<g id="edge8" class="edge">
<title>LexEntityIndirectRelPropertyComponent&#45;&gt;AppModule</title>
<path fill="none" stroke="black" d="M6422,-85.02C6422,-103.63 6422,-129.8 6422,-129.8 6422,-129.8 4336.73,-129.8 4336.73,-129.8"/>
<polygon fill="black" stroke="black" points="4336.73,-126.3 4326.73,-129.8 4336.73,-133.3 4336.73,-126.3"/>
</g>
<!-- LexEntitySemanticRelComponent -->
<g id="node9" class="node">
<title>LexEntitySemanticRelComponent</title>
<polygon fill="#ffffb3" stroke="black" points="6279.36,-84.8 6070.64,-84.8 6070.64,-48.8 6279.36,-48.8 6279.36,-84.8"/>
<text text-anchor="middle" x="6175" y="-62.6" font-family="Times,serif" font-size="14.00">LexEntitySemanticRelComponent</text>
</g>
<!-- LexEntitySemanticRelComponent&#45;&gt;AppModule -->
<g id="edge9" class="edge">
<title>LexEntitySemanticRelComponent&#45;&gt;AppModule</title>
<path fill="none" stroke="black" d="M6175,-85.1C6175,-103.07 6175,-127.8 6175,-127.8 6175,-127.8 4336.68,-127.8 4336.68,-127.8"/>
<polygon fill="black" stroke="black" points="4336.68,-124.3 4326.68,-127.8 4336.68,-131.3 4336.68,-124.3"/>
</g>
<!-- LexEntitySemanticRelIndirectComponent -->
<g id="node10" class="node">
<title>LexEntitySemanticRelIndirectComponent</title>
<polygon fill="#ffffb3" stroke="black" points="6052.39,-84.8 5799.61,-84.8 5799.61,-48.8 6052.39,-48.8 6052.39,-84.8"/>
<text text-anchor="middle" x="5926" y="-62.6" font-family="Times,serif" font-size="14.00">LexEntitySemanticRelIndirectComponent</text>
</g>
<!-- LexEntitySemanticRelIndirectComponent&#45;&gt;AppModule -->
<g id="edge10" class="edge">
<title>LexEntitySemanticRelIndirectComponent&#45;&gt;AppModule</title>
<path fill="none" stroke="black" d="M5926,-84.82C5926,-102.17 5926,-125.8 5926,-125.8 5926,-125.8 4336.8,-125.8 4336.8,-125.8"/>
<polygon fill="black" stroke="black" points="4336.8,-122.3 4326.8,-125.8 4336.8,-129.3 4336.8,-122.3"/>
</g>
<!-- LexEntryDirectRelationsComponent -->
<g id="node11" class="node">
<title>LexEntryDirectRelationsComponent</title>
<polygon fill="#ffffb3" stroke="black" points="5782.06,-84.8 5559.94,-84.8 5559.94,-48.8 5782.06,-48.8 5782.06,-84.8"/>
<text text-anchor="middle" x="5671" y="-62.6" font-family="Times,serif" font-size="14.00">LexEntryDirectRelationsComponent</text>
</g>
<!-- LexEntryDirectRelationsComponent&#45;&gt;AppModule -->
<g id="edge11" class="edge">
<title>LexEntryDirectRelationsComponent&#45;&gt;AppModule</title>
<path fill="none" stroke="black" d="M5671,-84.83C5671,-101.86 5671,-124.8 5671,-124.8 5671,-124.8 4336.86,-124.8 4336.86,-124.8"/>
<polygon fill="black" stroke="black" points="4336.86,-121.3 4326.86,-124.8 4336.86,-128.3 4336.86,-121.3"/>
</g>
<!-- LexEntryEditorComponent -->
<g id="node12" class="node">
<title>LexEntryEditorComponent</title>
<polygon fill="#ffffb3" stroke="black" points="5541.69,-84.8 5372.31,-84.8 5372.31,-48.8 5541.69,-48.8 5541.69,-84.8"/>
<text text-anchor="middle" x="5457" y="-62.6" font-family="Times,serif" font-size="14.00">LexEntryEditorComponent</text>
</g>
<!-- LexEntryEditorComponent&#45;&gt;AppModule -->
<g id="edge12" class="edge">
<title>LexEntryEditorComponent&#45;&gt;AppModule</title>
<path fill="none" stroke="black" d="M5457,-84.83C5457,-101.2 5457,-122.8 5457,-122.8 5457,-122.8 4336.71,-122.8 4336.71,-122.8"/>
<polygon fill="black" stroke="black" points="4336.71,-119.3 4326.71,-122.8 4336.71,-126.3 4336.71,-119.3"/>
</g>
<!-- LexEntryIndirectRelationsComponent -->
<g id="node13" class="node">
<title>LexEntryIndirectRelationsComponent</title>
<polygon fill="#ffffb3" stroke="black" points="5354.11,-84.8 5123.89,-84.8 5123.89,-48.8 5354.11,-48.8 5354.11,-84.8"/>
<text text-anchor="middle" x="5239" y="-62.6" font-family="Times,serif" font-size="14.00">LexEntryIndirectRelationsComponent</text>
</g>
<!-- LexEntryIndirectRelationsComponent&#45;&gt;AppModule -->
<g id="edge13" class="edge">
<title>LexEntryIndirectRelationsComponent&#45;&gt;AppModule</title>
<path fill="none" stroke="black" d="M5239,-85.08C5239,-100.75 5239,-120.8 5239,-120.8 5239,-120.8 4336.91,-120.8 4336.91,-120.8"/>
<polygon fill="black" stroke="black" points="4336.91,-117.3 4326.91,-120.8 4336.91,-124.3 4336.91,-117.3"/>
</g>
<!-- LexEntryMetadataEditorComponent -->
<g id="node14" class="node">
<title>LexEntryMetadataEditorComponent</title>
<polygon fill="#ffffb3" stroke="black" points="5105.78,-84.8 4884.22,-84.8 4884.22,-48.8 5105.78,-48.8 5105.78,-84.8"/>
<text text-anchor="middle" x="4995" y="-62.6" font-family="Times,serif" font-size="14.00">LexEntryMetadataEditorComponent</text>
</g>
<!-- LexEntryMetadataEditorComponent&#45;&gt;AppModule -->
<g id="edge14" class="edge">
<title>LexEntryMetadataEditorComponent&#45;&gt;AppModule</title>
<path fill="none" stroke="black" d="M4995,-85.04C4995,-100.37 4995,-119.8 4995,-119.8 4995,-119.8 4336.76,-119.8 4336.76,-119.8"/>
<polygon fill="black" stroke="black" points="4336.76,-116.3 4326.76,-119.8 4336.76,-123.3 4336.76,-116.3"/>
</g>
<!-- LexEntryRelationsEditorComponent -->
<g id="node15" class="node">
<title>LexEntryRelationsEditorComponent</title>
<polygon fill="#ffffb3" stroke="black" points="4866.08,-84.8 4643.92,-84.8 4643.92,-48.8 4866.08,-48.8 4866.08,-84.8"/>
<text text-anchor="middle" x="4755" y="-62.6" font-family="Times,serif" font-size="14.00">LexEntryRelationsEditorComponent</text>
</g>
<!-- LexEntryRelationsEditorComponent&#45;&gt;AppModule -->
<g id="edge15" class="edge">
<title>LexEntryRelationsEditorComponent&#45;&gt;AppModule</title>
<path fill="none" stroke="black" d="M4755,-84.92C4755,-99.58 4755,-117.8 4755,-117.8 4755,-117.8 4336.71,-117.8 4336.71,-117.8"/>
<polygon fill="black" stroke="black" points="4336.71,-114.3 4326.71,-117.8 4336.71,-121.3 4336.71,-114.3"/>
</g>
<!-- LexicalEntryEditorComponent -->
<g id="node16" class="node">
<title>LexicalEntryEditorComponent</title>
<polygon fill="#ffffb3" stroke="black" points="4625.9,-84.8 4436.1,-84.8 4436.1,-48.8 4625.9,-48.8 4625.9,-84.8"/>
<text text-anchor="middle" x="4531" y="-62.6" font-family="Times,serif" font-size="14.00">LexicalEntryEditorComponent</text>
</g>
<!-- LexicalEntryEditorComponent&#45;&gt;AppModule -->
<g id="edge16" class="edge">
<title>LexicalEntryEditorComponent&#45;&gt;AppModule</title>
<path fill="none" stroke="black" d="M4531,-85.05C4531,-98.98 4531,-115.8 4531,-115.8 4531,-115.8 4336.73,-115.8 4336.73,-115.8"/>
<polygon fill="black" stroke="black" points="4336.73,-112.3 4326.73,-115.8 4336.73,-119.3 4336.73,-112.3"/>
</g>
<!-- LoginComponent -->
<g id="node17" class="node">
<title>LoginComponent</title>
<polygon fill="#ffffb3" stroke="black" points="4418.27,-84.8 4303.73,-84.8 4303.73,-48.8 4418.27,-48.8 4418.27,-84.8"/>
<text text-anchor="middle" x="4361" y="-62.6" font-family="Times,serif" font-size="14.00">LoginComponent</text>
</g>
<!-- LoginComponent&#45;&gt;AppModule -->
<g id="edge17" class="edge">
<title>LoginComponent&#45;&gt;AppModule</title>
<path fill="none" stroke="black" d="M4315.22,-84.91C4315.22,-84.91 4315.22,-103.79 4315.22,-103.79"/>
<polygon fill="black" stroke="black" points="4311.72,-103.79 4315.22,-113.79 4318.72,-103.79 4311.72,-103.79"/>
</g>
<!-- MainLayoutComponent -->
<g id="node18" class="node">
<title>MainLayoutComponent</title>
<polygon fill="#ffffb3" stroke="black" points="4285.04,-84.8 4134.96,-84.8 4134.96,-48.8 4285.04,-48.8 4285.04,-84.8"/>
<text text-anchor="middle" x="4210" y="-62.6" font-family="Times,serif" font-size="14.00">MainLayoutComponent</text>
</g>
<!-- MainLayoutComponent&#45;&gt;AppModule -->
<g id="edge18" class="edge">
<title>MainLayoutComponent&#45;&gt;AppModule</title>
<path fill="none" stroke="black" d="M4264.22,-84.91C4264.22,-84.91 4264.22,-103.79 4264.22,-103.79"/>
<polygon fill="black" stroke="black" points="4260.72,-103.79 4264.22,-113.79 4267.72,-103.79 4260.72,-103.79"/>
</g>
<!-- MatchNewPasswordDirective -->
<g id="node19" class="node">
<title>MatchNewPasswordDirective</title>
<polygon fill="#ffffb3" stroke="black" points="4116.95,-84.8 3933.05,-84.8 3933.05,-48.8 4116.95,-48.8 4116.95,-84.8"/>
<text text-anchor="middle" x="4025" y="-62.6" font-family="Times,serif" font-size="14.00">MatchNewPasswordDirective</text>
</g>
<!-- MatchNewPasswordDirective&#45;&gt;AppModule -->
<g id="edge19" class="edge">
<title>MatchNewPasswordDirective&#45;&gt;AppModule</title>
<path fill="none" stroke="black" d="M4025,-85.05C4025,-98.98 4025,-115.8 4025,-115.8 4025,-115.8 4233.23,-115.8 4233.23,-115.8"/>
<polygon fill="black" stroke="black" points="4233.23,-119.3 4243.23,-115.8 4233.23,-112.3 4233.23,-119.3"/>
</g>
<!-- RelationEditorComponent -->
<g id="node20" class="node">
<title>RelationEditorComponent</title>
<polygon fill="#ffffb3" stroke="black" points="3914.76,-84.8 3751.24,-84.8 3751.24,-48.8 3914.76,-48.8 3914.76,-84.8"/>
<text text-anchor="middle" x="3833" y="-62.6" font-family="Times,serif" font-size="14.00">RelationEditorComponent</text>
</g>
<!-- RelationEditorComponent&#45;&gt;AppModule -->
<g id="edge20" class="edge">
<title>RelationEditorComponent&#45;&gt;AppModule</title>
<path fill="none" stroke="black" d="M3833,-84.92C3833,-99.58 3833,-117.8 3833,-117.8 3833,-117.8 4233.29,-117.8 4233.29,-117.8"/>
<polygon fill="black" stroke="black" points="4233.29,-121.3 4243.29,-117.8 4233.29,-114.3 4233.29,-121.3"/>
</g>
<!-- SemanticRelDirectComponent -->
<g id="node21" class="node">
<title>SemanticRelDirectComponent</title>
<polygon fill="#ffffb3" stroke="black" points="3732.85,-84.8 3545.15,-84.8 3545.15,-48.8 3732.85,-48.8 3732.85,-84.8"/>
<text text-anchor="middle" x="3639" y="-62.6" font-family="Times,serif" font-size="14.00">SemanticRelDirectComponent</text>
</g>
<!-- SemanticRelDirectComponent&#45;&gt;AppModule -->
<g id="edge21" class="edge">
<title>SemanticRelDirectComponent&#45;&gt;AppModule</title>
<path fill="none" stroke="black" d="M3639,-85.04C3639,-100.37 3639,-119.8 3639,-119.8 3639,-119.8 4233.11,-119.8 4233.11,-119.8"/>
<polygon fill="black" stroke="black" points="4233.11,-123.3 4243.11,-119.8 4233.11,-116.3 4233.11,-123.3"/>
</g>
<!-- SemanticRelEditorComponent -->
<g id="node22" class="node">
<title>SemanticRelEditorComponent</title>
<polygon fill="#ffffb3" stroke="black" points="3526.86,-84.8 3339.14,-84.8 3339.14,-48.8 3526.86,-48.8 3526.86,-84.8"/>
<text text-anchor="middle" x="3433" y="-62.6" font-family="Times,serif" font-size="14.00">SemanticRelEditorComponent</text>
</g>
<!-- SemanticRelEditorComponent&#45;&gt;AppModule -->
<g id="edge22" class="edge">
<title>SemanticRelEditorComponent&#45;&gt;AppModule</title>
<path fill="none" stroke="black" d="M3433,-85.08C3433,-100.75 3433,-120.8 3433,-120.8 3433,-120.8 4233.33,-120.8 4233.33,-120.8"/>
<polygon fill="black" stroke="black" points="4233.33,-124.3 4243.33,-120.8 4233.33,-117.3 4233.33,-124.3"/>
</g>
<!-- SemanticRelIndirectComponent -->
<g id="node23" class="node">
<title>SemanticRelIndirectComponent</title>
<polygon fill="#ffffb3" stroke="black" points="3321.4,-84.8 3124.6,-84.8 3124.6,-48.8 3321.4,-48.8 3321.4,-84.8"/>
<text text-anchor="middle" x="3223" y="-62.6" font-family="Times,serif" font-size="14.00">SemanticRelIndirectComponent</text>
</g>
<!-- SemanticRelIndirectComponent&#45;&gt;AppModule -->
<g id="edge23" class="edge">
<title>SemanticRelIndirectComponent&#45;&gt;AppModule</title>
<path fill="none" stroke="black" d="M3223,-84.83C3223,-101.2 3223,-122.8 3223,-122.8 3223,-122.8 4233.04,-122.8 4233.04,-122.8"/>
<polygon fill="black" stroke="black" points="4233.04,-126.3 4243.04,-122.8 4233.04,-119.3 4233.04,-126.3"/>
</g>
<!-- SenseCoreEditorComponent -->
<g id="node24" class="node">
<title>SenseCoreEditorComponent</title>
<polygon fill="#ffffb3" stroke="black" points="3107.2,-84.8 2930.8,-84.8 2930.8,-48.8 3107.2,-48.8 3107.2,-84.8"/>
<text text-anchor="middle" x="3019" y="-62.6" font-family="Times,serif" font-size="14.00">SenseCoreEditorComponent</text>
</g>
<!-- SenseCoreEditorComponent&#45;&gt;AppModule -->
<g id="edge24" class="edge">
<title>SenseCoreEditorComponent&#45;&gt;AppModule</title>
<path fill="none" stroke="black" d="M3019,-84.83C3019,-101.86 3019,-124.8 3019,-124.8 3019,-124.8 4233.24,-124.8 4233.24,-124.8"/>
<polygon fill="black" stroke="black" points="4233.24,-128.3 4243.24,-124.8 4233.24,-121.3 4233.24,-128.3"/>
</g>
<!-- SenseMetadataEditorComponent -->
<g id="node25" class="node">
<title>SenseMetadataEditorComponent</title>
<polygon fill="#ffffb3" stroke="black" points="2912.57,-84.8 2711.43,-84.8 2711.43,-48.8 2912.57,-48.8 2912.57,-84.8"/>
<text text-anchor="middle" x="2812" y="-62.6" font-family="Times,serif" font-size="14.00">SenseMetadataEditorComponent</text>
</g>
<!-- SenseMetadataEditorComponent&#45;&gt;AppModule -->
<g id="edge25" class="edge">
<title>SenseMetadataEditorComponent&#45;&gt;AppModule</title>
<path fill="none" stroke="black" d="M2812,-84.82C2812,-102.17 2812,-125.8 2812,-125.8 2812,-125.8 4233.29,-125.8 4233.29,-125.8"/>
<polygon fill="black" stroke="black" points="4233.29,-129.3 4243.29,-125.8 4233.29,-122.3 4233.29,-129.3"/>
</g>
<!-- TabsFormComponent -->
<g id="node26" class="node">
<title>TabsFormComponent</title>
<polygon fill="#ffffb3" stroke="black" points="2693.38,-84.8 2554.62,-84.8 2554.62,-48.8 2693.38,-48.8 2693.38,-84.8"/>
<text text-anchor="middle" x="2624" y="-62.6" font-family="Times,serif" font-size="14.00">TabsFormComponent</text>
</g>
<!-- TabsFormComponent&#45;&gt;AppModule -->
<g id="edge26" class="edge">
<title>TabsFormComponent&#45;&gt;AppModule</title>
<path fill="none" stroke="black" d="M2624,-85.1C2624,-103.07 2624,-127.8 2624,-127.8 2624,-127.8 4233.11,-127.8 4233.11,-127.8"/>
<polygon fill="black" stroke="black" points="4233.11,-131.3 4243.11,-127.8 4233.11,-124.3 4233.11,-131.3"/>
</g>
<!-- TabsLexicalEntryComponent -->
<g id="node27" class="node">
<title>TabsLexicalEntryComponent</title>
<polygon fill="#ffffb3" stroke="black" points="2536.62,-84.8 2355.38,-84.8 2355.38,-48.8 2536.62,-48.8 2536.62,-84.8"/>
<text text-anchor="middle" x="2446" y="-62.6" font-family="Times,serif" font-size="14.00">TabsLexicalEntryComponent</text>
</g>
<!-- TabsLexicalEntryComponent&#45;&gt;AppModule -->
<g id="edge27" class="edge">
<title>TabsLexicalEntryComponent&#45;&gt;AppModule</title>
<path fill="none" stroke="black" d="M2446,-85.02C2446,-103.63 2446,-129.8 2446,-129.8 2446,-129.8 4233.13,-129.8 4233.13,-129.8"/>
<polygon fill="black" stroke="black" points="4233.13,-133.3 4243.13,-129.8 4233.13,-126.3 4233.13,-133.3"/>
</g>
<!-- TabsSenseComponent -->
<g id="node28" class="node">
<title>TabsSenseComponent</title>
<polygon fill="#ffffb3" stroke="black" points="2337.71,-84.8 2196.29,-84.8 2196.29,-48.8 2337.71,-48.8 2337.71,-84.8"/>
<text text-anchor="middle" x="2267" y="-62.6" font-family="Times,serif" font-size="14.00">TabsSenseComponent</text>
</g>
<!-- TabsSenseComponent&#45;&gt;AppModule -->
<g id="edge28" class="edge">
<title>TabsSenseComponent&#45;&gt;AppModule</title>
<path fill="none" stroke="black" d="M2267,-84.91C2267,-104.14 2267,-131.8 2267,-131.8 2267,-131.8 4233.31,-131.8 4233.31,-131.8"/>
<polygon fill="black" stroke="black" points="4233.31,-135.3 4243.31,-131.8 4233.31,-128.3 4233.31,-135.3"/>
</g>
<!-- TextAnnotationEditorComponent -->
<g id="node29" class="node">
<title>TextAnnotationEditorComponent</title>
<polygon fill="#ffffb3" stroke="black" points="2178.47,-84.8 1973.53,-84.8 1973.53,-48.8 2178.47,-48.8 2178.47,-84.8"/>
<text text-anchor="middle" x="2076" y="-62.6" font-family="Times,serif" font-size="14.00">TextAnnotationEditorComponent</text>
</g>
<!-- TextAnnotationEditorComponent&#45;&gt;AppModule -->
<g id="edge29" class="edge">
<title>TextAnnotationEditorComponent&#45;&gt;AppModule</title>
<path fill="none" stroke="black" d="M2076,-84.83C2076,-104.38 2076,-132.8 2076,-132.8 2076,-132.8 4233.33,-132.8 4233.33,-132.8"/>
<polygon fill="black" stroke="black" points="4233.33,-136.3 4243.33,-132.8 4233.33,-129.3 4233.33,-136.3"/>
</g>
<!-- WorkspaceComponent -->
<g id="node30" class="node">
<title>WorkspaceComponent</title>
<polygon fill="#ffffb3" stroke="black" points="1955.3,-84.8 1810.7,-84.8 1810.7,-48.8 1955.3,-48.8 1955.3,-84.8"/>
<text text-anchor="middle" x="1883" y="-62.6" font-family="Times,serif" font-size="14.00">WorkspaceComponent</text>
</g>
<!-- WorkspaceComponent&#45;&gt;AppModule -->
<g id="edge30" class="edge">
<title>WorkspaceComponent&#45;&gt;AppModule</title>
<path fill="none" stroke="black" d="M1883,-85.02C1883,-105.17 1883,-134.8 1883,-134.8 1883,-134.8 4233.31,-134.8 4233.31,-134.8"/>
<polygon fill="black" stroke="black" points="4233.31,-138.3 4243.31,-134.8 4233.31,-131.3 4233.31,-138.3"/>
</g>
<!-- WorkspaceCorpusExplorerComponent -->
<g id="node31" class="node">
<title>WorkspaceCorpusExplorerComponent</title>
<polygon fill="#ffffb3" stroke="black" points="1792.72,-84.8 1559.28,-84.8 1559.28,-48.8 1792.72,-48.8 1792.72,-84.8"/>
<text text-anchor="middle" x="1676" y="-62.6" font-family="Times,serif" font-size="14.00">WorkspaceCorpusExplorerComponent</text>
</g>
<!-- WorkspaceCorpusExplorerComponent&#45;&gt;AppModule -->
<g id="edge31" class="edge">
<title>WorkspaceCorpusExplorerComponent&#45;&gt;AppModule</title>
<path fill="none" stroke="black" d="M1676,-84.83C1676,-105.57 1676,-136.8 1676,-136.8 1676,-136.8 4233.23,-136.8 4233.23,-136.8"/>
<polygon fill="black" stroke="black" points="4233.23,-140.3 4243.23,-136.8 4233.23,-133.3 4233.23,-140.3"/>
</g>
<!-- WorkspaceLayoutComponent -->
<g id="node32" class="node">
<title>WorkspaceLayoutComponent</title>
<polygon fill="#ffffb3" stroke="black" points="1540.95,-84.8 1357.05,-84.8 1357.05,-48.8 1540.95,-48.8 1540.95,-84.8"/>
<text text-anchor="middle" x="1449" y="-62.6" font-family="Times,serif" font-size="14.00">WorkspaceLayoutComponent</text>
</g>
<!-- WorkspaceLayoutComponent&#45;&gt;AppModule -->
<g id="edge32" class="edge">
<title>WorkspaceLayoutComponent&#45;&gt;AppModule</title>
<path fill="none" stroke="black" d="M1449,-85.08C1449,-106.12 1449,-137.8 1449,-137.8 1449,-137.8 4233.26,-137.8 4233.26,-137.8"/>
<polygon fill="black" stroke="black" points="4233.26,-141.3 4243.26,-137.8 4233.26,-134.3 4233.26,-141.3"/>
</g>
<!-- WorkspaceLexiconEditTileComponent -->
<g id="node33" class="node">
<title>WorkspaceLexiconEditTileComponent</title>
<polygon fill="#ffffb3" stroke="black" points="1339.04,-84.8 1102.96,-84.8 1102.96,-48.8 1339.04,-48.8 1339.04,-84.8"/>
<text text-anchor="middle" x="1221" y="-62.6" font-family="Times,serif" font-size="14.00">WorkspaceLexiconEditTileComponent</text>
</g>
<!-- WorkspaceLexiconEditTileComponent&#45;&gt;AppModule -->
<g id="edge33" class="edge">
<title>WorkspaceLexiconEditTileComponent&#45;&gt;AppModule</title>
<path fill="none" stroke="black" d="M1221,-84.84C1221,-106.46 1221,-139.8 1221,-139.8 1221,-139.8 4233.14,-139.8 4233.14,-139.8"/>
<polygon fill="black" stroke="black" points="4233.14,-143.3 4243.14,-139.8 4233.14,-136.3 4233.14,-143.3"/>
</g>
<!-- WorkspaceLexiconTileComponent -->
<g id="node34" class="node">
<title>WorkspaceLexiconTileComponent</title>
<polygon fill="#ffffb3" stroke="black" points="1085.21,-84.8 872.79,-84.8 872.79,-48.8 1085.21,-48.8 1085.21,-84.8"/>
<text text-anchor="middle" x="979" y="-62.6" font-family="Times,serif" font-size="14.00">WorkspaceLexiconTileComponent</text>
</g>
<!-- WorkspaceLexiconTileComponent&#45;&gt;AppModule -->
<g id="edge34" class="edge">
<title>WorkspaceLexiconTileComponent&#45;&gt;AppModule</title>
<path fill="none" stroke="black" d="M979,-84.96C979,-107.15 979,-141.8 979,-141.8 979,-141.8 4233.2,-141.8 4233.2,-141.8"/>
<polygon fill="black" stroke="black" points="4233.2,-145.3 4243.2,-141.8 4233.2,-138.3 4233.2,-145.3"/>
</g>
<!-- WorkspaceListComponent -->
<g id="node35" class="node">
<title>WorkspaceListComponent</title>
<polygon fill="#ffffb3" stroke="black" points="855.08,-84.8 688.92,-84.8 688.92,-48.8 855.08,-48.8 855.08,-84.8"/>
<text text-anchor="middle" x="772" y="-62.6" font-family="Times,serif" font-size="14.00">WorkspaceListComponent</text>
</g>
<!-- WorkspaceListComponent&#45;&gt;AppModule -->
<g id="edge35" class="edge">
<title>WorkspaceListComponent&#45;&gt;AppModule</title>
<path fill="none" stroke="black" d="M772,-85.05C772,-107.82 772,-143.8 772,-143.8 772,-143.8 4233.1,-143.8 4233.1,-143.8"/>
<polygon fill="black" stroke="black" points="4233.1,-147.3 4243.1,-143.8 4233.1,-140.3 4233.1,-147.3"/>
</g>
<!-- WorkspaceMenuComponent -->
<g id="node36" class="node">
<title>WorkspaceMenuComponent</title>
<polygon fill="#ffffb3" stroke="black" points="670.46,-84.8 493.54,-84.8 493.54,-48.8 670.46,-48.8 670.46,-84.8"/>
<text text-anchor="middle" x="582" y="-62.6" font-family="Times,serif" font-size="14.00">WorkspaceMenuComponent</text>
</g>
<!-- WorkspaceMenuComponent&#45;&gt;AppModule -->
<g id="edge36" class="edge">
<title>WorkspaceMenuComponent&#45;&gt;AppModule</title>
<path fill="none" stroke="black" d="M582,-84.89C582,-107.93 582,-144.8 582,-144.8 582,-144.8 4233.1,-144.8 4233.1,-144.8"/>
<polygon fill="black" stroke="black" points="4233.1,-148.3 4243.1,-144.8 4233.1,-141.3 4233.1,-148.3"/>
</g>
<!-- WorkspaceTextSelectorComponent -->
<g id="node37" class="node">
<title>WorkspaceTextSelectorComponent</title>
<polygon fill="#ffffb3" stroke="black" points="475.82,-84.8 260.18,-84.8 260.18,-48.8 475.82,-48.8 475.82,-84.8"/>
<text text-anchor="middle" x="368" y="-62.6" font-family="Times,serif" font-size="14.00">WorkspaceTextSelectorComponent</text>
</g>
<!-- WorkspaceTextSelectorComponent&#45;&gt;AppModule -->
<g id="edge37" class="edge">
<title>WorkspaceTextSelectorComponent&#45;&gt;AppModule</title>
<path fill="none" stroke="black" d="M368,-84.95C368,-108.56 368,-146.8 368,-146.8 368,-146.8 4233.33,-146.8 4233.33,-146.8"/>
<polygon fill="black" stroke="black" points="4233.33,-150.3 4243.33,-146.8 4233.33,-143.3 4233.33,-150.3"/>
</g>
<!-- WorkspaceTextWindowComponent -->
<g id="node38" class="node">
<title>WorkspaceTextWindowComponent</title>
<polygon fill="#ffffb3" stroke="black" points="242.17,-84.8 23.83,-84.8 23.83,-48.8 242.17,-48.8 242.17,-84.8"/>
<text text-anchor="middle" x="133" y="-62.6" font-family="Times,serif" font-size="14.00">WorkspaceTextWindowComponent</text>
</g>
<!-- WorkspaceTextWindowComponent&#45;&gt;AppModule -->
<g id="edge38" class="edge">
<title>WorkspaceTextWindowComponent&#45;&gt;AppModule</title>
<path fill="none" stroke="black" d="M133,-85C133,-109.16 133,-148.8 133,-148.8 133,-148.8 4233.23,-148.8 4233.23,-148.8"/>
<polygon fill="black" stroke="black" points="4233.23,-152.3 4243.23,-148.8 4233.23,-145.3 4233.23,-152.3"/>
</g>
<!-- AppComponent  -->
<g id="node43" class="node">
<title>AppComponent </title>
<polygon fill="#80b1d3" stroke="black" points="4339.44,-214.8 4230.56,-214.8 4230.56,-178.8 4339.44,-178.8 4339.44,-214.8"/>
<text text-anchor="middle" x="4285" y="-192.6" font-family="Times,serif" font-size="14.00">AppComponent </text>
</g>
<!-- AppModule&#45;&gt;AppComponent  -->
<g id="edge42" class="edge">
<title>AppModule&#45;&gt;AppComponent </title>
<path fill="none" stroke="black" stroke-dasharray="1,5" d="M4285,-149.91C4285,-149.91 4285,-168.79 4285,-168.79"/>
<polygon fill="black" stroke="black" points="4281.5,-168.79 4285,-178.79 4288.5,-168.79 4281.5,-168.79"/>
</g>
<!-- AppRoutingModule -->
<g id="node40" class="node">
<title>AppRoutingModule</title>
<polygon fill="#8dd3c7" stroke="black" points="8438.28,-84.8 8435.28,-88.8 8414.28,-88.8 8411.28,-84.8 8309.72,-84.8 8309.72,-48.8 8438.28,-48.8 8438.28,-84.8"/>
<text text-anchor="middle" x="8374" y="-62.6" font-family="Times,serif" font-size="14.00">AppRoutingModule</text>
</g>
<!-- AppRoutingModule&#45;&gt;AppModule -->
<g id="edge39" class="edge">
<title>AppRoutingModule&#45;&gt;AppModule</title>
<path fill="none" stroke="black" d="M8374,-85C8374,-109.16 8374,-148.8 8374,-148.8 8374,-148.8 4336.8,-148.8 4336.8,-148.8"/>
<polygon fill="black" stroke="black" points="4336.8,-145.3 4326.8,-148.8 4336.8,-152.3 4336.8,-145.3"/>
</g>
<!-- IconsModule -->
<g id="node41" class="node">
<title>IconsModule</title>
<polygon fill="#8dd3c7" stroke="black" points="8291.88,-84.8 8288.88,-88.8 8267.88,-88.8 8264.88,-84.8 8202.12,-84.8 8202.12,-48.8 8291.88,-48.8 8291.88,-84.8"/>
<text text-anchor="middle" x="8247" y="-62.6" font-family="Times,serif" font-size="14.00">IconsModule</text>
</g>
<!-- IconsModule&#45;&gt;AppModule -->
<g id="edge40" class="edge">
<title>IconsModule&#45;&gt;AppModule</title>
<path fill="none" stroke="black" d="M8247,-84.95C8247,-108.56 8247,-146.8 8247,-146.8 8247,-146.8 4336.81,-146.8 4336.81,-146.8"/>
<polygon fill="black" stroke="black" points="4336.81,-143.3 4326.81,-146.8 4336.81,-150.3 4336.81,-143.3"/>
</g>
<!-- SharedModule -->
<g id="node42" class="node">
<title>SharedModule</title>
<polygon fill="#8dd3c7" stroke="black" points="8184.43,-84.8 8181.43,-88.8 8160.43,-88.8 8157.43,-84.8 8085.57,-84.8 8085.57,-48.8 8184.43,-48.8 8184.43,-84.8"/>
<text text-anchor="middle" x="8135" y="-62.6" font-family="Times,serif" font-size="14.00">SharedModule</text>
</g>
<!-- SharedModule&#45;&gt;AppModule -->
<g id="edge41" class="edge">
<title>SharedModule&#45;&gt;AppModule</title>
<path fill="none" stroke="black" d="M8135,-84.89C8135,-107.93 8135,-144.8 8135,-144.8 8135,-144.8 4336.93,-144.8 4336.93,-144.8"/>
<polygon fill="black" stroke="black" points="4336.93,-141.3 4326.93,-144.8 4336.93,-148.3 4336.93,-141.3"/>
</g>
<!-- CommonService -->
<g id="node44" class="node">
<title>CommonService</title>
<ellipse fill="#fdb462" stroke="black" cx="7986" cy="-66.8" rx="75.89" ry="18"/>
<text text-anchor="middle" x="7986" y="-62.6" font-family="Times,serif" font-size="14.00">CommonService</text>
</g>
<!-- CommonService&#45;&gt;AppModule -->
<g id="edge43" class="edge">
<title>CommonService&#45;&gt;AppModule</title>
<path fill="none" stroke="black" d="M7986,-85.05C7986,-107.82 7986,-143.8 7986,-143.8 7986,-143.8 4336.88,-143.8 4336.88,-143.8"/>
<polygon fill="black" stroke="black" points="4336.88,-140.3 4326.88,-143.8 4336.88,-147.3 4336.88,-140.3"/>
</g>
</g>
</svg>
