<?xml version="1.0" encoding="UTF-8" standalone="no"?>
<!DOCTYPE svg PUBLIC "-//W3C//DTD SVG 1.1//EN"
 "http://www.w3.org/Graphics/SVG/1.1/DTD/svg11.dtd">
<!-- Generated by graphviz version 5.0.0 (20220707.1540)
 -->
<!-- Title: dependencies Pages: 1 -->
<svg width="6975pt" height="247pt"
 viewBox="0.00 0.00 6975.00 246.80" xmlns="http://www.w3.org/2000/svg" xmlns:xlink="http://www.w3.org/1999/xlink">
<g id="graph0" class="graph" transform="scale(1 1) rotate(0) translate(4 242.8)">
<title>dependencies</title>
<polygon fill="white" stroke="transparent" points="-4,4 -4,-242.8 6971,-242.8 6971,4 -4,4"/>
<text text-anchor="middle" x="3483.5" y="-8.2" font-family="sans-serif" font-size="14.00">dependencies</text>
<g id="clust1" class="cluster">
<title>cluster_AppModule</title>
<polygon fill="none" stroke="black" stroke-dasharray="1,5" points="8,-32.8 8,-230.8 6959,-230.8 6959,-32.8 8,-32.8"/>
</g>
<g id="clust37" class="cluster">
<title>cluster_AppModule_bootstrap</title>
<polygon fill="none" stroke="black" points="3405,-170.8 3405,-222.8 3529,-222.8 3529,-170.8 3405,-170.8"/>
</g>
<g id="clust2" class="cluster">
<title>cluster_AppModule_declarations</title>
<polygon fill="none" stroke="black" points="568,-40.8 568,-92.8 6951,-92.8 6951,-40.8 568,-40.8"/>
</g>
<g id="clust35" class="cluster">
<title>cluster_AppModule_imports</title>
<polygon fill="none" stroke="black" points="192,-40.8 192,-92.8 560,-92.8 560,-40.8 192,-40.8"/>
</g>
<g id="clust38" class="cluster">
<title>cluster_AppModule_providers</title>
<polygon fill="none" stroke="black" points="16,-40.8 16,-92.8 184,-92.8 184,-40.8 16,-40.8"/>
</g>
<!-- AppComponent -->
<g id="node1" class="node">
<title>AppComponent</title>
<polygon fill="#ffffb3" stroke="black" points="6942.94,-84.8 6837.06,-84.8 6837.06,-48.8 6942.94,-48.8 6942.94,-84.8"/>
<text text-anchor="middle" x="6890" y="-62.6" font-family="Times,serif" font-size="14.00">AppComponent</text>
</g>
<!-- AppModule -->
<g id="node33" class="node">
<title>AppModule</title>
<polygon fill="#8dd3c7" stroke="black" points="3508.66,-149.8 3505.66,-153.8 3484.66,-153.8 3481.66,-149.8 3425.34,-149.8 3425.34,-113.8 3508.66,-113.8 3508.66,-149.8"/>
<text text-anchor="middle" x="3467" y="-127.6" font-family="Times,serif" font-size="14.00">AppModule</text>
</g>
<!-- AppComponent&#45;&gt;AppModule -->
<g id="edge1" class="edge">
<title>AppComponent&#45;&gt;AppModule</title>
<path fill="none" stroke="black" d="M6890,-85.18C6890,-109.08 6890,-147.8 6890,-147.8 6890,-147.8 3518.74,-147.8 3518.74,-147.8"/>
<polygon fill="black" stroke="black" points="3518.74,-144.3 3508.74,-147.8 3518.74,-151.3 3518.74,-144.3"/>
</g>
<!-- BaseMetadataEditorComponent -->
<g id="node2" class="node">
<title>BaseMetadataEditorComponent</title>
<polygon fill="#ffffb3" stroke="black" points="6818.62,-84.8 6623.38,-84.8 6623.38,-48.8 6818.62,-48.8 6818.62,-84.8"/>
<text text-anchor="middle" x="6721" y="-62.6" font-family="Times,serif" font-size="14.00">BaseMetadataEditorComponent</text>
</g>
<!-- BaseMetadataEditorComponent&#45;&gt;AppModule -->
<g id="edge2" class="edge">
<title>BaseMetadataEditorComponent&#45;&gt;AppModule</title>
<path fill="none" stroke="black" d="M6721,-85.12C6721,-108.46 6721,-145.8 6721,-145.8 6721,-145.8 3518.74,-145.8 3518.74,-145.8"/>
<polygon fill="black" stroke="black" points="3518.74,-142.3 3508.74,-145.8 3518.74,-149.3 3518.74,-142.3"/>
</g>
<!-- DirectRelationsComponent -->
<g id="node3" class="node">
<title>DirectRelationsComponent</title>
<polygon fill="#ffffb3" stroke="black" points="6605.69,-84.8 6436.31,-84.8 6436.31,-48.8 6605.69,-48.8 6605.69,-84.8"/>
<text text-anchor="middle" x="6521" y="-62.6" font-family="Times,serif" font-size="14.00">DirectRelationsComponent</text>
</g>
<!-- DirectRelationsComponent&#45;&gt;AppModule -->
<g id="edge3" class="edge">
<title>DirectRelationsComponent&#45;&gt;AppModule</title>
<path fill="none" stroke="black" d="M6521,-85.05C6521,-107.82 6521,-143.8 6521,-143.8 6521,-143.8 3518.72,-143.8 3518.72,-143.8"/>
<polygon fill="black" stroke="black" points="3518.72,-140.3 3508.72,-143.8 3518.72,-147.3 3518.72,-140.3"/>
</g>
<!-- FormCoreEditorComponent -->
<g id="node4" class="node">
<title>FormCoreEditorComponent</title>
<polygon fill="#ffffb3" stroke="black" points="6417.88,-84.8 6244.12,-84.8 6244.12,-48.8 6417.88,-48.8 6417.88,-84.8"/>
<text text-anchor="middle" x="6331" y="-62.6" font-family="Times,serif" font-size="14.00">FormCoreEditorComponent</text>
</g>
<!-- FormCoreEditorComponent&#45;&gt;AppModule -->
<g id="edge4" class="edge">
<title>FormCoreEditorComponent&#45;&gt;AppModule</title>
<path fill="none" stroke="black" d="M6331,-84.96C6331,-107.15 6331,-141.8 6331,-141.8 6331,-141.8 3518.87,-141.8 3518.87,-141.8"/>
<polygon fill="black" stroke="black" points="3518.87,-138.3 3508.87,-141.8 3518.87,-145.3 3518.87,-138.3"/>
</g>
<!-- FormMetadataEditorComponent -->
<g id="node5" class="node">
<title>FormMetadataEditorComponent</title>
<polygon fill="#ffffb3" stroke="black" points="6226.25,-84.8 6027.75,-84.8 6027.75,-48.8 6226.25,-48.8 6226.25,-84.8"/>
<text text-anchor="middle" x="6127" y="-62.6" font-family="Times,serif" font-size="14.00">FormMetadataEditorComponent</text>
</g>
<!-- FormMetadataEditorComponent&#45;&gt;AppModule -->
<g id="edge5" class="edge">
<title>FormMetadataEditorComponent&#45;&gt;AppModule</title>
<path fill="none" stroke="black" d="M6127,-84.84C6127,-106.46 6127,-139.8 6127,-139.8 6127,-139.8 3518.78,-139.8 3518.78,-139.8"/>
<polygon fill="black" stroke="black" points="3518.78,-136.3 3508.78,-139.8 3518.78,-143.3 3518.78,-136.3"/>
</g>
<!-- IndirectRelPropertyComponent -->
<g id="node6" class="node">
<title>IndirectRelPropertyComponent</title>
<polygon fill="#ffffb3" stroke="black" points="6009.02,-84.8 5816.98,-84.8 5816.98,-48.8 6009.02,-48.8 6009.02,-84.8"/>
<text text-anchor="middle" x="5913" y="-62.6" font-family="Times,serif" font-size="14.00">IndirectRelPropertyComponent</text>
</g>
<!-- IndirectRelPropertyComponent&#45;&gt;AppModule -->
<g id="edge6" class="edge">
<title>IndirectRelPropertyComponent&#45;&gt;AppModule</title>
<path fill="none" stroke="black" d="M5913,-85.08C5913,-106.12 5913,-137.8 5913,-137.8 5913,-137.8 3518.68,-137.8 3518.68,-137.8"/>
<polygon fill="black" stroke="black" points="3518.68,-134.3 3508.68,-137.8 3518.68,-141.3 3518.68,-134.3"/>
</g>
<!-- IndirectRelationsComponent -->
<g id="node7" class="node">
<title>IndirectRelationsComponent</title>
<polygon fill="#ffffb3" stroke="black" points="5798.75,-84.8 5621.25,-84.8 5621.25,-48.8 5798.75,-48.8 5798.75,-84.8"/>
<text text-anchor="middle" x="5710" y="-62.6" font-family="Times,serif" font-size="14.00">IndirectRelationsComponent</text>
</g>
<!-- IndirectRelationsComponent&#45;&gt;AppModule -->
<g id="edge7" class="edge">
<title>IndirectRelationsComponent&#45;&gt;AppModule</title>
<path fill="none" stroke="black" d="M5710,-84.93C5710,-105.37 5710,-135.8 5710,-135.8 5710,-135.8 3518.82,-135.8 3518.82,-135.8"/>
<polygon fill="black" stroke="black" points="3518.82,-132.3 3508.82,-135.8 3518.82,-139.3 3518.82,-132.3"/>
</g>
<!-- LexEntryEditorComponent -->
<g id="node8" class="node">
<title>LexEntryEditorComponent</title>
<polygon fill="#ffffb3" stroke="black" points="5603.69,-84.8 5434.31,-84.8 5434.31,-48.8 5603.69,-48.8 5603.69,-84.8"/>
<text text-anchor="middle" x="5519" y="-62.6" font-family="Times,serif" font-size="14.00">LexEntryEditorComponent</text>
</g>
<!-- LexEntryEditorComponent&#45;&gt;AppModule -->
<g id="edge8" class="edge">
<title>LexEntryEditorComponent&#45;&gt;AppModule</title>
<path fill="none" stroke="black" d="M5519,-85.11C5519,-104.95 5519,-133.8 5519,-133.8 5519,-133.8 3518.92,-133.8 3518.92,-133.8"/>
<polygon fill="black" stroke="black" points="3518.92,-130.3 3508.92,-133.8 3518.92,-137.3 3518.92,-130.3"/>
</g>
<!-- LexEntryMetadataEditorComponent -->
<g id="node9" class="node">
<title>LexEntryMetadataEditorComponent</title>
<polygon fill="#ffffb3" stroke="black" points="5416.78,-84.8 5195.22,-84.8 5195.22,-48.8 5416.78,-48.8 5416.78,-84.8"/>
<text text-anchor="middle" x="5306" y="-62.6" font-family="Times,serif" font-size="14.00">LexEntryMetadataEditorComponent</text>
</g>
<!-- LexEntryMetadataEditorComponent&#45;&gt;AppModule -->
<g id="edge9" class="edge">
<title>LexEntryMetadataEditorComponent&#45;&gt;AppModule</title>
<path fill="none" stroke="black" d="M5306,-84.91C5306,-104.14 5306,-131.8 5306,-131.8 5306,-131.8 3518.87,-131.8 3518.87,-131.8"/>
<polygon fill="black" stroke="black" points="3518.87,-128.3 3508.87,-131.8 3518.87,-135.3 3518.87,-128.3"/>
</g>
<!-- LexicalEntryEditorComponent -->
<g id="node10" class="node">
<title>LexicalEntryEditorComponent</title>
<polygon fill="#ffffb3" stroke="black" points="5177.9,-84.8 4988.1,-84.8 4988.1,-48.8 5177.9,-48.8 5177.9,-84.8"/>
<text text-anchor="middle" x="5083" y="-62.6" font-family="Times,serif" font-size="14.00">LexicalEntryEditorComponent</text>
</g>
<!-- LexicalEntryEditorComponent&#45;&gt;AppModule -->
<g id="edge10" class="edge">
<title>LexicalEntryEditorComponent&#45;&gt;AppModule</title>
<path fill="none" stroke="black" d="M5083,-85.02C5083,-103.63 5083,-129.8 5083,-129.8 5083,-129.8 3518.98,-129.8 3518.98,-129.8"/>
<polygon fill="black" stroke="black" points="3518.98,-126.3 3508.98,-129.8 3518.98,-133.3 3518.98,-126.3"/>
</g>
<!-- LoginComponent -->
<g id="node11" class="node">
<title>LoginComponent</title>
<polygon fill="#ffffb3" stroke="black" points="4970.27,-84.8 4855.73,-84.8 4855.73,-48.8 4970.27,-48.8 4970.27,-84.8"/>
<text text-anchor="middle" x="4913" y="-62.6" font-family="Times,serif" font-size="14.00">LoginComponent</text>
</g>
<!-- LoginComponent&#45;&gt;AppModule -->
<g id="edge11" class="edge">
<title>LoginComponent&#45;&gt;AppModule</title>
<path fill="none" stroke="black" d="M4913,-85.1C4913,-103.07 4913,-127.8 4913,-127.8 4913,-127.8 3518.72,-127.8 3518.72,-127.8"/>
<polygon fill="black" stroke="black" points="3518.72,-124.3 3508.72,-127.8 3518.72,-131.3 3518.72,-124.3"/>
</g>
<!-- MainLayoutComponent -->
<g id="node12" class="node">
<title>MainLayoutComponent</title>
<polygon fill="#ffffb3" stroke="black" points="4837.04,-84.8 4686.96,-84.8 4686.96,-48.8 4837.04,-48.8 4837.04,-84.8"/>
<text text-anchor="middle" x="4762" y="-62.6" font-family="Times,serif" font-size="14.00">MainLayoutComponent</text>
</g>
<!-- MainLayoutComponent&#45;&gt;AppModule -->
<g id="edge12" class="edge">
<title>MainLayoutComponent&#45;&gt;AppModule</title>
<path fill="none" stroke="black" d="M4762,-84.82C4762,-102.17 4762,-125.8 4762,-125.8 4762,-125.8 3518.98,-125.8 3518.98,-125.8"/>
<polygon fill="black" stroke="black" points="3518.98,-122.3 3508.98,-125.8 3518.98,-129.3 3518.98,-122.3"/>
</g>
<!-- MatchNewPasswordDirective -->
<g id="node13" class="node">
<title>MatchNewPasswordDirective</title>
<polygon fill="#ffffb3" stroke="black" points="4668.95,-84.8 4485.05,-84.8 4485.05,-48.8 4668.95,-48.8 4668.95,-84.8"/>
<text text-anchor="middle" x="4577" y="-62.6" font-family="Times,serif" font-size="14.00">MatchNewPasswordDirective</text>
</g>
<!-- MatchNewPasswordDirective&#45;&gt;AppModule -->
<g id="edge13" class="edge">
<title>MatchNewPasswordDirective&#45;&gt;AppModule</title>
<path fill="none" stroke="black" d="M4577,-84.84C4577,-101.53 4577,-123.8 4577,-123.8 4577,-123.8 3518.82,-123.8 3518.82,-123.8"/>
<polygon fill="black" stroke="black" points="3518.82,-120.3 3508.82,-123.8 3518.82,-127.3 3518.82,-120.3"/>
</g>
<!-- RelationEditorComponent -->
<g id="node14" class="node">
<title>RelationEditorComponent</title>
<polygon fill="#ffffb3" stroke="black" points="4466.76,-84.8 4303.24,-84.8 4303.24,-48.8 4466.76,-48.8 4466.76,-84.8"/>
<text text-anchor="middle" x="4385" y="-62.6" font-family="Times,serif" font-size="14.00">RelationEditorComponent</text>
</g>
<!-- RelationEditorComponent&#45;&gt;AppModule -->
<g id="edge14" class="edge">
<title>RelationEditorComponent&#45;&gt;AppModule</title>
<path fill="none" stroke="black" d="M4385,-84.81C4385,-100.85 4385,-121.8 4385,-121.8 4385,-121.8 3518.83,-121.8 3518.83,-121.8"/>
<polygon fill="black" stroke="black" points="3518.83,-118.3 3508.83,-121.8 3518.83,-125.3 3518.83,-118.3"/>
</g>
<!-- SemanticRelDirectComponent -->
<g id="node15" class="node">
<title>SemanticRelDirectComponent</title>
<polygon fill="#ffffb3" stroke="black" points="4284.85,-84.8 4097.15,-84.8 4097.15,-48.8 4284.85,-48.8 4284.85,-84.8"/>
<text text-anchor="middle" x="4191" y="-62.6" font-family="Times,serif" font-size="14.00">SemanticRelDirectComponent</text>
</g>
<!-- SemanticRelDirectComponent&#45;&gt;AppModule -->
<g id="edge15" class="edge">
<title>SemanticRelDirectComponent&#45;&gt;AppModule</title>
<path fill="none" stroke="black" d="M4191,-85.04C4191,-100.37 4191,-119.8 4191,-119.8 4191,-119.8 3518.79,-119.8 3518.79,-119.8"/>
<polygon fill="black" stroke="black" points="3518.79,-116.3 3508.79,-119.8 3518.79,-123.3 3518.79,-116.3"/>
</g>
<!-- SemanticRelEditorComponent -->
<g id="node16" class="node">
<title>SemanticRelEditorComponent</title>
<polygon fill="#ffffb3" stroke="black" points="4078.86,-84.8 3891.14,-84.8 3891.14,-48.8 4078.86,-48.8 4078.86,-84.8"/>
<text text-anchor="middle" x="3985" y="-62.6" font-family="Times,serif" font-size="14.00">SemanticRelEditorComponent</text>
</g>
<!-- SemanticRelEditorComponent&#45;&gt;AppModule -->
<g id="edge16" class="edge">
<title>SemanticRelEditorComponent&#45;&gt;AppModule</title>
<path fill="none" stroke="black" d="M3985,-84.92C3985,-99.58 3985,-117.8 3985,-117.8 3985,-117.8 3518.95,-117.8 3518.95,-117.8"/>
<polygon fill="black" stroke="black" points="3518.95,-114.3 3508.95,-117.8 3518.95,-121.3 3518.95,-114.3"/>
</g>
<!-- SemanticRelIndirectComponent -->
<g id="node17" class="node">
<title>SemanticRelIndirectComponent</title>
<polygon fill="#ffffb3" stroke="black" points="3873.4,-84.8 3676.6,-84.8 3676.6,-48.8 3873.4,-48.8 3873.4,-84.8"/>
<text text-anchor="middle" x="3775" y="-62.6" font-family="Times,serif" font-size="14.00">SemanticRelIndirectComponent</text>
</g>
<!-- SemanticRelIndirectComponent&#45;&gt;AppModule -->
<g id="edge17" class="edge">
<title>SemanticRelIndirectComponent&#45;&gt;AppModule</title>
<path fill="none" stroke="black" d="M3775,-85.05C3775,-98.98 3775,-115.8 3775,-115.8 3775,-115.8 3518.86,-115.8 3518.86,-115.8"/>
<polygon fill="black" stroke="black" points="3518.86,-112.3 3508.86,-115.8 3518.86,-119.3 3518.86,-112.3"/>
</g>
<!-- SenseCoreEditorComponent -->
<g id="node18" class="node">
<title>SenseCoreEditorComponent</title>
<polygon fill="#ffffb3" stroke="black" points="3659.2,-84.8 3482.8,-84.8 3482.8,-48.8 3659.2,-48.8 3659.2,-84.8"/>
<text text-anchor="middle" x="3571" y="-62.6" font-family="Times,serif" font-size="14.00">SenseCoreEditorComponent</text>
</g>
<!-- SenseCoreEditorComponent&#45;&gt;AppModule -->
<g id="edge18" class="edge">
<title>SenseCoreEditorComponent&#45;&gt;AppModule</title>
<path fill="none" stroke="black" d="M3495.87,-84.91C3495.87,-84.91 3495.87,-103.79 3495.87,-103.79"/>
<polygon fill="black" stroke="black" points="3492.37,-103.79 3495.87,-113.79 3499.37,-103.79 3492.37,-103.79"/>
</g>
<!-- SenseMetadataEditorComponent -->
<g id="node19" class="node">
<title>SenseMetadataEditorComponent</title>
<polygon fill="#ffffb3" stroke="black" points="3464.57,-84.8 3263.43,-84.8 3263.43,-48.8 3464.57,-48.8 3464.57,-84.8"/>
<text text-anchor="middle" x="3364" y="-62.6" font-family="Times,serif" font-size="14.00">SenseMetadataEditorComponent</text>
</g>
<!-- SenseMetadataEditorComponent&#45;&gt;AppModule -->
<g id="edge19" class="edge">
<title>SenseMetadataEditorComponent&#45;&gt;AppModule</title>
<path fill="none" stroke="black" d="M3444.85,-84.91C3444.85,-84.91 3444.85,-103.79 3444.85,-103.79"/>
<polygon fill="black" stroke="black" points="3441.35,-103.79 3444.85,-113.79 3448.35,-103.79 3441.35,-103.79"/>
</g>
<!-- TabsFormComponent -->
<g id="node20" class="node">
<title>TabsFormComponent</title>
<polygon fill="#ffffb3" stroke="black" points="3245.38,-84.8 3106.62,-84.8 3106.62,-48.8 3245.38,-48.8 3245.38,-84.8"/>
<text text-anchor="middle" x="3176" y="-62.6" font-family="Times,serif" font-size="14.00">TabsFormComponent</text>
</g>
<!-- TabsFormComponent&#45;&gt;AppModule -->
<g id="edge20" class="edge">
<title>TabsFormComponent&#45;&gt;AppModule</title>
<path fill="none" stroke="black" d="M3176,-85.05C3176,-98.98 3176,-115.8 3176,-115.8 3176,-115.8 3415.31,-115.8 3415.31,-115.8"/>
<polygon fill="black" stroke="black" points="3415.31,-119.3 3425.31,-115.8 3415.31,-112.3 3415.31,-119.3"/>
</g>
<!-- TabsLexicalEntryComponent -->
<g id="node21" class="node">
<title>TabsLexicalEntryComponent</title>
<polygon fill="#ffffb3" stroke="black" points="3088.62,-84.8 2907.38,-84.8 2907.38,-48.8 3088.62,-48.8 3088.62,-84.8"/>
<text text-anchor="middle" x="2998" y="-62.6" font-family="Times,serif" font-size="14.00">TabsLexicalEntryComponent</text>
</g>
<!-- TabsLexicalEntryComponent&#45;&gt;AppModule -->
<g id="edge21" class="edge">
<title>TabsLexicalEntryComponent&#45;&gt;AppModule</title>
<path fill="none" stroke="black" d="M2998,-84.92C2998,-99.58 2998,-117.8 2998,-117.8 2998,-117.8 3414.97,-117.8 3414.97,-117.8"/>
<polygon fill="black" stroke="black" points="3414.97,-121.3 3424.97,-117.8 3414.97,-114.3 3414.97,-121.3"/>
</g>
<!-- TabsSenseComponent -->
<g id="node22" class="node">
<title>TabsSenseComponent</title>
<polygon fill="#ffffb3" stroke="black" points="2889.71,-84.8 2748.29,-84.8 2748.29,-48.8 2889.71,-48.8 2889.71,-84.8"/>
<text text-anchor="middle" x="2819" y="-62.6" font-family="Times,serif" font-size="14.00">TabsSenseComponent</text>
</g>
<!-- TabsSenseComponent&#45;&gt;AppModule -->
<g id="edge22" class="edge">
<title>TabsSenseComponent&#45;&gt;AppModule</title>
<path fill="none" stroke="black" d="M2819,-85.04C2819,-100.37 2819,-119.8 2819,-119.8 2819,-119.8 3414.98,-119.8 3414.98,-119.8"/>
<polygon fill="black" stroke="black" points="3414.98,-123.3 3424.98,-119.8 3414.98,-116.3 3414.98,-123.3"/>
</g>
<!-- TextAnnotationEditorComponent -->
<g id="node23" class="node">
<title>TextAnnotationEditorComponent</title>
<polygon fill="#ffffb3" stroke="black" points="2730.47,-84.8 2525.53,-84.8 2525.53,-48.8 2730.47,-48.8 2730.47,-84.8"/>
<text text-anchor="middle" x="2628" y="-62.6" font-family="Times,serif" font-size="14.00">TextAnnotationEditorComponent</text>
</g>
<!-- TextAnnotationEditorComponent&#45;&gt;AppModule -->
<g id="edge23" class="edge">
<title>TextAnnotationEditorComponent&#45;&gt;AppModule</title>
<path fill="none" stroke="black" d="M2628,-84.81C2628,-100.85 2628,-121.8 2628,-121.8 2628,-121.8 3415.11,-121.8 3415.11,-121.8"/>
<polygon fill="black" stroke="black" points="3415.11,-125.3 3425.11,-121.8 3415.11,-118.3 3415.11,-125.3"/>
</g>
<!-- WorkspaceComponent -->
<g id="node24" class="node">
<title>WorkspaceComponent</title>
<polygon fill="#ffffb3" stroke="black" points="2507.3,-84.8 2362.7,-84.8 2362.7,-48.8 2507.3,-48.8 2507.3,-84.8"/>
<text text-anchor="middle" x="2435" y="-62.6" font-family="Times,serif" font-size="14.00">WorkspaceComponent</text>
</g>
<!-- WorkspaceComponent&#45;&gt;AppModule -->
<g id="edge24" class="edge">
<title>WorkspaceComponent&#45;&gt;AppModule</title>
<path fill="none" stroke="black" d="M2435,-84.84C2435,-101.53 2435,-123.8 2435,-123.8 2435,-123.8 3415.27,-123.8 3415.27,-123.8"/>
<polygon fill="black" stroke="black" points="3415.27,-127.3 3425.27,-123.8 3415.27,-120.3 3415.27,-127.3"/>
</g>
<!-- WorkspaceCorpusExplorerComponent -->
<g id="node25" class="node">
<title>WorkspaceCorpusExplorerComponent</title>
<polygon fill="#ffffb3" stroke="black" points="2344.72,-84.8 2111.28,-84.8 2111.28,-48.8 2344.72,-48.8 2344.72,-84.8"/>
<text text-anchor="middle" x="2228" y="-62.6" font-family="Times,serif" font-size="14.00">WorkspaceCorpusExplorerComponent</text>
</g>
<!-- WorkspaceCorpusExplorerComponent&#45;&gt;AppModule -->
<g id="edge25" class="edge">
<title>WorkspaceCorpusExplorerComponent&#45;&gt;AppModule</title>
<path fill="none" stroke="black" d="M2228,-84.82C2228,-102.17 2228,-125.8 2228,-125.8 2228,-125.8 3415.07,-125.8 3415.07,-125.8"/>
<polygon fill="black" stroke="black" points="3415.07,-129.3 3425.07,-125.8 3415.07,-122.3 3415.07,-129.3"/>
</g>
<!-- WorkspaceLayoutComponent -->
<g id="node26" class="node">
<title>WorkspaceLayoutComponent</title>
<polygon fill="#ffffb3" stroke="black" points="2092.95,-84.8 1909.05,-84.8 1909.05,-48.8 2092.95,-48.8 2092.95,-84.8"/>
<text text-anchor="middle" x="2001" y="-62.6" font-family="Times,serif" font-size="14.00">WorkspaceLayoutComponent</text>
</g>
<!-- WorkspaceLayoutComponent&#45;&gt;AppModule -->
<g id="edge26" class="edge">
<title>WorkspaceLayoutComponent&#45;&gt;AppModule</title>
<path fill="none" stroke="black" d="M2001,-85.1C2001,-103.07 2001,-127.8 2001,-127.8 2001,-127.8 3415.1,-127.8 3415.1,-127.8"/>
<polygon fill="black" stroke="black" points="3415.1,-131.3 3425.1,-127.8 3415.1,-124.3 3415.1,-131.3"/>
</g>
<!-- WorkspaceLexiconEditTileComponent -->
<g id="node27" class="node">
<title>WorkspaceLexiconEditTileComponent</title>
<polygon fill="#ffffb3" stroke="black" points="1891.04,-84.8 1654.96,-84.8 1654.96,-48.8 1891.04,-48.8 1891.04,-84.8"/>
<text text-anchor="middle" x="1773" y="-62.6" font-family="Times,serif" font-size="14.00">WorkspaceLexiconEditTileComponent</text>
</g>
<!-- WorkspaceLexiconEditTileComponent&#45;&gt;AppModule -->
<g id="edge27" class="edge">
<title>WorkspaceLexiconEditTileComponent&#45;&gt;AppModule</title>
<path fill="none" stroke="black" d="M1773,-85.02C1773,-103.63 1773,-129.8 1773,-129.8 1773,-129.8 3415.13,-129.8 3415.13,-129.8"/>
<polygon fill="black" stroke="black" points="3415.13,-133.3 3425.13,-129.8 3415.13,-126.3 3415.13,-133.3"/>
</g>
<!-- WorkspaceLexiconTileComponent -->
<g id="node28" class="node">
<title>WorkspaceLexiconTileComponent</title>
<polygon fill="#ffffb3" stroke="black" points="1637.21,-84.8 1424.79,-84.8 1424.79,-48.8 1637.21,-48.8 1637.21,-84.8"/>
<text text-anchor="middle" x="1531" y="-62.6" font-family="Times,serif" font-size="14.00">WorkspaceLexiconTileComponent</text>
</g>
<!-- WorkspaceLexiconTileComponent&#45;&gt;AppModule -->
<g id="edge28" class="edge">
<title>WorkspaceLexiconTileComponent&#45;&gt;AppModule</title>
<path fill="none" stroke="black" d="M1531,-84.91C1531,-104.14 1531,-131.8 1531,-131.8 1531,-131.8 3415.22,-131.8 3415.22,-131.8"/>
<polygon fill="black" stroke="black" points="3415.22,-135.3 3425.22,-131.8 3415.22,-128.3 3415.22,-135.3"/>
</g>
<!-- WorkspaceListComponent -->
<g id="node29" class="node">
<title>WorkspaceListComponent</title>
<polygon fill="#ffffb3" stroke="black" points="1407.08,-84.8 1240.92,-84.8 1240.92,-48.8 1407.08,-48.8 1407.08,-84.8"/>
<text text-anchor="middle" x="1324" y="-62.6" font-family="Times,serif" font-size="14.00">WorkspaceListComponent</text>
</g>
<!-- WorkspaceListComponent&#45;&gt;AppModule -->
<g id="edge29" class="edge">
<title>WorkspaceListComponent&#45;&gt;AppModule</title>
<path fill="none" stroke="black" d="M1324,-85.11C1324,-104.95 1324,-133.8 1324,-133.8 1324,-133.8 3415.15,-133.8 3415.15,-133.8"/>
<polygon fill="black" stroke="black" points="3415.15,-137.3 3425.15,-133.8 3415.15,-130.3 3415.15,-137.3"/>
</g>
<!-- WorkspaceMenuComponent -->
<g id="node30" class="node">
<title>WorkspaceMenuComponent</title>
<polygon fill="#ffffb3" stroke="black" points="1222.46,-84.8 1045.54,-84.8 1045.54,-48.8 1222.46,-48.8 1222.46,-84.8"/>
<text text-anchor="middle" x="1134" y="-62.6" font-family="Times,serif" font-size="14.00">WorkspaceMenuComponent</text>
</g>
<!-- WorkspaceMenuComponent&#45;&gt;AppModule -->
<g id="edge30" class="edge">
<title>WorkspaceMenuComponent&#45;&gt;AppModule</title>
<path fill="none" stroke="black" d="M1134,-84.93C1134,-105.37 1134,-135.8 1134,-135.8 1134,-135.8 3415.02,-135.8 3415.02,-135.8"/>
<polygon fill="black" stroke="black" points="3415.02,-139.3 3425.02,-135.8 3415.02,-132.3 3415.02,-139.3"/>
</g>
<!-- WorkspaceTextSelectorComponent -->
<g id="node31" class="node">
<title>WorkspaceTextSelectorComponent</title>
<polygon fill="#ffffb3" stroke="black" points="1027.82,-84.8 812.18,-84.8 812.18,-48.8 1027.82,-48.8 1027.82,-84.8"/>
<text text-anchor="middle" x="920" y="-62.6" font-family="Times,serif" font-size="14.00">WorkspaceTextSelectorComponent</text>
</g>
<!-- WorkspaceTextSelectorComponent&#45;&gt;AppModule -->
<g id="edge31" class="edge">
<title>WorkspaceTextSelectorComponent&#45;&gt;AppModule</title>
<path fill="none" stroke="black" d="M920,-85.08C920,-106.12 920,-137.8 920,-137.8 920,-137.8 3415.18,-137.8 3415.18,-137.8"/>
<polygon fill="black" stroke="black" points="3415.18,-141.3 3425.18,-137.8 3415.18,-134.3 3415.18,-141.3"/>
</g>
<!-- WorkspaceTextWindowComponent -->
<g id="node32" class="node">
<title>WorkspaceTextWindowComponent</title>
<polygon fill="#ffffb3" stroke="black" points="794.17,-84.8 575.83,-84.8 575.83,-48.8 794.17,-48.8 794.17,-84.8"/>
<text text-anchor="middle" x="685" y="-62.6" font-family="Times,serif" font-size="14.00">WorkspaceTextWindowComponent</text>
</g>
<!-- WorkspaceTextWindowComponent&#45;&gt;AppModule -->
<g id="edge32" class="edge">
<title>WorkspaceTextWindowComponent&#45;&gt;AppModule</title>
<path fill="none" stroke="black" d="M685,-84.84C685,-106.46 685,-139.8 685,-139.8 685,-139.8 3415.24,-139.8 3415.24,-139.8"/>
<polygon fill="black" stroke="black" points="3415.24,-143.3 3425.24,-139.8 3415.24,-136.3 3415.24,-143.3"/>
</g>
<!-- AppComponent  -->
<g id="node37" class="node">
<title>AppComponent </title>
<polygon fill="#80b1d3" stroke="black" points="3521.44,-214.8 3412.56,-214.8 3412.56,-178.8 3521.44,-178.8 3521.44,-214.8"/>
<text text-anchor="middle" x="3467" y="-192.6" font-family="Times,serif" font-size="14.00">AppComponent </text>
</g>
<!-- AppModule&#45;&gt;AppComponent  -->
<g id="edge36" class="edge">
<title>AppModule&#45;&gt;AppComponent </title>
<path fill="none" stroke="black" stroke-dasharray="1,5" d="M3467,-149.91C3467,-149.91 3467,-168.79 3467,-168.79"/>
<polygon fill="black" stroke="black" points="3463.5,-168.79 3467,-178.79 3470.5,-168.79 3463.5,-168.79"/>
</g>
<!-- AppRoutingModule -->
<g id="node34" class="node">
<title>AppRoutingModule</title>
<polygon fill="#8dd3c7" stroke="black" points="552.28,-84.8 549.28,-88.8 528.28,-88.8 525.28,-84.8 423.72,-84.8 423.72,-48.8 552.28,-48.8 552.28,-84.8"/>
<text text-anchor="middle" x="488" y="-62.6" font-family="Times,serif" font-size="14.00">AppRoutingModule</text>
</g>
<!-- AppRoutingModule&#45;&gt;AppModule -->
<g id="edge33" class="edge">
<title>AppRoutingModule&#45;&gt;AppModule</title>
<path fill="none" stroke="black" d="M488,-84.96C488,-107.15 488,-141.8 488,-141.8 488,-141.8 3415.17,-141.8 3415.17,-141.8"/>
<polygon fill="black" stroke="black" points="3415.17,-145.3 3425.17,-141.8 3415.17,-138.3 3415.17,-145.3"/>
</g>
<!-- IconsModule -->
<g id="node35" class="node">
<title>IconsModule</title>
<polygon fill="#8dd3c7" stroke="black" points="405.88,-84.8 402.88,-88.8 381.88,-88.8 378.88,-84.8 316.12,-84.8 316.12,-48.8 405.88,-48.8 405.88,-84.8"/>
<text text-anchor="middle" x="361" y="-62.6" font-family="Times,serif" font-size="14.00">IconsModule</text>
</g>
<!-- IconsModule&#45;&gt;AppModule -->
<g id="edge34" class="edge">
<title>IconsModule&#45;&gt;AppModule</title>
<path fill="none" stroke="black" d="M361,-85.05C361,-107.82 361,-143.8 361,-143.8 361,-143.8 3415.15,-143.8 3415.15,-143.8"/>
<polygon fill="black" stroke="black" points="3415.15,-147.3 3425.15,-143.8 3415.15,-140.3 3415.15,-147.3"/>
</g>
<!-- SharedModule -->
<g id="node36" class="node">
<title>SharedModule</title>
<polygon fill="#8dd3c7" stroke="black" points="298.43,-84.8 295.43,-88.8 274.43,-88.8 271.43,-84.8 199.57,-84.8 199.57,-48.8 298.43,-48.8 298.43,-84.8"/>
<text text-anchor="middle" x="249" y="-62.6" font-family="Times,serif" font-size="14.00">SharedModule</text>
</g>
<!-- SharedModule&#45;&gt;AppModule -->
<g id="edge35" class="edge">
<title>SharedModule&#45;&gt;AppModule</title>
<path fill="none" stroke="black" d="M249,-85.12C249,-108.46 249,-145.8 249,-145.8 249,-145.8 3415.14,-145.8 3415.14,-145.8"/>
<polygon fill="black" stroke="black" points="3415.14,-149.3 3425.14,-145.8 3415.14,-142.3 3415.14,-149.3"/>
</g>
<!-- CommonService -->
<g id="node38" class="node">
<title>CommonService</title>
<ellipse fill="#fdb462" stroke="black" cx="100" cy="-66.8" rx="75.89" ry="18"/>
<text text-anchor="middle" x="100" y="-62.6" font-family="Times,serif" font-size="14.00">CommonService</text>
</g>
<!-- CommonService&#45;&gt;AppModule -->
<g id="edge37" class="edge">
<title>CommonService&#45;&gt;AppModule</title>
<path fill="none" stroke="black" d="M100,-85.18C100,-109.08 100,-147.8 100,-147.8 100,-147.8 3415.04,-147.8 3415.04,-147.8"/>
<polygon fill="black" stroke="black" points="3415.04,-151.3 3425.04,-147.8 3415.04,-144.3 3415.04,-151.3"/>
</g>
</g>
</svg>
