<?xml version="1.0" encoding="UTF-8" standalone="no"?>
<!DOCTYPE svg PUBLIC "-//W3C//DTD SVG 1.1//EN"
 "http://www.w3.org/Graphics/SVG/1.1/DTD/svg11.dtd">
<!-- Generated by graphviz version 5.0.0 (20220707.1540)
 -->
<!-- Title: dependencies Pages: 1 -->
<svg width="5252pt" height="247pt"
 viewBox="0.00 0.00 5252.00 246.80" xmlns="http://www.w3.org/2000/svg" xmlns:xlink="http://www.w3.org/1999/xlink">
<g id="graph0" class="graph" transform="scale(1 1) rotate(0) translate(4 242.8)">
<title>dependencies</title>
<polygon fill="white" stroke="transparent" points="-4,4 -4,-242.8 5248,-242.8 5248,4 -4,4"/>
<text text-anchor="middle" x="2622" y="-8.2" font-family="sans-serif" font-size="14.00">dependencies</text>
<g id="clust1" class="cluster">
<title>cluster_AppModule</title>
<polygon fill="none" stroke="black" stroke-dasharray="1,5" points="8,-32.8 8,-230.8 5236,-230.8 5236,-32.8 8,-32.8"/>
</g>
<g id="clust29" class="cluster">
<title>cluster_AppModule_bootstrap</title>
<polygon fill="none" stroke="black" points="2725,-170.8 2725,-222.8 2849,-222.8 2849,-170.8 2725,-170.8"/>
</g>
<g id="clust2" class="cluster">
<title>cluster_AppModule_declarations</title>
<polygon fill="none" stroke="black" points="597,-40.8 597,-92.8 5228,-92.8 5228,-40.8 597,-40.8"/>
</g>
<g id="clust30" class="cluster">
<title>cluster_AppModule_providers</title>
<polygon fill="none" stroke="black" points="421,-40.8 421,-92.8 589,-92.8 589,-40.8 421,-40.8"/>
</g>
<g id="clust27" class="cluster">
<title>cluster_AppModule_imports</title>
<polygon fill="none" stroke="black" points="16,-40.8 16,-92.8 413,-92.8 413,-40.8 16,-40.8"/>
</g>
<!-- AnnotationEditorComponent -->
<g id="node1" class="node">
<title>AnnotationEditorComponent</title>
<polygon fill="#ffffb3" stroke="black" points="5219.82,-84.8 5040.18,-84.8 5040.18,-48.8 5219.82,-48.8 5219.82,-84.8"/>
<text text-anchor="middle" x="5130" y="-62.6" font-family="Times,serif" font-size="14.00">AnnotationEditorComponent</text>
</g>
<!-- AppModule -->
<g id="node25" class="node">
<title>AppModule</title>
<polygon fill="#8dd3c7" stroke="black" points="2828.66,-149.8 2825.66,-153.8 2804.66,-153.8 2801.66,-149.8 2745.34,-149.8 2745.34,-113.8 2828.66,-113.8 2828.66,-149.8"/>
<text text-anchor="middle" x="2787" y="-127.6" font-family="Times,serif" font-size="14.00">AppModule</text>
</g>
<!-- AnnotationEditorComponent&#45;&gt;AppModule -->
<g id="edge1" class="edge">
<title>AnnotationEditorComponent&#45;&gt;AppModule</title>
<path fill="none" stroke="black" d="M5130,-85.18C5130,-109.08 5130,-147.8 5130,-147.8 5130,-147.8 2838.91,-147.8 2838.91,-147.8"/>
<polygon fill="black" stroke="black" points="2838.91,-144.3 2828.91,-147.8 2838.91,-151.3 2838.91,-144.3"/>
</g>
<!-- AppComponent -->
<g id="node2" class="node">
<title>AppComponent</title>
<polygon fill="#ffffb3" stroke="black" points="5022.94,-84.8 4917.06,-84.8 4917.06,-48.8 5022.94,-48.8 5022.94,-84.8"/>
<text text-anchor="middle" x="4970" y="-62.6" font-family="Times,serif" font-size="14.00">AppComponent</text>
</g>
<!-- AppComponent&#45;&gt;AppModule -->
<g id="edge2" class="edge">
<title>AppComponent&#45;&gt;AppModule</title>
<path fill="none" stroke="black" d="M4970,-84.89C4970,-107.93 4970,-144.8 4970,-144.8 4970,-144.8 2839.14,-144.8 2839.14,-144.8"/>
<polygon fill="black" stroke="black" points="2839.14,-141.3 2829.14,-144.8 2839.14,-148.3 2839.14,-141.3"/>
</g>
<!-- LayersListComponent -->
<g id="node3" class="node">
<title>LayersListComponent</title>
<polygon fill="#ffffb3" stroke="black" points="4899.7,-84.8 4758.3,-84.8 4758.3,-48.8 4899.7,-48.8 4899.7,-84.8"/>
<text text-anchor="middle" x="4829" y="-62.6" font-family="Times,serif" font-size="14.00">LayersListComponent</text>
</g>
<!-- LayersListComponent&#45;&gt;AppModule -->
<g id="edge3" class="edge">
<title>LayersListComponent&#45;&gt;AppModule</title>
<path fill="none" stroke="black" d="M4829,-84.81C4829,-107.29 4829,-142.8 4829,-142.8 4829,-142.8 2838.72,-142.8 2838.72,-142.8"/>
<polygon fill="black" stroke="black" points="2838.72,-139.3 2828.72,-142.8 2838.72,-146.3 2838.72,-139.3"/>
</g>
<!-- LayersViewComponent -->
<g id="node4" class="node">
<title>LayersViewComponent</title>
<polygon fill="#ffffb3" stroke="black" points="4740.75,-84.8 4591.25,-84.8 4591.25,-48.8 4740.75,-48.8 4740.75,-84.8"/>
<text text-anchor="middle" x="4666" y="-62.6" font-family="Times,serif" font-size="14.00">LayersViewComponent</text>
</g>
<!-- LayersViewComponent&#45;&gt;AppModule -->
<g id="edge4" class="edge">
<title>LayersViewComponent&#45;&gt;AppModule</title>
<path fill="none" stroke="black" d="M4666,-84.84C4666,-106.46 4666,-139.8 4666,-139.8 4666,-139.8 2838.88,-139.8 2838.88,-139.8"/>
<polygon fill="black" stroke="black" points="2838.88,-136.3 2828.88,-139.8 2838.88,-143.3 2838.88,-136.3"/>
</g>
<!-- MainLayoutComponent -->
<g id="node5" class="node">
<title>MainLayoutComponent</title>
<polygon fill="#ffffb3" stroke="black" points="4573.04,-84.8 4422.96,-84.8 4422.96,-48.8 4573.04,-48.8 4573.04,-84.8"/>
<text text-anchor="middle" x="4498" y="-62.6" font-family="Times,serif" font-size="14.00">MainLayoutComponent</text>
</g>
<!-- MainLayoutComponent&#45;&gt;AppModule -->
<g id="edge5" class="edge">
<title>MainLayoutComponent&#45;&gt;AppModule</title>
<path fill="none" stroke="black" d="M4498,-85.08C4498,-106.12 4498,-137.8 4498,-137.8 4498,-137.8 2838.87,-137.8 2838.87,-137.8"/>
<polygon fill="black" stroke="black" points="2838.87,-134.3 2828.87,-137.8 2838.87,-141.3 2838.87,-134.3"/>
</g>
<!-- NotDuplicateNameDirective -->
<g id="node6" class="node">
<title>NotDuplicateNameDirective</title>
<polygon fill="#ffffb3" stroke="black" points="4404.43,-84.8 4227.57,-84.8 4227.57,-48.8 4404.43,-48.8 4404.43,-84.8"/>
<text text-anchor="middle" x="4316" y="-62.6" font-family="Times,serif" font-size="14.00">NotDuplicateNameDirective</text>
</g>
<!-- NotDuplicateNameDirective&#45;&gt;AppModule -->
<g id="edge6" class="edge">
<title>NotDuplicateNameDirective&#45;&gt;AppModule</title>
<path fill="none" stroke="black" d="M4316,-85.02C4316,-105.17 4316,-134.8 4316,-134.8 4316,-134.8 2838.69,-134.8 2838.69,-134.8"/>
<polygon fill="black" stroke="black" points="2838.69,-131.3 2828.69,-134.8 2838.69,-138.3 2838.69,-131.3"/>
</g>
<!-- PopupDeleteItemComponent -->
<g id="node7" class="node">
<title>PopupDeleteItemComponent</title>
<polygon fill="#ffffb3" stroke="black" points="4209.8,-84.8 4030.2,-84.8 4030.2,-48.8 4209.8,-48.8 4209.8,-84.8"/>
<text text-anchor="middle" x="4120" y="-62.6" font-family="Times,serif" font-size="14.00">PopupDeleteItemComponent</text>
</g>
<!-- PopupDeleteItemComponent&#45;&gt;AppModule -->
<g id="edge7" class="edge">
<title>PopupDeleteItemComponent&#45;&gt;AppModule</title>
<path fill="none" stroke="black" d="M4120,-84.91C4120,-104.14 4120,-131.8 4120,-131.8 4120,-131.8 2838.72,-131.8 2838.72,-131.8"/>
<polygon fill="black" stroke="black" points="2838.72,-128.3 2828.72,-131.8 2838.72,-135.3 2838.72,-128.3"/>
</g>
<!-- RelationEditorComponent -->
<g id="node8" class="node">
<title>RelationEditorComponent</title>
<polygon fill="#ffffb3" stroke="black" points="4011.76,-84.8 3848.24,-84.8 3848.24,-48.8 4011.76,-48.8 4011.76,-84.8"/>
<text text-anchor="middle" x="3930" y="-62.6" font-family="Times,serif" font-size="14.00">RelationEditorComponent</text>
</g>
<!-- RelationEditorComponent&#45;&gt;AppModule -->
<g id="edge8" class="edge">
<title>RelationEditorComponent&#45;&gt;AppModule</title>
<path fill="none" stroke="black" d="M3930,-85.02C3930,-103.63 3930,-129.8 3930,-129.8 3930,-129.8 2838.69,-129.8 2838.69,-129.8"/>
<polygon fill="black" stroke="black" points="2838.69,-126.3 2828.69,-129.8 2838.69,-133.3 2838.69,-126.3"/>
</g>
<!-- TagsetCreateEditComponent -->
<g id="node9" class="node">
<title>TagsetCreateEditComponent</title>
<polygon fill="#ffffb3" stroke="black" points="3830.01,-84.8 3651.99,-84.8 3651.99,-48.8 3830.01,-48.8 3830.01,-84.8"/>
<text text-anchor="middle" x="3741" y="-62.6" font-family="Times,serif" font-size="14.00">TagsetCreateEditComponent</text>
</g>
<!-- TagsetCreateEditComponent&#45;&gt;AppModule -->
<g id="edge9" class="edge">
<title>TagsetCreateEditComponent&#45;&gt;AppModule</title>
<path fill="none" stroke="black" d="M3741,-84.8C3741,-102.48 3741,-126.8 3741,-126.8 3741,-126.8 2838.91,-126.8 2838.91,-126.8"/>
<polygon fill="black" stroke="black" points="2838.91,-123.3 2828.91,-126.8 2838.91,-130.3 2838.91,-123.3"/>
</g>
<!-- TagsetValueNotDuplicateNameDirective -->
<g id="node10" class="node">
<title>TagsetValueNotDuplicateNameDirective</title>
<polygon fill="#ffffb3" stroke="black" points="3633.68,-84.8 3386.32,-84.8 3386.32,-48.8 3633.68,-48.8 3633.68,-84.8"/>
<text text-anchor="middle" x="3510" y="-62.6" font-family="Times,serif" font-size="14.00">TagsetValueNotDuplicateNameDirective</text>
</g>
<!-- TagsetValueNotDuplicateNameDirective&#45;&gt;AppModule -->
<g id="edge10" class="edge">
<title>TagsetValueNotDuplicateNameDirective&#45;&gt;AppModule</title>
<path fill="none" stroke="black" d="M3510,-84.83C3510,-101.86 3510,-124.8 3510,-124.8 3510,-124.8 2838.73,-124.8 2838.73,-124.8"/>
<polygon fill="black" stroke="black" points="2838.73,-121.3 2828.73,-124.8 2838.73,-128.3 2838.73,-121.3"/>
</g>
<!-- TagsetsListComponent -->
<g id="node11" class="node">
<title>TagsetsListComponent</title>
<polygon fill="#ffffb3" stroke="black" points="3367.88,-84.8 3222.12,-84.8 3222.12,-48.8 3367.88,-48.8 3367.88,-84.8"/>
<text text-anchor="middle" x="3295" y="-62.6" font-family="Times,serif" font-size="14.00">TagsetsListComponent</text>
</g>
<!-- TagsetsListComponent&#45;&gt;AppModule -->
<g id="edge11" class="edge">
<title>TagsetsListComponent&#45;&gt;AppModule</title>
<path fill="none" stroke="black" d="M3295,-84.81C3295,-100.85 3295,-121.8 3295,-121.8 3295,-121.8 2839,-121.8 2839,-121.8"/>
<polygon fill="black" stroke="black" points="2839,-118.3 2829,-121.8 2839,-125.3 2839,-118.3"/>
</g>
<!-- UriValidator -->
<g id="node12" class="node">
<title>UriValidator</title>
<polygon fill="#ffffb3" stroke="black" points="3203.53,-84.8 3116.47,-84.8 3116.47,-48.8 3203.53,-48.8 3203.53,-84.8"/>
<text text-anchor="middle" x="3160" y="-62.6" font-family="Times,serif" font-size="14.00">UriValidator</text>
</g>
<!-- UriValidator&#45;&gt;AppModule -->
<g id="edge12" class="edge">
<title>UriValidator&#45;&gt;AppModule</title>
<path fill="none" stroke="black" d="M3160,-85.04C3160,-100.37 3160,-119.8 3160,-119.8 3160,-119.8 2838.7,-119.8 2838.7,-119.8"/>
<polygon fill="black" stroke="black" points="2838.7,-116.3 2828.7,-119.8 2838.7,-123.3 2838.7,-116.3"/>
</g>
<!-- UserFormComponent -->
<g id="node13" class="node">
<title>UserFormComponent</title>
<polygon fill="#ffffb3" stroke="black" points="3098.1,-84.8 2959.9,-84.8 2959.9,-48.8 3098.1,-48.8 3098.1,-84.8"/>
<text text-anchor="middle" x="3029" y="-62.6" font-family="Times,serif" font-size="14.00">UserFormComponent</text>
</g>
<!-- UserFormComponent&#45;&gt;AppModule -->
<g id="edge13" class="edge">
<title>UserFormComponent&#45;&gt;AppModule</title>
<path fill="none" stroke="black" d="M3029,-84.85C3029,-99.17 3029,-116.8 3029,-116.8 3029,-116.8 2838.88,-116.8 2838.88,-116.8"/>
<polygon fill="black" stroke="black" points="2838.88,-113.3 2828.88,-116.8 2838.88,-120.3 2838.88,-113.3"/>
</g>
<!-- UserListComponent -->
<g id="node14" class="node">
<title>UserListComponent</title>
<polygon fill="#ffffb3" stroke="black" points="2941.55,-84.8 2812.45,-84.8 2812.45,-48.8 2941.55,-48.8 2941.55,-84.8"/>
<text text-anchor="middle" x="2877" y="-62.6" font-family="Times,serif" font-size="14.00">UserListComponent</text>
</g>
<!-- UserListComponent&#45;&gt;AppModule -->
<g id="edge14" class="edge">
<title>UserListComponent&#45;&gt;AppModule</title>
<path fill="none" stroke="black" d="M2820.53,-84.91C2820.53,-84.91 2820.53,-103.79 2820.53,-103.79"/>
<polygon fill="black" stroke="black" points="2817.03,-103.79 2820.53,-113.79 2824.03,-103.79 2817.03,-103.79"/>
</g>
<!-- WhitespacesValidatorDirective -->
<g id="node15" class="node">
<title>WhitespacesValidatorDirective</title>
<polygon fill="#ffffb3" stroke="black" points="2793.7,-84.8 2602.3,-84.8 2602.3,-48.8 2793.7,-48.8 2793.7,-84.8"/>
<text text-anchor="middle" x="2698" y="-62.6" font-family="Times,serif" font-size="14.00">WhitespacesValidatorDirective</text>
</g>
<!-- WhitespacesValidatorDirective&#45;&gt;AppModule -->
<g id="edge15" class="edge">
<title>WhitespacesValidatorDirective&#45;&gt;AppModule</title>
<path fill="none" stroke="black" d="M2769.51,-84.91C2769.51,-84.91 2769.51,-103.79 2769.51,-103.79"/>
<polygon fill="black" stroke="black" points="2766.01,-103.79 2769.51,-113.79 2773.01,-103.79 2766.01,-103.79"/>
</g>
<!-- WorkspaceComponent -->
<g id="node16" class="node">
<title>WorkspaceComponent</title>
<polygon fill="#ffffb3" stroke="black" points="2584.3,-84.8 2439.7,-84.8 2439.7,-48.8 2584.3,-48.8 2584.3,-84.8"/>
<text text-anchor="middle" x="2512" y="-62.6" font-family="Times,serif" font-size="14.00">WorkspaceComponent</text>
</g>
<!-- WorkspaceComponent&#45;&gt;AppModule -->
<g id="edge16" class="edge">
<title>WorkspaceComponent&#45;&gt;AppModule</title>
<path fill="none" stroke="black" d="M2512,-84.85C2512,-99.17 2512,-116.8 2512,-116.8 2512,-116.8 2735.23,-116.8 2735.23,-116.8"/>
<polygon fill="black" stroke="black" points="2735.23,-120.3 2745.23,-116.8 2735.23,-113.3 2735.23,-120.3"/>
</g>
<!-- WorkspaceCorpusExplorerComponent -->
<g id="node17" class="node">
<title>WorkspaceCorpusExplorerComponent</title>
<polygon fill="#ffffb3" stroke="black" points="2421.72,-84.8 2188.28,-84.8 2188.28,-48.8 2421.72,-48.8 2421.72,-84.8"/>
<text text-anchor="middle" x="2305" y="-62.6" font-family="Times,serif" font-size="14.00">WorkspaceCorpusExplorerComponent</text>
</g>
<!-- WorkspaceCorpusExplorerComponent&#45;&gt;AppModule -->
<g id="edge17" class="edge">
<title>WorkspaceCorpusExplorerComponent&#45;&gt;AppModule</title>
<path fill="none" stroke="black" d="M2305,-85.04C2305,-100.37 2305,-119.8 2305,-119.8 2305,-119.8 2735.07,-119.8 2735.07,-119.8"/>
<polygon fill="black" stroke="black" points="2735.07,-123.3 2745.07,-119.8 2735.07,-116.3 2735.07,-123.3"/>
</g>
<!-- WorkspaceLayersVisibilityManagerComponent -->
<g id="node18" class="node">
<title>WorkspaceLayersVisibilityManagerComponent</title>
<polygon fill="#ffffb3" stroke="black" points="2170.54,-84.8 1885.46,-84.8 1885.46,-48.8 2170.54,-48.8 2170.54,-84.8"/>
<text text-anchor="middle" x="2028" y="-62.6" font-family="Times,serif" font-size="14.00">WorkspaceLayersVisibilityManagerComponent</text>
</g>
<!-- WorkspaceLayersVisibilityManagerComponent&#45;&gt;AppModule -->
<g id="edge18" class="edge">
<title>WorkspaceLayersVisibilityManagerComponent&#45;&gt;AppModule</title>
<path fill="none" stroke="black" d="M2028,-84.81C2028,-100.85 2028,-121.8 2028,-121.8 2028,-121.8 2735.11,-121.8 2735.11,-121.8"/>
<polygon fill="black" stroke="black" points="2735.11,-125.3 2745.11,-121.8 2735.11,-118.3 2735.11,-125.3"/>
</g>
<!-- WorkspaceLayoutComponent -->
<g id="node19" class="node">
<title>WorkspaceLayoutComponent</title>
<polygon fill="#ffffb3" stroke="black" points="1867.95,-84.8 1684.05,-84.8 1684.05,-48.8 1867.95,-48.8 1867.95,-84.8"/>
<text text-anchor="middle" x="1776" y="-62.6" font-family="Times,serif" font-size="14.00">WorkspaceLayoutComponent</text>
</g>
<!-- WorkspaceLayoutComponent&#45;&gt;AppModule -->
<g id="edge19" class="edge">
<title>WorkspaceLayoutComponent&#45;&gt;AppModule</title>
<path fill="none" stroke="black" d="M1776,-84.83C1776,-101.86 1776,-124.8 1776,-124.8 1776,-124.8 2735.16,-124.8 2735.16,-124.8"/>
<polygon fill="black" stroke="black" points="2735.16,-128.3 2745.16,-124.8 2735.16,-121.3 2735.16,-128.3"/>
</g>
<!-- WorkspaceLexiconTileComponent -->
<g id="node20" class="node">
<title>WorkspaceLexiconTileComponent</title>
<polygon fill="#ffffb3" stroke="black" points="1666.21,-84.8 1453.79,-84.8 1453.79,-48.8 1666.21,-48.8 1666.21,-84.8"/>
<text text-anchor="middle" x="1560" y="-62.6" font-family="Times,serif" font-size="14.00">WorkspaceLexiconTileComponent</text>
</g>
<!-- WorkspaceLexiconTileComponent&#45;&gt;AppModule -->
<g id="edge20" class="edge">
<title>WorkspaceLexiconTileComponent&#45;&gt;AppModule</title>
<path fill="none" stroke="black" d="M1560,-84.8C1560,-102.48 1560,-126.8 1560,-126.8 1560,-126.8 2735.12,-126.8 2735.12,-126.8"/>
<polygon fill="black" stroke="black" points="2735.12,-130.3 2745.12,-126.8 2735.12,-123.3 2735.12,-130.3"/>
</g>
<!-- WorkspaceListComponent -->
<g id="node21" class="node">
<title>WorkspaceListComponent</title>
<polygon fill="#ffffb3" stroke="black" points="1436.08,-84.8 1269.92,-84.8 1269.92,-48.8 1436.08,-48.8 1436.08,-84.8"/>
<text text-anchor="middle" x="1353" y="-62.6" font-family="Times,serif" font-size="14.00">WorkspaceListComponent</text>
</g>
<!-- WorkspaceListComponent&#45;&gt;AppModule -->
<g id="edge21" class="edge">
<title>WorkspaceListComponent&#45;&gt;AppModule</title>
<path fill="none" stroke="black" d="M1353,-85.02C1353,-103.63 1353,-129.8 1353,-129.8 1353,-129.8 2735.25,-129.8 2735.25,-129.8"/>
<polygon fill="black" stroke="black" points="2735.25,-133.3 2745.25,-129.8 2735.25,-126.3 2735.25,-133.3"/>
</g>
<!-- WorkspaceMenuComponent -->
<g id="node22" class="node">
<title>WorkspaceMenuComponent</title>
<polygon fill="#ffffb3" stroke="black" points="1251.46,-84.8 1074.54,-84.8 1074.54,-48.8 1251.46,-48.8 1251.46,-84.8"/>
<text text-anchor="middle" x="1163" y="-62.6" font-family="Times,serif" font-size="14.00">WorkspaceMenuComponent</text>
</g>
<!-- WorkspaceMenuComponent&#45;&gt;AppModule -->
<g id="edge22" class="edge">
<title>WorkspaceMenuComponent&#45;&gt;AppModule</title>
<path fill="none" stroke="black" d="M1163,-84.91C1163,-104.14 1163,-131.8 1163,-131.8 1163,-131.8 2735.22,-131.8 2735.22,-131.8"/>
<polygon fill="black" stroke="black" points="2735.22,-135.3 2745.22,-131.8 2735.22,-128.3 2735.22,-135.3"/>
</g>
<!-- WorkspaceTextSelectorComponent -->
<g id="node23" class="node">
<title>WorkspaceTextSelectorComponent</title>
<polygon fill="#ffffb3" stroke="black" points="1056.82,-84.8 841.18,-84.8 841.18,-48.8 1056.82,-48.8 1056.82,-84.8"/>
<text text-anchor="middle" x="949" y="-62.6" font-family="Times,serif" font-size="14.00">WorkspaceTextSelectorComponent</text>
</g>
<!-- WorkspaceTextSelectorComponent&#45;&gt;AppModule -->
<g id="edge23" class="edge">
<title>WorkspaceTextSelectorComponent&#45;&gt;AppModule</title>
<path fill="none" stroke="black" d="M949,-85.02C949,-105.17 949,-134.8 949,-134.8 949,-134.8 2735.16,-134.8 2735.16,-134.8"/>
<polygon fill="black" stroke="black" points="2735.16,-138.3 2745.16,-134.8 2735.16,-131.3 2735.16,-138.3"/>
</g>
<!-- WorkspaceTextWindowComponent -->
<g id="node24" class="node">
<title>WorkspaceTextWindowComponent</title>
<polygon fill="#ffffb3" stroke="black" points="823.17,-84.8 604.83,-84.8 604.83,-48.8 823.17,-48.8 823.17,-84.8"/>
<text text-anchor="middle" x="714" y="-62.6" font-family="Times,serif" font-size="14.00">WorkspaceTextWindowComponent</text>
</g>
<!-- WorkspaceTextWindowComponent&#45;&gt;AppModule -->
<g id="edge24" class="edge">
<title>WorkspaceTextWindowComponent&#45;&gt;AppModule</title>
<path fill="none" stroke="black" d="M714,-85.08C714,-106.12 714,-137.8 714,-137.8 714,-137.8 2735.12,-137.8 2735.12,-137.8"/>
<polygon fill="black" stroke="black" points="2735.12,-141.3 2745.12,-137.8 2735.12,-134.3 2735.12,-141.3"/>
</g>
<!-- AppComponent  -->
<g id="node29" class="node">
<title>AppComponent </title>
<polygon fill="#80b1d3" stroke="black" points="2841.44,-214.8 2732.56,-214.8 2732.56,-178.8 2841.44,-178.8 2841.44,-214.8"/>
<text text-anchor="middle" x="2787" y="-192.6" font-family="Times,serif" font-size="14.00">AppComponent </text>
</g>
<!-- AppModule&#45;&gt;AppComponent  -->
<g id="edge28" class="edge">
<title>AppModule&#45;&gt;AppComponent </title>
<path fill="none" stroke="black" stroke-dasharray="1,5" d="M2787,-149.91C2787,-149.91 2787,-168.79 2787,-168.79"/>
<polygon fill="black" stroke="black" points="2783.5,-168.79 2787,-178.79 2790.5,-168.79 2783.5,-168.79"/>
</g>
<!-- AppRoutingModule -->
<g id="node26" class="node">
<title>AppRoutingModule</title>
<polygon fill="#8dd3c7" stroke="black" points="405.28,-84.8 402.28,-88.8 381.28,-88.8 378.28,-84.8 276.72,-84.8 276.72,-48.8 405.28,-48.8 405.28,-84.8"/>
<text text-anchor="middle" x="341" y="-62.6" font-family="Times,serif" font-size="14.00">AppRoutingModule</text>
</g>
<!-- AppRoutingModule&#45;&gt;AppModule -->
<g id="edge25" class="edge">
<title>AppRoutingModule&#45;&gt;AppModule</title>
<path fill="none" stroke="black" d="M341,-84.81C341,-107.29 341,-142.8 341,-142.8 341,-142.8 2735.32,-142.8 2735.32,-142.8"/>
<polygon fill="black" stroke="black" points="2735.32,-146.3 2745.32,-142.8 2735.32,-139.3 2735.32,-146.3"/>
</g>
<!-- AuthConfigModule -->
<g id="node27" class="node">
<title>AuthConfigModule</title>
<polygon fill="#8dd3c7" stroke="black" points="258.44,-84.8 255.44,-88.8 234.44,-88.8 231.44,-84.8 131.56,-84.8 131.56,-48.8 258.44,-48.8 258.44,-84.8"/>
<text text-anchor="middle" x="195" y="-62.6" font-family="Times,serif" font-size="14.00">AuthConfigModule</text>
</g>
<!-- AuthConfigModule&#45;&gt;AppModule -->
<g id="edge26" class="edge">
<title>AuthConfigModule&#45;&gt;AppModule</title>
<path fill="none" stroke="black" d="M195,-84.89C195,-107.93 195,-144.8 195,-144.8 195,-144.8 2735.24,-144.8 2735.24,-144.8"/>
<polygon fill="black" stroke="black" points="2735.24,-148.3 2745.24,-144.8 2735.24,-141.3 2735.24,-148.3"/>
</g>
<!-- IconsModule -->
<g id="node28" class="node">
<title>IconsModule</title>
<polygon fill="#8dd3c7" stroke="black" points="113.88,-84.8 110.88,-88.8 89.88,-88.8 86.88,-84.8 24.12,-84.8 24.12,-48.8 113.88,-48.8 113.88,-84.8"/>
<text text-anchor="middle" x="69" y="-62.6" font-family="Times,serif" font-size="14.00">IconsModule</text>
</g>
<!-- IconsModule&#45;&gt;AppModule -->
<g id="edge27" class="edge">
<title>IconsModule&#45;&gt;AppModule</title>
<path fill="none" stroke="black" d="M69,-85.18C69,-109.08 69,-147.8 69,-147.8 69,-147.8 2735.12,-147.8 2735.12,-147.8"/>
<polygon fill="black" stroke="black" points="2735.12,-151.3 2745.12,-147.8 2735.12,-144.3 2735.12,-151.3"/>
</g>
<!-- CommonService -->
<g id="node30" class="node">
<title>CommonService</title>
<ellipse fill="#fdb462" stroke="black" cx="505" cy="-66.8" rx="75.89" ry="18"/>
<text text-anchor="middle" x="505" y="-62.6" font-family="Times,serif" font-size="14.00">CommonService</text>
</g>
<!-- CommonService&#45;&gt;AppModule -->
<g id="edge29" class="edge">
<title>CommonService&#45;&gt;AppModule</title>
<path fill="none" stroke="black" d="M505,-84.84C505,-106.46 505,-139.8 505,-139.8 505,-139.8 2734.95,-139.8 2734.95,-139.8"/>
<polygon fill="black" stroke="black" points="2734.95,-143.3 2744.95,-139.8 2734.95,-136.3 2734.95,-143.3"/>
</g>
</g>
</svg>
