<?xml version="1.0" encoding="UTF-8" standalone="no"?>
<!DOCTYPE svg PUBLIC "-//W3C//DTD SVG 1.1//EN"
 "http://www.w3.org/Graphics/SVG/1.1/DTD/svg11.dtd">
<!-- Generated by graphviz version 5.0.0 (20220707.1540)
 -->
<!-- Title: dependencies Pages: 1 -->
<svg width="723pt" height="247pt"
 viewBox="0.00 0.00 723.00 246.80" xmlns="http://www.w3.org/2000/svg" xmlns:xlink="http://www.w3.org/1999/xlink">
<g id="graph0" class="graph" transform="scale(1 1) rotate(0) translate(4 242.8)">
<title>dependencies</title>
<polygon fill="white" stroke="transparent" points="-4,4 -4,-242.8 719,-242.8 719,4 -4,4"/>
<text text-anchor="middle" x="357.5" y="-8.2" font-family="sans-serif" font-size="14.00">dependencies</text>
<g id="clust1" class="cluster">
<title>cluster_PageControllersModule</title>
<polygon fill="none" stroke="black" stroke-dasharray="1,5" points="8,-32.8 8,-230.8 707,-230.8 707,-32.8 8,-32.8"/>
</g>
<g id="clust7" class="cluster">
<title>cluster_PageControllersModule_imports</title>
<polygon fill="none" stroke="black" points="593,-40.8 593,-92.8 699,-92.8 699,-40.8 593,-40.8"/>
</g>
<g id="clust8" class="cluster">
<title>cluster_PageControllersModule_exports</title>
<polygon fill="none" stroke="black" points="66,-170.8 66,-222.8 649,-222.8 649,-170.8 66,-170.8"/>
</g>
<g id="clust2" class="cluster">
<title>cluster_PageControllersModule_declarations</title>
<polygon fill="none" stroke="black" points="16,-40.8 16,-92.8 585,-92.8 585,-40.8 16,-40.8"/>
</g>
<!-- FooterComponent -->
<g id="node1" class="node">
<title>FooterComponent</title>
<polygon fill="#ffffb3" stroke="black" points="576.88,-84.8 459.12,-84.8 459.12,-48.8 576.88,-48.8 576.88,-84.8"/>
<text text-anchor="middle" x="518" y="-62.6" font-family="Times,serif" font-size="14.00">FooterComponent</text>
</g>
<!-- PageControllersModule -->
<g id="node5" class="node">
<title>PageControllersModule</title>
<polygon fill="#8dd3c7" stroke="black" points="454.76,-149.8 451.76,-153.8 430.76,-153.8 427.76,-149.8 305.24,-149.8 305.24,-113.8 454.76,-113.8 454.76,-149.8"/>
<text text-anchor="middle" x="380" y="-127.6" font-family="Times,serif" font-size="14.00">PageControllersModule</text>
</g>
<!-- FooterComponent&#45;&gt;PageControllersModule -->
<g id="edge1" class="edge">
<title>FooterComponent&#45;&gt;PageControllersModule</title>
<path fill="none" stroke="black" d="M458.83,-66.8C452.26,-66.8 447.88,-66.8 447.88,-66.8 447.88,-66.8 447.88,-103.69 447.88,-103.69"/>
<polygon fill="black" stroke="black" points="444.38,-103.69 447.88,-113.69 451.38,-103.69 444.38,-103.69"/>
</g>
<!-- HeaderComponent -->
<g id="node2" class="node">
<title>HeaderComponent</title>
<polygon fill="#ffffb3" stroke="black" points="440.75,-84.8 319.25,-84.8 319.25,-48.8 440.75,-48.8 440.75,-84.8"/>
<text text-anchor="middle" x="380" y="-62.6" font-family="Times,serif" font-size="14.00">HeaderComponent</text>
</g>
<!-- HeaderComponent&#45;&gt;PageControllersModule -->
<g id="edge2" class="edge">
<title>HeaderComponent&#45;&gt;PageControllersModule</title>
<path fill="none" stroke="black" d="M380,-84.91C380,-84.91 380,-103.79 380,-103.79"/>
<polygon fill="black" stroke="black" points="376.5,-103.79 380,-113.79 383.5,-103.79 376.5,-103.79"/>
</g>
<!-- LoaderComponent -->
<g id="node3" class="node">
<title>LoaderComponent</title>
<polygon fill="#ffffb3" stroke="black" points="301.47,-84.8 180.53,-84.8 180.53,-48.8 301.47,-48.8 301.47,-84.8"/>
<text text-anchor="middle" x="241" y="-62.6" font-family="Times,serif" font-size="14.00">LoaderComponent</text>
</g>
<!-- LoaderComponent&#45;&gt;PageControllersModule -->
<g id="edge3" class="edge">
<title>LoaderComponent&#45;&gt;PageControllersModule</title>
<path fill="none" stroke="black" d="M301.63,-66.8C307.95,-66.8 312.12,-66.8 312.12,-66.8 312.12,-66.8 312.12,-103.69 312.12,-103.69"/>
<polygon fill="black" stroke="black" points="308.62,-103.69 312.12,-113.69 315.62,-103.69 308.62,-103.69"/>
</g>
<!-- SideMenuComponent -->
<g id="node4" class="node">
<title>SideMenuComponent</title>
<polygon fill="#ffffb3" stroke="black" points="162.38,-84.8 23.62,-84.8 23.62,-48.8 162.38,-48.8 162.38,-84.8"/>
<text text-anchor="middle" x="93" y="-62.6" font-family="Times,serif" font-size="14.00">SideMenuComponent</text>
</g>
<!-- SideMenuComponent&#45;&gt;PageControllersModule -->
<g id="edge4" class="edge">
<title>SideMenuComponent&#45;&gt;PageControllersModule</title>
<path fill="none" stroke="black" d="M118.12,-84.82C118.12,-102.17 118.12,-125.8 118.12,-125.8 118.12,-125.8 294.96,-125.8 294.96,-125.8"/>
<polygon fill="black" stroke="black" points="294.96,-129.3 304.96,-125.8 294.96,-122.3 294.96,-129.3"/>
</g>
<!-- FooterComponent  -->
<g id="node7" class="node">
<title>FooterComponent </title>
<polygon fill="#fb8072" stroke="black" points="640.88,-214.8 519.12,-214.8 519.12,-178.8 640.88,-178.8 640.88,-214.8"/>
<text text-anchor="middle" x="580" y="-192.6" font-family="Times,serif" font-size="14.00">FooterComponent </text>
</g>
<!-- PageControllersModule&#45;&gt;FooterComponent  -->
<g id="edge6" class="edge">
<title>PageControllersModule&#45;&gt;FooterComponent </title>
<path fill="none" stroke="black" stroke-dasharray="5,2" d="M455.21,-137.8C499.98,-137.8 548.12,-137.8 548.12,-137.8 548.12,-137.8 548.12,-168.78 548.12,-168.78"/>
<polygon fill="black" stroke="black" points="544.63,-168.78 548.12,-178.78 551.63,-168.78 544.63,-168.78"/>
</g>
<!-- HeaderComponent  -->
<g id="node8" class="node">
<title>HeaderComponent </title>
<polygon fill="#fb8072" stroke="black" points="501.75,-214.8 376.25,-214.8 376.25,-178.8 501.75,-178.8 501.75,-214.8"/>
<text text-anchor="middle" x="439" y="-192.6" font-family="Times,serif" font-size="14.00">HeaderComponent </text>
</g>
<!-- PageControllersModule&#45;&gt;HeaderComponent  -->
<g id="edge7" class="edge">
<title>PageControllersModule&#45;&gt;HeaderComponent </title>
<path fill="none" stroke="black" stroke-dasharray="5,2" d="M415.63,-149.91C415.63,-149.91 415.63,-168.79 415.63,-168.79"/>
<polygon fill="black" stroke="black" points="412.13,-168.79 415.63,-178.79 419.13,-168.79 412.13,-168.79"/>
</g>
<!-- LoaderComponent  -->
<g id="node9" class="node">
<title>LoaderComponent </title>
<polygon fill="#fb8072" stroke="black" points="358.47,-214.8 233.53,-214.8 233.53,-178.8 358.47,-178.8 358.47,-214.8"/>
<text text-anchor="middle" x="296" y="-192.6" font-family="Times,serif" font-size="14.00">LoaderComponent </text>
</g>
<!-- PageControllersModule&#45;&gt;LoaderComponent  -->
<g id="edge8" class="edge">
<title>PageControllersModule&#45;&gt;LoaderComponent </title>
<path fill="none" stroke="black" stroke-dasharray="5,2" d="M331.68,-149.91C331.68,-149.91 331.68,-168.79 331.68,-168.79"/>
<polygon fill="black" stroke="black" points="328.18,-168.79 331.68,-178.79 335.18,-168.79 328.18,-168.79"/>
</g>
<!-- SideMenuComponent  -->
<g id="node10" class="node">
<title>SideMenuComponent </title>
<polygon fill="#fb8072" stroke="black" points="216.38,-214.8 73.62,-214.8 73.62,-178.8 216.38,-178.8 216.38,-214.8"/>
<text text-anchor="middle" x="145" y="-192.6" font-family="Times,serif" font-size="14.00">SideMenuComponent </text>
</g>
<!-- PageControllersModule&#45;&gt;SideMenuComponent  -->
<g id="edge9" class="edge">
<title>PageControllersModule&#45;&gt;SideMenuComponent </title>
<path fill="none" stroke="black" stroke-dasharray="5,2" d="M305.07,-137.8C255.03,-137.8 198.35,-137.8 198.35,-137.8 198.35,-137.8 198.35,-168.78 198.35,-168.78"/>
<polygon fill="black" stroke="black" points="194.85,-168.78 198.35,-178.78 201.85,-168.78 194.85,-168.78"/>
</g>
<!-- IconsModule -->
<g id="node6" class="node">
<title>IconsModule</title>
<polygon fill="#8dd3c7" stroke="black" points="690.88,-84.8 687.88,-88.8 666.88,-88.8 663.88,-84.8 601.12,-84.8 601.12,-48.8 690.88,-48.8 690.88,-84.8"/>
<text text-anchor="middle" x="646" y="-62.6" font-family="Times,serif" font-size="14.00">IconsModule</text>
</g>
<!-- IconsModule&#45;&gt;PageControllersModule -->
<g id="edge5" class="edge">
<title>IconsModule&#45;&gt;PageControllersModule</title>
<path fill="none" stroke="black" d="M620.88,-84.82C620.88,-102.17 620.88,-125.8 620.88,-125.8 620.88,-125.8 464.89,-125.8 464.89,-125.8"/>
<polygon fill="black" stroke="black" points="464.89,-122.3 454.89,-125.8 464.89,-129.3 464.89,-122.3"/>
</g>
</g>
</svg>
