<?xml version="1.0" encoding="UTF-8" standalone="no"?>
<!DOCTYPE svg PUBLIC "-//W3C//DTD SVG 1.1//EN"
 "http://www.w3.org/Graphics/SVG/1.1/DTD/svg11.dtd">
<!-- Generated by graphviz version 5.0.0 (20220707.1540)
 -->
<!-- Title: dependencies Pages: 1 -->
<svg width="723pt" height="247pt"
 viewBox="0.00 0.00 723.00 246.80" xmlns="http://www.w3.org/2000/svg" xmlns:xlink="http://www.w3.org/1999/xlink">
<g id="graph0" class="graph" transform="scale(1 1) rotate(0) translate(4 242.8)">
<title>dependencies</title>
<polygon fill="white" stroke="transparent" points="-4,4 -4,-242.8 719,-242.8 719,4 -4,4"/>
<text text-anchor="middle" x="357.5" y="-8.2" font-family="sans-serif" font-size="14.00">dependencies</text>
<g id="clust1" class="cluster">
<title>cluster_PageControllersModule</title>
<polygon fill="none" stroke="black" stroke-dasharray="1,5" points="8,-32.8 8,-230.8 707,-230.8 707,-32.8 8,-32.8"/>
</g>
<g id="clust8" class="cluster">
<title>cluster_PageControllersModule_exports</title>
<polygon fill="none" stroke="black" points="66,-170.8 66,-222.8 649,-222.8 649,-170.8 66,-170.8"/>
</g>
<g id="clust2" class="cluster">
<title>cluster_PageControllersModule_declarations</title>
<polygon fill="none" stroke="black" points="130,-40.8 130,-92.8 699,-92.8 699,-40.8 130,-40.8"/>
</g>
<g id="clust7" class="cluster">
<title>cluster_PageControllersModule_imports</title>
<polygon fill="none" stroke="black" points="16,-40.8 16,-92.8 122,-92.8 122,-40.8 16,-40.8"/>
</g>
<!-- FooterComponent -->
<g id="node1" class="node">
<title>FooterComponent</title>
<polygon fill="#ffffb3" stroke="black" points="690.88,-84.8 573.12,-84.8 573.12,-48.8 690.88,-48.8 690.88,-84.8"/>
<text text-anchor="middle" x="632" y="-62.6" font-family="Times,serif" font-size="14.00">FooterComponent</text>
</g>
<!-- PageControllersModule -->
<g id="node5" class="node">
<title>PageControllersModule</title>
<polygon fill="#8dd3c7" stroke="black" points="429.76,-149.8 426.76,-153.8 405.76,-153.8 402.76,-149.8 280.24,-149.8 280.24,-113.8 429.76,-113.8 429.76,-149.8"/>
<text text-anchor="middle" x="355" y="-127.6" font-family="Times,serif" font-size="14.00">PageControllersModule</text>
</g>
<!-- FooterComponent&#45;&gt;PageControllersModule -->
<g id="edge1" class="edge">
<title>FooterComponent&#45;&gt;PageControllersModule</title>
<path fill="none" stroke="black" d="M606.88,-84.82C606.88,-102.17 606.88,-125.8 606.88,-125.8 606.88,-125.8 439.89,-125.8 439.89,-125.8"/>
<polygon fill="black" stroke="black" points="439.89,-122.3 429.89,-125.8 439.89,-129.3 439.89,-122.3"/>
</g>
<!-- HeaderComponent -->
<g id="node2" class="node">
<title>HeaderComponent</title>
<polygon fill="#ffffb3" stroke="black" points="554.75,-84.8 433.25,-84.8 433.25,-48.8 554.75,-48.8 554.75,-84.8"/>
<text text-anchor="middle" x="494" y="-62.6" font-family="Times,serif" font-size="14.00">HeaderComponent</text>
</g>
<!-- HeaderComponent&#45;&gt;PageControllersModule -->
<g id="edge2" class="edge">
<title>HeaderComponent&#45;&gt;PageControllersModule</title>
<path fill="none" stroke="black" d="M433.21,-66.8C426.87,-66.8 422.68,-66.8 422.68,-66.8 422.68,-66.8 422.68,-103.69 422.68,-103.69"/>
<polygon fill="black" stroke="black" points="419.18,-103.69 422.68,-113.69 426.18,-103.69 419.18,-103.69"/>
</g>
<!-- LoaderComponent -->
<g id="node3" class="node">
<title>LoaderComponent</title>
<polygon fill="#ffffb3" stroke="black" points="415.47,-84.8 294.53,-84.8 294.53,-48.8 415.47,-48.8 415.47,-84.8"/>
<text text-anchor="middle" x="355" y="-62.6" font-family="Times,serif" font-size="14.00">LoaderComponent</text>
</g>
<!-- LoaderComponent&#45;&gt;PageControllersModule -->
<g id="edge3" class="edge">
<title>LoaderComponent&#45;&gt;PageControllersModule</title>
<path fill="none" stroke="black" d="M355,-84.91C355,-84.91 355,-103.79 355,-103.79"/>
<polygon fill="black" stroke="black" points="351.5,-103.79 355,-113.79 358.5,-103.79 351.5,-103.79"/>
</g>
<!-- SideMenuComponent -->
<g id="node4" class="node">
<title>SideMenuComponent</title>
<polygon fill="#ffffb3" stroke="black" points="276.38,-84.8 137.62,-84.8 137.62,-48.8 276.38,-48.8 276.38,-84.8"/>
<text text-anchor="middle" x="207" y="-62.6" font-family="Times,serif" font-size="14.00">SideMenuComponent</text>
</g>
<!-- SideMenuComponent&#45;&gt;PageControllersModule -->
<g id="edge4" class="edge">
<title>SideMenuComponent&#45;&gt;PageControllersModule</title>
<path fill="none" stroke="black" d="M276.49,-66.8C283.05,-66.8 287.32,-66.8 287.32,-66.8 287.32,-66.8 287.32,-103.69 287.32,-103.69"/>
<polygon fill="black" stroke="black" points="283.82,-103.69 287.32,-113.69 290.82,-103.69 283.82,-103.69"/>
</g>
<!-- FooterComponent  -->
<g id="node7" class="node">
<title>FooterComponent </title>
<polygon fill="#fb8072" stroke="black" points="640.88,-214.8 519.12,-214.8 519.12,-178.8 640.88,-178.8 640.88,-214.8"/>
<text text-anchor="middle" x="580" y="-192.6" font-family="Times,serif" font-size="14.00">FooterComponent </text>
</g>
<!-- PageControllersModule&#45;&gt;FooterComponent  -->
<g id="edge6" class="edge">
<title>PageControllersModule&#45;&gt;FooterComponent </title>
<path fill="none" stroke="black" stroke-dasharray="5,2" d="M429.85,-137.8C480.07,-137.8 537.09,-137.8 537.09,-137.8 537.09,-137.8 537.09,-168.78 537.09,-168.78"/>
<polygon fill="black" stroke="black" points="533.59,-168.78 537.09,-178.78 540.59,-168.78 533.59,-168.78"/>
</g>
<!-- HeaderComponent  -->
<g id="node8" class="node">
<title>HeaderComponent </title>
<polygon fill="#fb8072" stroke="black" points="501.75,-214.8 376.25,-214.8 376.25,-178.8 501.75,-178.8 501.75,-214.8"/>
<text text-anchor="middle" x="439" y="-192.6" font-family="Times,serif" font-size="14.00">HeaderComponent </text>
</g>
<!-- PageControllersModule&#45;&gt;HeaderComponent  -->
<g id="edge7" class="edge">
<title>PageControllersModule&#45;&gt;HeaderComponent </title>
<path fill="none" stroke="black" stroke-dasharray="5,2" d="M403.13,-149.91C403.13,-149.91 403.13,-168.79 403.13,-168.79"/>
<polygon fill="black" stroke="black" points="399.63,-168.79 403.13,-178.79 406.63,-168.79 399.63,-168.79"/>
</g>
<!-- LoaderComponent  -->
<g id="node9" class="node">
<title>LoaderComponent </title>
<polygon fill="#fb8072" stroke="black" points="358.47,-214.8 233.53,-214.8 233.53,-178.8 358.47,-178.8 358.47,-214.8"/>
<text text-anchor="middle" x="296" y="-192.6" font-family="Times,serif" font-size="14.00">LoaderComponent </text>
</g>
<!-- PageControllersModule&#45;&gt;LoaderComponent  -->
<g id="edge8" class="edge">
<title>PageControllersModule&#45;&gt;LoaderComponent </title>
<path fill="none" stroke="black" stroke-dasharray="5,2" d="M319.18,-149.91C319.18,-149.91 319.18,-168.79 319.18,-168.79"/>
<polygon fill="black" stroke="black" points="315.68,-168.79 319.18,-178.79 322.68,-168.79 315.68,-168.79"/>
</g>
<!-- SideMenuComponent  -->
<g id="node10" class="node">
<title>SideMenuComponent </title>
<polygon fill="#fb8072" stroke="black" points="216.38,-214.8 73.62,-214.8 73.62,-178.8 216.38,-178.8 216.38,-214.8"/>
<text text-anchor="middle" x="145" y="-192.6" font-family="Times,serif" font-size="14.00">SideMenuComponent </text>
</g>
<!-- PageControllersModule&#45;&gt;SideMenuComponent  -->
<g id="edge9" class="edge">
<title>PageControllersModule&#45;&gt;SideMenuComponent </title>
<path fill="none" stroke="black" stroke-dasharray="5,2" d="M280.23,-137.8C231.49,-137.8 176.88,-137.8 176.88,-137.8 176.88,-137.8 176.88,-168.78 176.88,-168.78"/>
<polygon fill="black" stroke="black" points="173.38,-168.78 176.88,-178.78 180.38,-168.78 173.38,-168.78"/>
</g>
<!-- IconsModule -->
<g id="node6" class="node">
<title>IconsModule</title>
<polygon fill="#8dd3c7" stroke="black" points="113.88,-84.8 110.88,-88.8 89.88,-88.8 86.88,-84.8 24.12,-84.8 24.12,-48.8 113.88,-48.8 113.88,-84.8"/>
<text text-anchor="middle" x="69" y="-62.6" font-family="Times,serif" font-size="14.00">IconsModule</text>
</g>
<!-- IconsModule&#45;&gt;PageControllersModule -->
<g id="edge5" class="edge">
<title>IconsModule&#45;&gt;PageControllersModule</title>
<path fill="none" stroke="black" d="M93.87,-84.82C93.87,-102.17 93.87,-125.8 93.87,-125.8 93.87,-125.8 270.17,-125.8 270.17,-125.8"/>
<polygon fill="black" stroke="black" points="270.17,-129.3 280.17,-125.8 270.17,-122.3 270.17,-129.3"/>
</g>
</g>
</svg>
