<?xml version="1.0" encoding="UTF-8" standalone="no"?>
<!DOCTYPE svg PUBLIC "-//W3C//DTD SVG 1.1//EN"
 "http://www.w3.org/Graphics/SVG/1.1/DTD/svg11.dtd">
<!-- Generated by graphviz version 5.0.0 (20220707.1540)
 -->
<!-- Title: dependencies Pages: 1 -->
<svg width="1102pt" height="247pt"
 viewBox="0.00 0.00 1102.00 246.80" xmlns="http://www.w3.org/2000/svg" xmlns:xlink="http://www.w3.org/1999/xlink">
<g id="graph0" class="graph" transform="scale(1 1) rotate(0) translate(4 242.8)">
<title>dependencies</title>
<polygon fill="white" stroke="transparent" points="-4,4 -4,-242.8 1098,-242.8 1098,4 -4,4"/>
<text text-anchor="middle" x="547" y="-8.2" font-family="sans-serif" font-size="14.00">dependencies</text>
<g id="clust1" class="cluster">
<title>cluster_IconsModule</title>
<polygon fill="none" stroke="black" stroke-dasharray="1,5" points="8,-32.8 8,-230.8 1086,-230.8 1086,-32.8 8,-32.8"/>
</g>
<g id="clust2" class="cluster">
<title>cluster_IconsModule_declarations</title>
<polygon fill="none" stroke="black" points="28,-40.8 28,-92.8 1069,-92.8 1069,-40.8 28,-40.8"/>
</g>
<g id="clust10" class="cluster">
<title>cluster_IconsModule_exports</title>
<polygon fill="none" stroke="black" points="16,-170.8 16,-222.8 1078,-222.8 1078,-170.8 16,-170.8"/>
</g>
<!-- IconAddFolderComponent -->
<g id="node1" class="node">
<title>IconAddFolderComponent</title>
<polygon fill="#ffffb3" stroke="black" points="1061.37,-84.8 894.63,-84.8 894.63,-48.8 1061.37,-48.8 1061.37,-84.8"/>
<text text-anchor="middle" x="978" y="-62.6" font-family="Times,serif" font-size="14.00">IconAddFolderComponent</text>
</g>
<!-- IconsModule -->
<g id="node7" class="node">
<title>IconsModule</title>
<polygon fill="#8dd3c7" stroke="black" points="511.88,-149.8 508.88,-153.8 487.88,-153.8 484.88,-149.8 422.12,-149.8 422.12,-113.8 511.88,-113.8 511.88,-149.8"/>
<text text-anchor="middle" x="467" y="-127.6" font-family="Times,serif" font-size="14.00">IconsModule</text>
</g>
<!-- IconAddFolderComponent&#45;&gt;IconsModule -->
<g id="edge1" class="edge">
<title>IconAddFolderComponent&#45;&gt;IconsModule</title>
<path fill="none" stroke="black" d="M1007.56,-85.02C1007.56,-103.63 1007.56,-129.8 1007.56,-129.8 1007.56,-129.8 522.16,-129.8 522.16,-129.8"/>
<polygon fill="black" stroke="black" points="522.16,-126.3 512.16,-129.8 522.16,-133.3 522.16,-126.3"/>
</g>
<!-- IconBaseComponent -->
<g id="node2" class="node">
<title>IconBaseComponent</title>
<polygon fill="#ffffb3" stroke="black" points="876.92,-84.8 743.08,-84.8 743.08,-48.8 876.92,-48.8 876.92,-84.8"/>
<text text-anchor="middle" x="810" y="-62.6" font-family="Times,serif" font-size="14.00">IconBaseComponent</text>
</g>
<!-- IconBaseComponent&#45;&gt;IconsModule -->
<g id="edge2" class="edge">
<title>IconBaseComponent&#45;&gt;IconsModule</title>
<path fill="none" stroke="black" d="M832.65,-84.83C832.65,-101.86 832.65,-124.8 832.65,-124.8 832.65,-124.8 522.2,-124.8 522.2,-124.8"/>
<polygon fill="black" stroke="black" points="522.2,-121.3 512.2,-124.8 522.2,-128.3 522.2,-121.3"/>
</g>
<!-- IconLayerGroupComponent -->
<g id="node3" class="node">
<title>IconLayerGroupComponent</title>
<polygon fill="#ffffb3" stroke="black" points="725.12,-84.8 550.88,-84.8 550.88,-48.8 725.12,-48.8 725.12,-84.8"/>
<text text-anchor="middle" x="638" y="-62.6" font-family="Times,serif" font-size="14.00">IconLayerGroupComponent</text>
</g>
<!-- IconLayerGroupComponent&#45;&gt;IconsModule -->
<g id="edge3" class="edge">
<title>IconLayerGroupComponent&#45;&gt;IconsModule</title>
<path fill="none" stroke="black" d="M608.9,-85.04C608.9,-100.37 608.9,-119.8 608.9,-119.8 608.9,-119.8 521.9,-119.8 521.9,-119.8"/>
<polygon fill="black" stroke="black" points="521.9,-116.3 511.9,-119.8 521.9,-123.3 521.9,-116.3"/>
</g>
<!-- IconMoveComponent -->
<g id="node4" class="node">
<title>IconMoveComponent</title>
<polygon fill="#ffffb3" stroke="black" points="532.37,-84.8 393.63,-84.8 393.63,-48.8 532.37,-48.8 532.37,-84.8"/>
<text text-anchor="middle" x="463" y="-62.6" font-family="Times,serif" font-size="14.00">IconMoveComponent</text>
</g>
<!-- IconMoveComponent&#45;&gt;IconsModule -->
<g id="edge4" class="edge">
<title>IconMoveComponent&#45;&gt;IconsModule</title>
<path fill="none" stroke="black" d="M467,-84.91C467,-84.91 467,-103.79 467,-103.79"/>
<polygon fill="black" stroke="black" points="463.5,-103.79 467,-113.79 470.5,-103.79 463.5,-103.79"/>
</g>
<!-- IconRenameComponent -->
<g id="node5" class="node">
<title>IconRenameComponent</title>
<polygon fill="#ffffb3" stroke="black" points="376.08,-84.8 223.92,-84.8 223.92,-48.8 376.08,-48.8 376.08,-84.8"/>
<text text-anchor="middle" x="300" y="-62.6" font-family="Times,serif" font-size="14.00">IconRenameComponent</text>
</g>
<!-- IconRenameComponent&#45;&gt;IconsModule -->
<g id="edge5" class="edge">
<title>IconRenameComponent&#45;&gt;IconsModule</title>
<path fill="none" stroke="black" d="M321.18,-84.81C321.18,-100.85 321.18,-121.8 321.18,-121.8 321.18,-121.8 412.06,-121.8 412.06,-121.8"/>
<polygon fill="black" stroke="black" points="412.06,-125.3 422.06,-121.8 412.06,-118.3 412.06,-125.3"/>
</g>
<!-- IconUploadFileComponent -->
<g id="node6" class="node">
<title>IconUploadFileComponent</title>
<polygon fill="#ffffb3" stroke="black" points="205.7,-84.8 36.3,-84.8 36.3,-48.8 205.7,-48.8 205.7,-84.8"/>
<text text-anchor="middle" x="121" y="-62.6" font-family="Times,serif" font-size="14.00">IconUploadFileComponent</text>
</g>
<!-- IconUploadFileComponent&#45;&gt;IconsModule -->
<g id="edge6" class="edge">
<title>IconUploadFileComponent&#45;&gt;IconsModule</title>
<path fill="none" stroke="black" d="M200.98,-85.07C200.98,-103.36 200.98,-128.8 200.98,-128.8 200.98,-128.8 411.87,-128.8 411.87,-128.8"/>
<polygon fill="black" stroke="black" points="411.87,-132.3 421.87,-128.8 411.87,-125.3 411.87,-132.3"/>
</g>
<!-- IconAddFolderComponent  -->
<g id="node8" class="node">
<title>IconAddFolderComponent </title>
<polygon fill="#fb8072" stroke="black" points="1070.37,-214.8 899.63,-214.8 899.63,-178.8 1070.37,-178.8 1070.37,-214.8"/>
<text text-anchor="middle" x="985" y="-192.6" font-family="Times,serif" font-size="14.00">IconAddFolderComponent </text>
</g>
<!-- IconsModule&#45;&gt;IconAddFolderComponent  -->
<g id="edge7" class="edge">
<title>IconsModule&#45;&gt;IconAddFolderComponent </title>
<path fill="none" stroke="black" stroke-dasharray="5,2" d="M511.91,-134.8C632.4,-134.8 953.69,-134.8 953.69,-134.8 953.69,-134.8 953.69,-168.53 953.69,-168.53"/>
<polygon fill="black" stroke="black" points="950.19,-168.53 953.69,-178.53 957.19,-168.53 950.19,-168.53"/>
</g>
<!-- IconBaseComponent  -->
<g id="node9" class="node">
<title>IconBaseComponent </title>
<polygon fill="#fb8072" stroke="black" points="881.42,-214.8 744.58,-214.8 744.58,-178.8 881.42,-178.8 881.42,-214.8"/>
<text text-anchor="middle" x="813" y="-192.6" font-family="Times,serif" font-size="14.00">IconBaseComponent </text>
</g>
<!-- IconsModule&#45;&gt;IconBaseComponent  -->
<g id="edge8" class="edge">
<title>IconsModule&#45;&gt;IconBaseComponent </title>
<path fill="none" stroke="black" stroke-dasharray="5,2" d="M512.06,-139.8C600.56,-139.8 788.6,-139.8 788.6,-139.8 788.6,-139.8 788.6,-168.76 788.6,-168.76"/>
<polygon fill="black" stroke="black" points="785.1,-168.76 788.6,-178.76 792.1,-168.76 785.1,-168.76"/>
</g>
<!-- IconLayerGroupComponent  -->
<g id="node10" class="node">
<title>IconLayerGroupComponent </title>
<polygon fill="#fb8072" stroke="black" points="726.12,-214.8 547.88,-214.8 547.88,-178.8 726.12,-178.8 726.12,-214.8"/>
<text text-anchor="middle" x="637" y="-192.6" font-family="Times,serif" font-size="14.00">IconLayerGroupComponent </text>
</g>
<!-- IconsModule&#45;&gt;IconLayerGroupComponent  -->
<g id="edge9" class="edge">
<title>IconsModule&#45;&gt;IconLayerGroupComponent </title>
<path fill="none" stroke="black" stroke-dasharray="5,2" d="M511.91,-144.8C570.9,-144.8 667.1,-144.8 667.1,-144.8 667.1,-144.8 667.1,-168.61 667.1,-168.61"/>
<polygon fill="black" stroke="black" points="663.6,-168.61 667.1,-178.61 670.6,-168.61 663.6,-168.61"/>
</g>
<!-- IconMoveComponent  -->
<g id="node11" class="node">
<title>IconMoveComponent </title>
<polygon fill="#fb8072" stroke="black" points="530.37,-214.8 387.63,-214.8 387.63,-178.8 530.37,-178.8 530.37,-214.8"/>
<text text-anchor="middle" x="459" y="-192.6" font-family="Times,serif" font-size="14.00">IconMoveComponent </text>
</g>
<!-- IconsModule&#45;&gt;IconMoveComponent  -->
<g id="edge10" class="edge">
<title>IconsModule&#45;&gt;IconMoveComponent </title>
<path fill="none" stroke="black" stroke-dasharray="5,2" d="M467,-149.91C467,-149.91 467,-168.79 467,-168.79"/>
<polygon fill="black" stroke="black" points="463.5,-168.79 467,-178.79 470.5,-168.79 463.5,-168.79"/>
</g>
<!-- IconRenameComponent  -->
<g id="node12" class="node">
<title>IconRenameComponent </title>
<polygon fill="#fb8072" stroke="black" points="369.58,-214.8 214.42,-214.8 214.42,-178.8 369.58,-178.8 369.58,-214.8"/>
<text text-anchor="middle" x="292" y="-192.6" font-family="Times,serif" font-size="14.00">IconRenameComponent </text>
</g>
<!-- IconsModule&#45;&gt;IconRenameComponent  -->
<g id="edge11" class="edge">
<title>IconsModule&#45;&gt;IconRenameComponent </title>
<path fill="none" stroke="black" stroke-dasharray="5,2" d="M421.91,-142.8C364.47,-142.8 272.57,-142.8 272.57,-142.8 272.57,-142.8 272.57,-168.52 272.57,-168.52"/>
<polygon fill="black" stroke="black" points="269.07,-168.52 272.57,-178.52 276.07,-168.52 269.07,-168.52"/>
</g>
<!-- IconUploadFileComponent  -->
<g id="node13" class="node">
<title>IconUploadFileComponent </title>
<polygon fill="#fb8072" stroke="black" points="196.2,-214.8 23.8,-214.8 23.8,-178.8 196.2,-178.8 196.2,-214.8"/>
<text text-anchor="middle" x="110" y="-192.6" font-family="Times,serif" font-size="14.00">IconUploadFileComponent </text>
</g>
<!-- IconsModule&#45;&gt;IconUploadFileComponent  -->
<g id="edge12" class="edge">
<title>IconsModule&#45;&gt;IconUploadFileComponent </title>
<path fill="none" stroke="black" stroke-dasharray="5,2" d="M421.88,-135.8C327.18,-135.8 116.38,-135.8 116.38,-135.8 116.38,-135.8 116.38,-168.5 116.38,-168.5"/>
<polygon fill="black" stroke="black" points="112.88,-168.5 116.38,-178.5 119.88,-168.5 112.88,-168.5"/>
</g>
</g>
</svg>
