<?xml version="1.0" encoding="UTF-8" standalone="no"?>
<!DOCTYPE svg PUBLIC "-//W3C//DTD SVG 1.1//EN"
 "http://www.w3.org/Graphics/SVG/1.1/DTD/svg11.dtd">
<!-- Generated by graphviz version 5.0.0 (20220707.1540)
 -->
<!-- Title: dependencies Pages: 1 -->
<svg width="1580pt" height="247pt"
 viewBox="0.00 0.00 1580.00 246.80" xmlns="http://www.w3.org/2000/svg" xmlns:xlink="http://www.w3.org/1999/xlink">
<g id="graph0" class="graph" transform="scale(1 1) rotate(0) translate(4 242.8)">
<title>dependencies</title>
<polygon fill="white" stroke="transparent" points="-4,4 -4,-242.8 1576,-242.8 1576,4 -4,4"/>
<text text-anchor="middle" x="786" y="-8.2" font-family="sans-serif" font-size="14.00">dependencies</text>
<g id="clust1" class="cluster">
<title>cluster_IconsModule</title>
<polygon fill="none" stroke="black" stroke-dasharray="1,5" points="8,-32.8 8,-230.8 1564,-230.8 1564,-32.8 8,-32.8"/>
</g>
<g id="clust13" class="cluster">
<title>cluster_IconsModule_exports</title>
<polygon fill="none" stroke="black" points="16,-170.8 16,-222.8 1556,-222.8 1556,-170.8 16,-170.8"/>
</g>
<g id="clust2" class="cluster">
<title>cluster_IconsModule_declarations</title>
<polygon fill="none" stroke="black" points="30,-40.8 30,-92.8 1540,-92.8 1540,-40.8 30,-40.8"/>
</g>
<!-- IconAddFolderComponent -->
<g id="node1" class="node">
<title>IconAddFolderComponent</title>
<polygon fill="#ffffb3" stroke="black" points="1532.37,-84.8 1365.63,-84.8 1365.63,-48.8 1532.37,-48.8 1532.37,-84.8"/>
<text text-anchor="middle" x="1449" y="-62.6" font-family="Times,serif" font-size="14.00">IconAddFolderComponent</text>
</g>
<!-- IconsModule -->
<g id="node10" class="node">
<title>IconsModule</title>
<polygon fill="#8dd3c7" stroke="black" points="816.88,-149.8 813.88,-153.8 792.88,-153.8 789.88,-149.8 727.12,-149.8 727.12,-113.8 816.88,-113.8 816.88,-149.8"/>
<text text-anchor="middle" x="772" y="-127.6" font-family="Times,serif" font-size="14.00">IconsModule</text>
</g>
<!-- IconAddFolderComponent&#45;&gt;IconsModule -->
<g id="edge1" class="edge">
<title>IconAddFolderComponent&#45;&gt;IconsModule</title>
<path fill="none" stroke="black" d="M1371.69,-85.02C1371.69,-103.63 1371.69,-129.8 1371.69,-129.8 1371.69,-129.8 827.07,-129.8 827.07,-129.8"/>
<polygon fill="black" stroke="black" points="827.07,-126.3 817.07,-129.8 827.07,-133.3 827.07,-126.3"/>
</g>
<!-- IconAuthorComponent -->
<g id="node2" class="node">
<title>IconAuthorComponent</title>
<polygon fill="#ffffb3" stroke="black" points="1347.87,-84.8 1202.13,-84.8 1202.13,-48.8 1347.87,-48.8 1347.87,-84.8"/>
<text text-anchor="middle" x="1275" y="-62.6" font-family="Times,serif" font-size="14.00">IconAuthorComponent</text>
</g>
<!-- IconAuthorComponent&#45;&gt;IconsModule -->
<g id="edge2" class="edge">
<title>IconAuthorComponent&#45;&gt;IconsModule</title>
<path fill="none" stroke="black" d="M1206.19,-84.82C1206.19,-102.17 1206.19,-125.8 1206.19,-125.8 1206.19,-125.8 827.24,-125.8 827.24,-125.8"/>
<polygon fill="black" stroke="black" points="827.24,-122.3 817.24,-125.8 827.24,-129.3 827.24,-122.3"/>
</g>
<!-- IconBaseComponent -->
<g id="node3" class="node">
<title>IconBaseComponent</title>
<polygon fill="#ffffb3" stroke="black" points="1183.92,-84.8 1050.08,-84.8 1050.08,-48.8 1183.92,-48.8 1183.92,-84.8"/>
<text text-anchor="middle" x="1117" y="-62.6" font-family="Times,serif" font-size="14.00">IconBaseComponent</text>
</g>
<!-- IconBaseComponent&#45;&gt;IconsModule -->
<g id="edge3" class="edge">
<title>IconBaseComponent&#45;&gt;IconsModule</title>
<path fill="none" stroke="black" d="M1140.99,-84.81C1140.99,-100.85 1140.99,-121.8 1140.99,-121.8 1140.99,-121.8 826.88,-121.8 826.88,-121.8"/>
<polygon fill="black" stroke="black" points="826.88,-118.3 816.88,-121.8 826.88,-125.3 826.88,-118.3"/>
</g>
<!-- IconLayerGroupComponent -->
<g id="node4" class="node">
<title>IconLayerGroupComponent</title>
<polygon fill="#ffffb3" stroke="black" points="1032.12,-84.8 857.88,-84.8 857.88,-48.8 1032.12,-48.8 1032.12,-84.8"/>
<text text-anchor="middle" x="945" y="-62.6" font-family="Times,serif" font-size="14.00">IconLayerGroupComponent</text>
</g>
<!-- IconLayerGroupComponent&#45;&gt;IconsModule -->
<g id="edge4" class="edge">
<title>IconLayerGroupComponent&#45;&gt;IconsModule</title>
<path fill="none" stroke="black" d="M974.52,-84.92C974.52,-99.58 974.52,-117.8 974.52,-117.8 974.52,-117.8 826.95,-117.8 826.95,-117.8"/>
<polygon fill="black" stroke="black" points="826.95,-114.3 816.95,-117.8 826.95,-121.3 826.95,-114.3"/>
</g>
<!-- IconLockComponent -->
<g id="node5" class="node">
<title>IconLockComponent</title>
<polygon fill="#ffffb3" stroke="black" points="839.47,-84.8 704.53,-84.8 704.53,-48.8 839.47,-48.8 839.47,-84.8"/>
<text text-anchor="middle" x="772" y="-62.6" font-family="Times,serif" font-size="14.00">IconLockComponent</text>
</g>
<!-- IconLockComponent&#45;&gt;IconsModule -->
<g id="edge5" class="edge">
<title>IconLockComponent&#45;&gt;IconsModule</title>
<path fill="none" stroke="black" d="M772,-84.91C772,-84.91 772,-103.79 772,-103.79"/>
<polygon fill="black" stroke="black" points="768.5,-103.79 772,-113.79 775.5,-103.79 768.5,-103.79"/>
</g>
<!-- IconMoveComponent -->
<g id="node6" class="node">
<title>IconMoveComponent</title>
<polygon fill="#ffffb3" stroke="black" points="686.37,-84.8 547.63,-84.8 547.63,-48.8 686.37,-48.8 686.37,-84.8"/>
<text text-anchor="middle" x="617" y="-62.6" font-family="Times,serif" font-size="14.00">IconMoveComponent</text>
</g>
<!-- IconMoveComponent&#45;&gt;IconsModule -->
<g id="edge6" class="edge">
<title>IconMoveComponent&#45;&gt;IconsModule</title>
<path fill="none" stroke="black" d="M639.31,-84.92C639.31,-99.58 639.31,-117.8 639.31,-117.8 639.31,-117.8 717.08,-117.8 717.08,-117.8"/>
<polygon fill="black" stroke="black" points="717.08,-121.3 727.08,-117.8 717.08,-114.3 717.08,-121.3"/>
</g>
<!-- IconNoteComponent -->
<g id="node7" class="node">
<title>IconNoteComponent</title>
<polygon fill="#ffffb3" stroke="black" points="529.92,-84.8 396.08,-84.8 396.08,-48.8 529.92,-48.8 529.92,-84.8"/>
<text text-anchor="middle" x="463" y="-62.6" font-family="Times,serif" font-size="14.00">IconNoteComponent</text>
</g>
<!-- IconNoteComponent&#45;&gt;IconsModule -->
<g id="edge7" class="edge">
<title>IconNoteComponent&#45;&gt;IconsModule</title>
<path fill="none" stroke="black" d="M481.74,-84.81C481.74,-100.85 481.74,-121.8 481.74,-121.8 481.74,-121.8 716.96,-121.8 716.96,-121.8"/>
<polygon fill="black" stroke="black" points="716.96,-125.3 726.96,-121.8 716.96,-118.3 716.96,-125.3"/>
</g>
<!-- IconRenameComponent -->
<g id="node8" class="node">
<title>IconRenameComponent</title>
<polygon fill="#ffffb3" stroke="black" points="378.08,-84.8 225.92,-84.8 225.92,-48.8 378.08,-48.8 378.08,-84.8"/>
<text text-anchor="middle" x="302" y="-62.6" font-family="Times,serif" font-size="14.00">IconRenameComponent</text>
</g>
<!-- IconRenameComponent&#45;&gt;IconsModule -->
<g id="edge8" class="edge">
<title>IconRenameComponent&#45;&gt;IconsModule</title>
<path fill="none" stroke="black" d="M373.91,-84.82C373.91,-102.17 373.91,-125.8 373.91,-125.8 373.91,-125.8 717.11,-125.8 717.11,-125.8"/>
<polygon fill="black" stroke="black" points="717.11,-129.3 727.11,-125.8 717.11,-122.3 717.11,-129.3"/>
</g>
<!-- IconUploadFileComponent -->
<g id="node9" class="node">
<title>IconUploadFileComponent</title>
<polygon fill="#ffffb3" stroke="black" points="207.7,-84.8 38.3,-84.8 38.3,-48.8 207.7,-48.8 207.7,-84.8"/>
<text text-anchor="middle" x="123" y="-62.6" font-family="Times,serif" font-size="14.00">IconUploadFileComponent</text>
</g>
<!-- IconUploadFileComponent&#45;&gt;IconsModule -->
<g id="edge9" class="edge">
<title>IconUploadFileComponent&#45;&gt;IconsModule</title>
<path fill="none" stroke="black" d="M201.98,-85.02C201.98,-103.63 201.98,-129.8 201.98,-129.8 201.98,-129.8 716.79,-129.8 716.79,-129.8"/>
<polygon fill="black" stroke="black" points="716.79,-133.3 726.79,-129.8 716.79,-126.3 716.79,-133.3"/>
</g>
<!-- IconAddFolderComponent  -->
<g id="node11" class="node">
<title>IconAddFolderComponent </title>
<polygon fill="#fb8072" stroke="black" points="1548.37,-214.8 1377.63,-214.8 1377.63,-178.8 1548.37,-178.8 1548.37,-214.8"/>
<text text-anchor="middle" x="1463" y="-192.6" font-family="Times,serif" font-size="14.00">IconAddFolderComponent </text>
</g>
<!-- IconsModule&#45;&gt;IconAddFolderComponent  -->
<g id="edge10" class="edge">
<title>IconsModule&#45;&gt;IconAddFolderComponent </title>
<path fill="none" stroke="black" stroke-dasharray="5,2" d="M817.09,-133.8C969.36,-133.8 1455.12,-133.8 1455.12,-133.8 1455.12,-133.8 1455.12,-168.58 1455.12,-168.58"/>
<polygon fill="black" stroke="black" points="1451.63,-168.58 1455.12,-178.58 1458.63,-168.58 1451.63,-168.58"/>
</g>
<!-- IconAuthorComponent  -->
<g id="node12" class="node">
<title>IconAuthorComponent </title>
<polygon fill="#fb8072" stroke="black" points="1359.87,-214.8 1210.13,-214.8 1210.13,-178.8 1359.87,-178.8 1359.87,-214.8"/>
<text text-anchor="middle" x="1285" y="-192.6" font-family="Times,serif" font-size="14.00">IconAuthorComponent </text>
</g>
<!-- IconsModule&#45;&gt;IconAuthorComponent  -->
<g id="edge11" class="edge">
<title>IconsModule&#45;&gt;IconAuthorComponent </title>
<path fill="none" stroke="black" stroke-dasharray="5,2" d="M817,-137.8C941.12,-137.8 1279.12,-137.8 1279.12,-137.8 1279.12,-137.8 1279.12,-168.78 1279.12,-168.78"/>
<polygon fill="black" stroke="black" points="1275.63,-168.78 1279.12,-178.78 1282.63,-168.78 1275.63,-168.78"/>
</g>
<!-- IconBaseComponent  -->
<g id="node13" class="node">
<title>IconBaseComponent </title>
<polygon fill="#fb8072" stroke="black" points="1192.42,-214.8 1055.58,-214.8 1055.58,-178.8 1192.42,-178.8 1192.42,-214.8"/>
<text text-anchor="middle" x="1124" y="-192.6" font-family="Times,serif" font-size="14.00">IconBaseComponent </text>
</g>
<!-- IconsModule&#45;&gt;IconBaseComponent  -->
<g id="edge12" class="edge">
<title>IconsModule&#45;&gt;IconBaseComponent </title>
<path fill="none" stroke="black" stroke-dasharray="5,2" d="M817.02,-141.8C906.53,-141.8 1098.26,-141.8 1098.26,-141.8 1098.26,-141.8 1098.26,-168.79 1098.26,-168.79"/>
<polygon fill="black" stroke="black" points="1094.76,-168.79 1098.26,-178.79 1101.76,-168.79 1094.76,-168.79"/>
</g>
<!-- IconLayerGroupComponent  -->
<g id="node14" class="node">
<title>IconLayerGroupComponent </title>
<polygon fill="#fb8072" stroke="black" points="1037.12,-214.8 858.88,-214.8 858.88,-178.8 1037.12,-178.8 1037.12,-214.8"/>
<text text-anchor="middle" x="948" y="-192.6" font-family="Times,serif" font-size="14.00">IconLayerGroupComponent </text>
</g>
<!-- IconsModule&#45;&gt;IconLayerGroupComponent  -->
<g id="edge13" class="edge">
<title>IconsModule&#45;&gt;IconLayerGroupComponent </title>
<path fill="none" stroke="black" stroke-dasharray="5,2" d="M817,-145.8C859.49,-145.8 916.73,-145.8 916.73,-145.8 916.73,-145.8 916.73,-168.68 916.73,-168.68"/>
<polygon fill="black" stroke="black" points="913.23,-168.68 916.73,-178.68 920.23,-168.68 913.23,-168.68"/>
</g>
<!-- IconLockComponent  -->
<g id="node15" class="node">
<title>IconLockComponent </title>
<polygon fill="#fb8072" stroke="black" points="841.47,-214.8 702.53,-214.8 702.53,-178.8 841.47,-178.8 841.47,-214.8"/>
<text text-anchor="middle" x="772" y="-192.6" font-family="Times,serif" font-size="14.00">IconLockComponent </text>
</g>
<!-- IconsModule&#45;&gt;IconLockComponent  -->
<g id="edge14" class="edge">
<title>IconsModule&#45;&gt;IconLockComponent </title>
<path fill="none" stroke="black" stroke-dasharray="5,2" d="M772,-149.91C772,-149.91 772,-168.79 772,-168.79"/>
<polygon fill="black" stroke="black" points="768.5,-168.79 772,-178.79 775.5,-168.79 768.5,-168.79"/>
</g>
<!-- IconMoveComponent  -->
<g id="node16" class="node">
<title>IconMoveComponent </title>
<polygon fill="#fb8072" stroke="black" points="685.37,-214.8 542.63,-214.8 542.63,-178.8 685.37,-178.8 685.37,-214.8"/>
<text text-anchor="middle" x="614" y="-192.6" font-family="Times,serif" font-size="14.00">IconMoveComponent </text>
</g>
<!-- IconsModule&#45;&gt;IconMoveComponent  -->
<g id="edge15" class="edge">
<title>IconsModule&#45;&gt;IconMoveComponent </title>
<path fill="none" stroke="black" stroke-dasharray="5,2" d="M726.94,-145.8C674.04,-145.8 593.44,-145.8 593.44,-145.8 593.44,-145.8 593.44,-168.68 593.44,-168.68"/>
<polygon fill="black" stroke="black" points="589.94,-168.68 593.44,-178.68 596.94,-168.68 589.94,-168.68"/>
</g>
<!-- IconNoteComponent  -->
<g id="node17" class="node">
<title>IconNoteComponent </title>
<polygon fill="#fb8072" stroke="black" points="524.42,-214.8 387.58,-214.8 387.58,-178.8 524.42,-178.8 524.42,-214.8"/>
<text text-anchor="middle" x="456" y="-192.6" font-family="Times,serif" font-size="14.00">IconNoteComponent </text>
</g>
<!-- IconsModule&#45;&gt;IconNoteComponent  -->
<g id="edge16" class="edge">
<title>IconsModule&#45;&gt;IconNoteComponent </title>
<path fill="none" stroke="black" stroke-dasharray="5,2" d="M727.09,-141.8C636.2,-141.8 439.01,-141.8 439.01,-141.8 439.01,-141.8 439.01,-168.79 439.01,-168.79"/>
<polygon fill="black" stroke="black" points="435.51,-168.79 439.01,-178.79 442.51,-168.79 435.51,-168.79"/>
</g>
<!-- IconRenameComponent  -->
<g id="node18" class="node">
<title>IconRenameComponent </title>
<polygon fill="#fb8072" stroke="black" points="369.58,-214.8 214.42,-214.8 214.42,-178.8 369.58,-178.8 369.58,-214.8"/>
<text text-anchor="middle" x="292" y="-192.6" font-family="Times,serif" font-size="14.00">IconRenameComponent </text>
</g>
<!-- IconsModule&#45;&gt;IconRenameComponent  -->
<g id="edge17" class="edge">
<title>IconsModule&#45;&gt;IconRenameComponent </title>
<path fill="none" stroke="black" stroke-dasharray="5,2" d="M726.97,-137.8C608.62,-137.8 297.88,-137.8 297.88,-137.8 297.88,-137.8 297.88,-168.78 297.88,-168.78"/>
<polygon fill="black" stroke="black" points="294.38,-168.78 297.88,-178.78 301.38,-168.78 294.38,-168.78"/>
</g>
<!-- IconUploadFileComponent  -->
<g id="node19" class="node">
<title>IconUploadFileComponent </title>
<polygon fill="#fb8072" stroke="black" points="196.2,-214.8 23.8,-214.8 23.8,-178.8 196.2,-178.8 196.2,-214.8"/>
<text text-anchor="middle" x="110" y="-192.6" font-family="Times,serif" font-size="14.00">IconUploadFileComponent </text>
</g>
<!-- IconsModule&#45;&gt;IconUploadFileComponent  -->
<g id="edge18" class="edge">
<title>IconsModule&#45;&gt;IconUploadFileComponent </title>
<path fill="none" stroke="black" stroke-dasharray="5,2" d="M727,-133.8C579.11,-133.8 117.38,-133.8 117.38,-133.8 117.38,-133.8 117.38,-168.58 117.38,-168.58"/>
<polygon fill="black" stroke="black" points="113.88,-168.58 117.38,-178.58 120.88,-168.58 113.88,-168.58"/>
</g>
</g>
</svg>
