<?xml version="1.0" encoding="UTF-8" standalone="no"?>
<!DOCTYPE svg PUBLIC "-//W3C//DTD SVG 1.1//EN"
 "http://www.w3.org/Graphics/SVG/1.1/DTD/svg11.dtd">
<!-- Generated by graphviz version 5.0.0 (20220707.1540)
 -->
<!-- Title: dependencies Pages: 1 -->
<svg width="464pt" height="174pt"
 viewBox="0.00 0.00 464.00 173.80" xmlns="http://www.w3.org/2000/svg" xmlns:xlink="http://www.w3.org/1999/xlink">
<g id="graph0" class="graph" transform="scale(1 1) rotate(0) translate(4 169.8)">
<title>dependencies</title>
<polygon fill="white" stroke="transparent" points="-4,4 -4,-169.8 460,-169.8 460,4 -4,4"/>
<text text-anchor="middle" x="228" y="-8.2" font-family="sans-serif" font-size="14.00">dependencies</text>
<g id="clust1" class="cluster">
<title>cluster_UsersManagementModule</title>
<polygon fill="none" stroke="black" stroke-dasharray="1,5" points="8,-32.8 8,-157.8 448,-157.8 448,-32.8 8,-32.8"/>
</g>
<g id="clust5" class="cluster">
<title>cluster_UsersManagementModule_imports</title>
<polygon fill="none" stroke="black" points="326,-40.8 326,-92.8 440,-92.8 440,-40.8 326,-40.8"/>
</g>
<g id="clust2" class="cluster">
<title>cluster_UsersManagementModule_declarations</title>
<polygon fill="none" stroke="black" points="16,-40.8 16,-92.8 318,-92.8 318,-40.8 16,-40.8"/>
</g>
<!-- UserFormComponent -->
<g id="node1" class="node">
<title>UserFormComponent</title>
<polygon fill="#ffffb3" stroke="black" points="310.1,-84.8 171.9,-84.8 171.9,-48.8 310.1,-48.8 310.1,-84.8"/>
<text text-anchor="middle" x="241" y="-62.6" font-family="Times,serif" font-size="14.00">UserFormComponent</text>
</g>
<!-- UsersManagementModule -->
<g id="node3" class="node">
<title>UsersManagementModule</title>
<polygon fill="#8dd3c7" stroke="black" points="323.02,-149.8 320.02,-153.8 299.02,-153.8 296.02,-149.8 158.98,-149.8 158.98,-113.8 323.02,-113.8 323.02,-149.8"/>
<text text-anchor="middle" x="241" y="-127.6" font-family="Times,serif" font-size="14.00">UsersManagementModule</text>
</g>
<!-- UserFormComponent&#45;&gt;UsersManagementModule -->
<g id="edge1" class="edge">
<title>UserFormComponent&#45;&gt;UsersManagementModule</title>
<path fill="none" stroke="black" d="M241,-84.91C241,-84.91 241,-103.79 241,-103.79"/>
<polygon fill="black" stroke="black" points="237.5,-103.79 241,-113.79 244.5,-103.79 237.5,-103.79"/>
</g>
<!-- UserListComponent -->
<g id="node2" class="node">
<title>UserListComponent</title>
<polygon fill="#ffffb3" stroke="black" points="153.55,-84.8 24.45,-84.8 24.45,-48.8 153.55,-48.8 153.55,-84.8"/>
<text text-anchor="middle" x="89" y="-62.6" font-family="Times,serif" font-size="14.00">UserListComponent</text>
</g>
<!-- UserListComponent&#45;&gt;UsersManagementModule -->
<g id="edge2" class="edge">
<title>UserListComponent&#45;&gt;UsersManagementModule</title>
<path fill="none" stroke="black" d="M153.75,-66.8C160.72,-66.8 165.34,-66.8 165.34,-66.8 165.34,-66.8 165.34,-103.69 165.34,-103.69"/>
<polygon fill="black" stroke="black" points="161.84,-103.69 165.34,-113.69 168.84,-103.69 161.84,-103.69"/>
</g>
<!-- SharedModule -->
<g id="node4" class="node">
<title>SharedModule</title>
<polygon fill="#8dd3c7" stroke="black" points="432.43,-84.8 429.43,-88.8 408.43,-88.8 405.43,-84.8 333.57,-84.8 333.57,-48.8 432.43,-48.8 432.43,-84.8"/>
<text text-anchor="middle" x="383" y="-62.6" font-family="Times,serif" font-size="14.00">SharedModule</text>
</g>
<!-- SharedModule&#45;&gt;UsersManagementModule -->
<g id="edge3" class="edge">
<title>SharedModule&#45;&gt;UsersManagementModule</title>
<path fill="none" stroke="black" d="M333.74,-66.8C323.97,-66.8 316.66,-66.8 316.66,-66.8 316.66,-66.8 316.66,-103.69 316.66,-103.69"/>
<polygon fill="black" stroke="black" points="313.16,-103.69 316.66,-113.69 320.16,-103.69 313.16,-103.69"/>
</g>
</g>
</svg>
