<?xml version="1.0" encoding="UTF-8" standalone="no"?>
<!DOCTYPE svg PUBLIC "-//W3C//DTD SVG 1.1//EN"
 "http://www.w3.org/Graphics/SVG/1.1/DTD/svg11.dtd">
<!-- Generated by graphviz version 5.0.0 (20220707.1540)
 -->
<!-- Title: dependencies Pages: 1 -->
<svg width="9736pt" height="329pt"
 viewBox="0.00 0.00 9736.00 328.80" xmlns="http://www.w3.org/2000/svg" xmlns:xlink="http://www.w3.org/1999/xlink">
<g id="graph0" class="graph" transform="scale(1 1) rotate(0) translate(4 324.8)">
<title>dependencies</title>
<polygon fill="white" stroke="transparent" points="-4,4 -4,-324.8 9732,-324.8 9732,4 -4,4"/>
<text text-anchor="middle" x="4864" y="-8.2" font-family="sans-serif" font-size="14.00">dependencies</text>
<g id="clust1" class="cluster">
<title>cluster_AppModule</title>
<polygon fill="none" stroke="black" stroke-dasharray="1,5" points="616,-108.8 616,-312.8 6638,-312.8 6638,-108.8 616,-108.8"/>
</g>
<g id="clust2" class="cluster">
<title>cluster_AppModule_declarations</title>
<polygon fill="none" stroke="black" points="800,-116.8 800,-168.8 6225,-168.8 6225,-116.8 800,-116.8"/>
</g>
<g id="clust31" class="cluster">
<title>cluster_AppModule_imports</title>
<polygon fill="none" stroke="black" points="6233,-116.8 6233,-168.8 6630,-168.8 6630,-116.8 6233,-116.8"/>
</g>
<g id="clust33" class="cluster">
<title>cluster_AppModule_bootstrap</title>
<polygon fill="none" stroke="black" points="3525,-252.8 3525,-304.8 3649,-304.8 3649,-252.8 3525,-252.8"/>
</g>
<g id="clust34" class="cluster">
<title>cluster_AppModule_providers</title>
<polygon fill="none" stroke="black" points="624,-116.8 624,-168.8 792,-168.8 792,-116.8 624,-116.8"/>
</g>
<g id="clust41" class="cluster">
<title>cluster_AuthConfigModule</title>
<polygon fill="none" stroke="black" stroke-dasharray="1,5" points="6202,-32.8 6202,-100.8 6406,-100.8 6406,-32.8 6202,-32.8"/>
</g>
<g id="clust46" class="cluster">
<title>cluster_AuthConfigModule_providers</title>
<polygon fill="none" stroke="black" points="6210,-40.8 6210,-92.8 6398,-92.8 6398,-40.8 6210,-40.8"/>
</g>
<g id="clust47" class="cluster">
<title>cluster_IconsModule</title>
<polygon fill="none" stroke="black" stroke-dasharray="1,5" points="6646,-176.8 6646,-244.8 9720,-244.8 9720,-176.8 6646,-176.8"/>
</g>
<g id="clust48" class="cluster">
<title>cluster_IconsModule_declarations</title>
<polygon fill="none" stroke="black" points="8202,-184.8 8202,-236.8 9712,-236.8 9712,-184.8 8202,-184.8"/>
</g>
<g id="clust59" class="cluster">
<title>cluster_IconsModule_exports</title>
<polygon fill="none" stroke="black" points="6654,-184.8 6654,-236.8 8194,-236.8 8194,-184.8 6654,-184.8"/>
</g>
<g id="clust62" class="cluster">
<title>cluster_PageControllersModule</title>
<polygon fill="none" stroke="black" stroke-dasharray="1,5" points="8,-108.8 8,-312.8 608,-312.8 608,-108.8 8,-108.8"/>
</g>
<g id="clust63" class="cluster">
<title>cluster_PageControllersModule_declarations</title>
<polygon fill="none" stroke="black" points="27,-116.8 27,-168.8 596,-168.8 596,-116.8 27,-116.8"/>
</g>
<g id="clust69" class="cluster">
<title>cluster_PageControllersModule_exports</title>
<polygon fill="none" stroke="black" points="16,-252.8 16,-304.8 600,-304.8 600,-252.8 16,-252.8"/>
</g>
<!-- AnnotationEditorComponent -->
<g id="node1" class="node">
<title>AnnotationEditorComponent</title>
<polygon fill="#ffffb3" stroke="black" points="2915.82,-160.8 2736.18,-160.8 2736.18,-124.8 2915.82,-124.8 2915.82,-160.8"/>
<text text-anchor="middle" x="2826" y="-138.6" font-family="Times,serif" font-size="14.00">AnnotationEditorComponent</text>
</g>
<!-- AppModule -->
<g id="node29" class="node">
<title>AppModule</title>
<polygon fill="#8dd3c7" stroke="black" points="3628.66,-228.8 3625.66,-232.8 3604.66,-232.8 3601.66,-228.8 3545.34,-228.8 3545.34,-192.8 3628.66,-192.8 3628.66,-228.8"/>
<text text-anchor="middle" x="3587" y="-206.6" font-family="Times,serif" font-size="14.00">AppModule</text>
</g>
<!-- AnnotationEditorComponent&#45;&gt;AppModule -->
<g id="edge1" class="edge">
<title>AnnotationEditorComponent&#45;&gt;AppModule</title>
<path fill="none" stroke="black" d="M2826,-160.84C2826,-177.53 2826,-199.8 2826,-199.8 2826,-199.8 3535.27,-199.8 3535.27,-199.8"/>
<polygon fill="black" stroke="black" points="3535.27,-203.3 3545.27,-199.8 3535.27,-196.3 3535.27,-203.3"/>
</g>
<!-- AppComponent -->
<g id="node2" class="node">
<title>AppComponent</title>
<polygon fill="#ffffb3" stroke="black" points="2718.94,-160.8 2613.06,-160.8 2613.06,-124.8 2718.94,-124.8 2718.94,-160.8"/>
<text text-anchor="middle" x="2666" y="-138.6" font-family="Times,serif" font-size="14.00">AppComponent</text>
</g>
<!-- AppComponent&#45;&gt;AppModule -->
<g id="edge2" class="edge">
<title>AppComponent&#45;&gt;AppModule</title>
<path fill="none" stroke="black" d="M2666,-160.82C2666,-178.17 2666,-201.8 2666,-201.8 2666,-201.8 3535.34,-201.8 3535.34,-201.8"/>
<polygon fill="black" stroke="black" points="3535.34,-205.3 3545.34,-201.8 3535.34,-198.3 3535.34,-205.3"/>
</g>
<!-- FormEditorComponent -->
<g id="node3" class="node">
<title>FormEditorComponent</title>
<polygon fill="#ffffb3" stroke="black" points="2595.16,-160.8 2448.84,-160.8 2448.84,-124.8 2595.16,-124.8 2595.16,-160.8"/>
<text text-anchor="middle" x="2522" y="-138.6" font-family="Times,serif" font-size="14.00">FormEditorComponent</text>
</g>
<!-- FormEditorComponent&#45;&gt;AppModule -->
<g id="edge3" class="edge">
<title>FormEditorComponent&#45;&gt;AppModule</title>
<path fill="none" stroke="black" d="M2522,-161.07C2522,-179.36 2522,-204.8 2522,-204.8 2522,-204.8 3535.25,-204.8 3535.25,-204.8"/>
<polygon fill="black" stroke="black" points="3535.25,-208.3 3545.25,-204.8 3535.25,-201.3 3535.25,-208.3"/>
</g>
<!-- LayersListComponent -->
<g id="node4" class="node">
<title>LayersListComponent</title>
<polygon fill="#ffffb3" stroke="black" points="2430.7,-160.8 2289.3,-160.8 2289.3,-124.8 2430.7,-124.8 2430.7,-160.8"/>
<text text-anchor="middle" x="2360" y="-138.6" font-family="Times,serif" font-size="14.00">LayersListComponent</text>
</g>
<!-- LayersListComponent&#45;&gt;AppModule -->
<g id="edge4" class="edge">
<title>LayersListComponent&#45;&gt;AppModule</title>
<path fill="none" stroke="black" d="M2360,-160.97C2360,-179.89 2360,-206.8 2360,-206.8 2360,-206.8 3535.12,-206.8 3535.12,-206.8"/>
<polygon fill="black" stroke="black" points="3535.12,-210.3 3545.12,-206.8 3535.12,-203.3 3535.12,-210.3"/>
</g>
<!-- LayersViewComponent -->
<g id="node5" class="node">
<title>LayersViewComponent</title>
<polygon fill="#ffffb3" stroke="black" points="2271.75,-160.8 2122.25,-160.8 2122.25,-124.8 2271.75,-124.8 2271.75,-160.8"/>
<text text-anchor="middle" x="2197" y="-138.6" font-family="Times,serif" font-size="14.00">LayersViewComponent</text>
</g>
<!-- LayersViewComponent&#45;&gt;AppModule -->
<g id="edge5" class="edge">
<title>LayersViewComponent&#45;&gt;AppModule</title>
<path fill="none" stroke="black" d="M2197,-160.83C2197,-180.38 2197,-208.8 2197,-208.8 2197,-208.8 3535.02,-208.8 3535.02,-208.8"/>
<polygon fill="black" stroke="black" points="3535.02,-212.3 3545.02,-208.8 3535.02,-205.3 3535.02,-212.3"/>
</g>
<!-- LexicalEntryEditorComponent -->
<g id="node6" class="node">
<title>LexicalEntryEditorComponent</title>
<polygon fill="#ffffb3" stroke="black" points="2103.9,-160.8 1914.1,-160.8 1914.1,-124.8 2103.9,-124.8 2103.9,-160.8"/>
<text text-anchor="middle" x="2009" y="-138.6" font-family="Times,serif" font-size="14.00">LexicalEntryEditorComponent</text>
</g>
<!-- LexicalEntryEditorComponent&#45;&gt;AppModule -->
<g id="edge6" class="edge">
<title>LexicalEntryEditorComponent&#45;&gt;AppModule</title>
<path fill="none" stroke="black" d="M2009,-161.02C2009,-181.17 2009,-210.8 2009,-210.8 2009,-210.8 3535.2,-210.8 3535.2,-210.8"/>
<polygon fill="black" stroke="black" points="3535.2,-214.3 3545.2,-210.8 3535.2,-207.3 3535.2,-214.3"/>
</g>
<!-- MainLayoutComponent -->
<g id="node7" class="node">
<title>MainLayoutComponent</title>
<polygon fill="#ffffb3" stroke="black" points="1896.04,-160.8 1745.96,-160.8 1745.96,-124.8 1896.04,-124.8 1896.04,-160.8"/>
<text text-anchor="middle" x="1821" y="-138.6" font-family="Times,serif" font-size="14.00">MainLayoutComponent</text>
</g>
<!-- MainLayoutComponent&#45;&gt;AppModule -->
<g id="edge7" class="edge">
<title>MainLayoutComponent&#45;&gt;AppModule</title>
<path fill="none" stroke="black" d="M1821,-161.08C1821,-182.12 1821,-213.8 1821,-213.8 1821,-213.8 3535.09,-213.8 3535.09,-213.8"/>
<polygon fill="black" stroke="black" points="3535.09,-217.3 3545.09,-213.8 3535.09,-210.3 3535.09,-217.3"/>
</g>
<!-- NotDuplicateNameDirective -->
<g id="node8" class="node">
<title>NotDuplicateNameDirective</title>
<polygon fill="#ffffb3" stroke="black" points="1727.43,-160.8 1550.57,-160.8 1550.57,-124.8 1727.43,-124.8 1727.43,-160.8"/>
<text text-anchor="middle" x="1639" y="-138.6" font-family="Times,serif" font-size="14.00">NotDuplicateNameDirective</text>
</g>
<!-- NotDuplicateNameDirective&#45;&gt;AppModule -->
<g id="edge8" class="edge">
<title>NotDuplicateNameDirective&#45;&gt;AppModule</title>
<path fill="none" stroke="black" d="M1639,-160.84C1639,-182.46 1639,-215.8 1639,-215.8 1639,-215.8 3534.96,-215.8 3534.96,-215.8"/>
<polygon fill="black" stroke="black" points="3534.96,-219.3 3544.96,-215.8 3534.96,-212.3 3534.96,-219.3"/>
</g>
<!-- PopupDeleteItemComponent -->
<g id="node9" class="node">
<title>PopupDeleteItemComponent</title>
<polygon fill="#ffffb3" stroke="black" points="1532.8,-160.8 1353.2,-160.8 1353.2,-124.8 1532.8,-124.8 1532.8,-160.8"/>
<text text-anchor="middle" x="1443" y="-138.6" font-family="Times,serif" font-size="14.00">PopupDeleteItemComponent</text>
</g>
<!-- PopupDeleteItemComponent&#45;&gt;AppModule -->
<g id="edge9" class="edge">
<title>PopupDeleteItemComponent&#45;&gt;AppModule</title>
<path fill="none" stroke="black" d="M1443,-160.96C1443,-183.15 1443,-217.8 1443,-217.8 1443,-217.8 3535.13,-217.8 3535.13,-217.8"/>
<polygon fill="black" stroke="black" points="3535.13,-221.3 3545.13,-217.8 3535.13,-214.3 3535.13,-221.3"/>
</g>
<!-- RelationEditorComponent -->
<g id="node10" class="node">
<title>RelationEditorComponent</title>
<polygon fill="#ffffb3" stroke="black" points="1334.76,-160.8 1171.24,-160.8 1171.24,-124.8 1334.76,-124.8 1334.76,-160.8"/>
<text text-anchor="middle" x="1253" y="-138.6" font-family="Times,serif" font-size="14.00">RelationEditorComponent</text>
</g>
<!-- RelationEditorComponent&#45;&gt;AppModule -->
<g id="edge10" class="edge">
<title>RelationEditorComponent&#45;&gt;AppModule</title>
<path fill="none" stroke="black" d="M1253,-161.05C1253,-183.82 1253,-219.8 1253,-219.8 1253,-219.8 3535,-219.8 3535,-219.8"/>
<polygon fill="black" stroke="black" points="3535,-223.3 3545,-219.8 3535,-216.3 3535,-223.3"/>
</g>
<!-- SenseEditorComponent -->
<g id="node11" class="node">
<title>SenseEditorComponent</title>
<polygon fill="#ffffb3" stroke="black" points="1153.49,-160.8 1004.51,-160.8 1004.51,-124.8 1153.49,-124.8 1153.49,-160.8"/>
<text text-anchor="middle" x="1079" y="-138.6" font-family="Times,serif" font-size="14.00">SenseEditorComponent</text>
</g>
<!-- SenseEditorComponent&#45;&gt;AppModule -->
<g id="edge11" class="edge">
<title>SenseEditorComponent&#45;&gt;AppModule</title>
<path fill="none" stroke="black" d="M1079,-160.95C1079,-184.56 1079,-222.8 1079,-222.8 1079,-222.8 3535.3,-222.8 3535.3,-222.8"/>
<polygon fill="black" stroke="black" points="3535.3,-226.3 3545.3,-222.8 3535.3,-219.3 3535.3,-226.3"/>
</g>
<!-- TagsetCreateEditComponent -->
<g id="node12" class="node">
<title>TagsetCreateEditComponent</title>
<polygon fill="#ffffb3" stroke="black" points="986.01,-160.8 807.99,-160.8 807.99,-124.8 986.01,-124.8 986.01,-160.8"/>
<text text-anchor="middle" x="897" y="-138.6" font-family="Times,serif" font-size="14.00">TagsetCreateEditComponent</text>
</g>
<!-- TagsetCreateEditComponent&#45;&gt;AppModule -->
<g id="edge12" class="edge">
<title>TagsetCreateEditComponent&#45;&gt;AppModule</title>
<path fill="none" stroke="black" d="M897,-161C897,-185.16 897,-224.8 897,-224.8 897,-224.8 3535.29,-224.8 3535.29,-224.8"/>
<polygon fill="black" stroke="black" points="3535.29,-228.3 3545.29,-224.8 3535.29,-221.3 3535.29,-228.3"/>
</g>
<!-- TagsetValueNotDuplicateNameDirective -->
<g id="node13" class="node">
<title>TagsetValueNotDuplicateNameDirective</title>
<polygon fill="#ffffb3" stroke="black" points="6216.68,-160.8 5969.32,-160.8 5969.32,-124.8 6216.68,-124.8 6216.68,-160.8"/>
<text text-anchor="middle" x="6093" y="-138.6" font-family="Times,serif" font-size="14.00">TagsetValueNotDuplicateNameDirective</text>
</g>
<!-- TagsetValueNotDuplicateNameDirective&#45;&gt;AppModule -->
<g id="edge13" class="edge">
<title>TagsetValueNotDuplicateNameDirective&#45;&gt;AppModule</title>
<path fill="none" stroke="black" d="M6093,-160.81C6093,-183.29 6093,-218.8 6093,-218.8 6093,-218.8 3638.66,-218.8 3638.66,-218.8"/>
<polygon fill="black" stroke="black" points="3638.66,-215.3 3628.66,-218.8 3638.66,-222.3 3638.66,-215.3"/>
</g>
<!-- TagsetsListComponent -->
<g id="node14" class="node">
<title>TagsetsListComponent</title>
<polygon fill="#ffffb3" stroke="black" points="5950.88,-160.8 5805.12,-160.8 5805.12,-124.8 5950.88,-124.8 5950.88,-160.8"/>
<text text-anchor="middle" x="5878" y="-138.6" font-family="Times,serif" font-size="14.00">TagsetsListComponent</text>
</g>
<!-- TagsetsListComponent&#45;&gt;AppModule -->
<g id="edge14" class="edge">
<title>TagsetsListComponent&#45;&gt;AppModule</title>
<path fill="none" stroke="black" d="M5878,-161.09C5878,-183.01 5878,-216.8 5878,-216.8 5878,-216.8 3638.72,-216.8 3638.72,-216.8"/>
<polygon fill="black" stroke="black" points="3638.72,-213.3 3628.72,-216.8 3638.72,-220.3 3638.72,-213.3"/>
</g>
<!-- UriValidator -->
<g id="node15" class="node">
<title>UriValidator</title>
<polygon fill="#ffffb3" stroke="black" points="5786.53,-160.8 5699.47,-160.8 5699.47,-124.8 5786.53,-124.8 5786.53,-160.8"/>
<text text-anchor="middle" x="5743" y="-138.6" font-family="Times,serif" font-size="14.00">UriValidator</text>
</g>
<!-- UriValidator&#45;&gt;AppModule -->
<g id="edge15" class="edge">
<title>UriValidator&#45;&gt;AppModule</title>
<path fill="none" stroke="black" d="M5743,-160.97C5743,-182.3 5743,-214.8 5743,-214.8 5743,-214.8 3639.1,-214.8 3639.1,-214.8"/>
<polygon fill="black" stroke="black" points="3639.1,-211.3 3629.1,-214.8 3639.1,-218.3 3639.1,-211.3"/>
</g>
<!-- UserFormComponent -->
<g id="node16" class="node">
<title>UserFormComponent</title>
<polygon fill="#ffffb3" stroke="black" points="5681.1,-160.8 5542.9,-160.8 5542.9,-124.8 5681.1,-124.8 5681.1,-160.8"/>
<text text-anchor="middle" x="5612" y="-138.6" font-family="Times,serif" font-size="14.00">UserFormComponent</text>
</g>
<!-- UserFormComponent&#45;&gt;AppModule -->
<g id="edge16" class="edge">
<title>UserFormComponent&#45;&gt;AppModule</title>
<path fill="none" stroke="black" d="M5612,-160.83C5612,-181.57 5612,-212.8 5612,-212.8 5612,-212.8 3638.83,-212.8 3638.83,-212.8"/>
<polygon fill="black" stroke="black" points="3638.83,-209.3 3628.83,-212.8 3638.83,-216.3 3638.83,-209.3"/>
</g>
<!-- UserListComponent -->
<g id="node17" class="node">
<title>UserListComponent</title>
<polygon fill="#ffffb3" stroke="black" points="5524.55,-160.8 5395.45,-160.8 5395.45,-124.8 5524.55,-124.8 5524.55,-160.8"/>
<text text-anchor="middle" x="5460" y="-138.6" font-family="Times,serif" font-size="14.00">UserListComponent</text>
</g>
<!-- UserListComponent&#45;&gt;AppModule -->
<g id="edge17" class="edge">
<title>UserListComponent&#45;&gt;AppModule</title>
<path fill="none" stroke="black" d="M5460,-161.11C5460,-180.95 5460,-209.8 5460,-209.8 5460,-209.8 3638.75,-209.8 3638.75,-209.8"/>
<polygon fill="black" stroke="black" points="3638.75,-206.3 3628.75,-209.8 3638.75,-213.3 3638.75,-206.3"/>
</g>
<!-- WhitespacesValidatorDirective -->
<g id="node18" class="node">
<title>WhitespacesValidatorDirective</title>
<polygon fill="#ffffb3" stroke="black" points="5376.7,-160.8 5185.3,-160.8 5185.3,-124.8 5376.7,-124.8 5376.7,-160.8"/>
<text text-anchor="middle" x="5281" y="-138.6" font-family="Times,serif" font-size="14.00">WhitespacesValidatorDirective</text>
</g>
<!-- WhitespacesValidatorDirective&#45;&gt;AppModule -->
<g id="edge18" class="edge">
<title>WhitespacesValidatorDirective&#45;&gt;AppModule</title>
<path fill="none" stroke="black" d="M5281,-160.91C5281,-180.14 5281,-207.8 5281,-207.8 5281,-207.8 3638.87,-207.8 3638.87,-207.8"/>
<polygon fill="black" stroke="black" points="3638.87,-204.3 3628.87,-207.8 3638.87,-211.3 3638.87,-204.3"/>
</g>
<!-- WorkspaceComponent -->
<g id="node19" class="node">
<title>WorkspaceComponent</title>
<polygon fill="#ffffb3" stroke="black" points="5167.3,-160.8 5022.7,-160.8 5022.7,-124.8 5167.3,-124.8 5167.3,-160.8"/>
<text text-anchor="middle" x="5095" y="-138.6" font-family="Times,serif" font-size="14.00">WorkspaceComponent</text>
</g>
<!-- WorkspaceComponent&#45;&gt;AppModule -->
<g id="edge19" class="edge">
<title>WorkspaceComponent&#45;&gt;AppModule</title>
<path fill="none" stroke="black" d="M5095,-161.02C5095,-179.63 5095,-205.8 5095,-205.8 5095,-205.8 3638.91,-205.8 3638.91,-205.8"/>
<polygon fill="black" stroke="black" points="3638.91,-202.3 3628.91,-205.8 3638.91,-209.3 3638.91,-202.3"/>
</g>
<!-- WorkspaceCorpusExplorerComponent -->
<g id="node20" class="node">
<title>WorkspaceCorpusExplorerComponent</title>
<polygon fill="#ffffb3" stroke="black" points="5004.72,-160.8 4771.28,-160.8 4771.28,-124.8 5004.72,-124.8 5004.72,-160.8"/>
<text text-anchor="middle" x="4888" y="-138.6" font-family="Times,serif" font-size="14.00">WorkspaceCorpusExplorerComponent</text>
</g>
<!-- WorkspaceCorpusExplorerComponent&#45;&gt;AppModule -->
<g id="edge20" class="edge">
<title>WorkspaceCorpusExplorerComponent&#45;&gt;AppModule</title>
<path fill="none" stroke="black" d="M4888,-161.1C4888,-179.07 4888,-203.8 4888,-203.8 4888,-203.8 3638.81,-203.8 3638.81,-203.8"/>
<polygon fill="black" stroke="black" points="3638.81,-200.3 3628.81,-203.8 3638.81,-207.3 3638.81,-200.3"/>
</g>
<!-- WorkspaceLayersVisibilityManagerComponent -->
<g id="node21" class="node">
<title>WorkspaceLayersVisibilityManagerComponent</title>
<polygon fill="#ffffb3" stroke="black" points="4753.54,-160.8 4468.46,-160.8 4468.46,-124.8 4753.54,-124.8 4753.54,-160.8"/>
<text text-anchor="middle" x="4611" y="-138.6" font-family="Times,serif" font-size="14.00">WorkspaceLayersVisibilityManagerComponent</text>
</g>
<!-- WorkspaceLayersVisibilityManagerComponent&#45;&gt;AppModule -->
<g id="edge21" class="edge">
<title>WorkspaceLayersVisibilityManagerComponent&#45;&gt;AppModule</title>
<path fill="none" stroke="black" d="M4611,-160.82C4611,-178.17 4611,-201.8 4611,-201.8 4611,-201.8 3638.73,-201.8 3638.73,-201.8"/>
<polygon fill="black" stroke="black" points="3638.73,-198.3 3628.73,-201.8 3638.73,-205.3 3638.73,-198.3"/>
</g>
<!-- WorkspaceLayoutComponent -->
<g id="node22" class="node">
<title>WorkspaceLayoutComponent</title>
<polygon fill="#ffffb3" stroke="black" points="4450.95,-160.8 4267.05,-160.8 4267.05,-124.8 4450.95,-124.8 4450.95,-160.8"/>
<text text-anchor="middle" x="4359" y="-138.6" font-family="Times,serif" font-size="14.00">WorkspaceLayoutComponent</text>
</g>
<!-- WorkspaceLayoutComponent&#45;&gt;AppModule -->
<g id="edge22" class="edge">
<title>WorkspaceLayoutComponent&#45;&gt;AppModule</title>
<path fill="none" stroke="black" d="M4359,-160.84C4359,-177.53 4359,-199.8 4359,-199.8 4359,-199.8 3638.78,-199.8 3638.78,-199.8"/>
<polygon fill="black" stroke="black" points="3638.78,-196.3 3628.78,-199.8 3638.78,-203.3 3638.78,-196.3"/>
</g>
<!-- WorkspaceLexiconEditTileComponent -->
<g id="node23" class="node">
<title>WorkspaceLexiconEditTileComponent</title>
<polygon fill="#ffffb3" stroke="black" points="4249.04,-160.8 4012.96,-160.8 4012.96,-124.8 4249.04,-124.8 4249.04,-160.8"/>
<text text-anchor="middle" x="4131" y="-138.6" font-family="Times,serif" font-size="14.00">WorkspaceLexiconEditTileComponent</text>
</g>
<!-- WorkspaceLexiconEditTileComponent&#45;&gt;AppModule -->
<g id="edge23" class="edge">
<title>WorkspaceLexiconEditTileComponent&#45;&gt;AppModule</title>
<path fill="none" stroke="black" d="M4131,-160.81C4131,-176.85 4131,-197.8 4131,-197.8 4131,-197.8 3638.78,-197.8 3638.78,-197.8"/>
<polygon fill="black" stroke="black" points="3638.78,-194.3 3628.78,-197.8 3638.78,-201.3 3638.78,-194.3"/>
</g>
<!-- WorkspaceLexiconTileComponent -->
<g id="node24" class="node">
<title>WorkspaceLexiconTileComponent</title>
<polygon fill="#ffffb3" stroke="black" points="3995.21,-160.8 3782.79,-160.8 3782.79,-124.8 3995.21,-124.8 3995.21,-160.8"/>
<text text-anchor="middle" x="3889" y="-138.6" font-family="Times,serif" font-size="14.00">WorkspaceLexiconTileComponent</text>
</g>
<!-- WorkspaceLexiconTileComponent&#45;&gt;AppModule -->
<g id="edge24" class="edge">
<title>WorkspaceLexiconTileComponent&#45;&gt;AppModule</title>
<path fill="none" stroke="black" d="M3889,-161.04C3889,-176.37 3889,-195.8 3889,-195.8 3889,-195.8 3638.67,-195.8 3638.67,-195.8"/>
<polygon fill="black" stroke="black" points="3638.67,-192.3 3628.67,-195.8 3638.67,-199.3 3638.67,-192.3"/>
</g>
<!-- WorkspaceListComponent -->
<g id="node25" class="node">
<title>WorkspaceListComponent</title>
<polygon fill="#ffffb3" stroke="black" points="3765.08,-160.8 3598.92,-160.8 3598.92,-124.8 3765.08,-124.8 3765.08,-160.8"/>
<text text-anchor="middle" x="3682" y="-138.6" font-family="Times,serif" font-size="14.00">WorkspaceListComponent</text>
</g>
<!-- WorkspaceListComponent&#45;&gt;AppModule -->
<g id="edge25" class="edge">
<title>WorkspaceListComponent&#45;&gt;AppModule</title>
<path fill="none" stroke="black" d="M3613.9,-161.02C3613.9,-161.02 3613.9,-182.53 3613.9,-182.53"/>
<polygon fill="black" stroke="black" points="3610.4,-182.53 3613.9,-192.53 3617.4,-182.53 3610.4,-182.53"/>
</g>
<!-- WorkspaceMenuComponent -->
<g id="node26" class="node">
<title>WorkspaceMenuComponent</title>
<polygon fill="#ffffb3" stroke="black" points="3580.46,-160.8 3403.54,-160.8 3403.54,-124.8 3580.46,-124.8 3580.46,-160.8"/>
<text text-anchor="middle" x="3492" y="-138.6" font-family="Times,serif" font-size="14.00">WorkspaceMenuComponent</text>
</g>
<!-- WorkspaceMenuComponent&#45;&gt;AppModule -->
<g id="edge26" class="edge">
<title>WorkspaceMenuComponent&#45;&gt;AppModule</title>
<path fill="none" stroke="black" d="M3562.82,-161.02C3562.82,-161.02 3562.82,-182.53 3562.82,-182.53"/>
<polygon fill="black" stroke="black" points="3559.32,-182.53 3562.82,-192.53 3566.32,-182.53 3559.32,-182.53"/>
</g>
<!-- WorkspaceTextSelectorComponent -->
<g id="node27" class="node">
<title>WorkspaceTextSelectorComponent</title>
<polygon fill="#ffffb3" stroke="black" points="3385.82,-160.8 3170.18,-160.8 3170.18,-124.8 3385.82,-124.8 3385.82,-160.8"/>
<text text-anchor="middle" x="3278" y="-138.6" font-family="Times,serif" font-size="14.00">WorkspaceTextSelectorComponent</text>
</g>
<!-- WorkspaceTextSelectorComponent&#45;&gt;AppModule -->
<g id="edge27" class="edge">
<title>WorkspaceTextSelectorComponent&#45;&gt;AppModule</title>
<path fill="none" stroke="black" d="M3278,-161.04C3278,-176.37 3278,-195.8 3278,-195.8 3278,-195.8 3535.33,-195.8 3535.33,-195.8"/>
<polygon fill="black" stroke="black" points="3535.33,-199.3 3545.33,-195.8 3535.33,-192.3 3535.33,-199.3"/>
</g>
<!-- WorkspaceTextWindowComponent -->
<g id="node28" class="node">
<title>WorkspaceTextWindowComponent</title>
<polygon fill="#ffffb3" stroke="black" points="3152.17,-160.8 2933.83,-160.8 2933.83,-124.8 3152.17,-124.8 3152.17,-160.8"/>
<text text-anchor="middle" x="3043" y="-138.6" font-family="Times,serif" font-size="14.00">WorkspaceTextWindowComponent</text>
</g>
<!-- WorkspaceTextWindowComponent&#45;&gt;AppModule -->
<g id="edge28" class="edge">
<title>WorkspaceTextWindowComponent&#45;&gt;AppModule</title>
<path fill="none" stroke="black" d="M3043,-160.81C3043,-176.85 3043,-197.8 3043,-197.8 3043,-197.8 3535.22,-197.8 3535.22,-197.8"/>
<polygon fill="black" stroke="black" points="3535.22,-201.3 3545.22,-197.8 3535.22,-194.3 3535.22,-201.3"/>
</g>
<!-- AppComponent  -->
<g id="node33" class="node">
<title>AppComponent </title>
<polygon fill="#80b1d3" stroke="black" points="3641.44,-296.8 3532.56,-296.8 3532.56,-260.8 3641.44,-260.8 3641.44,-296.8"/>
<text text-anchor="middle" x="3587" y="-274.6" font-family="Times,serif" font-size="14.00">AppComponent </text>
</g>
<!-- AppModule&#45;&gt;AppComponent  -->
<g id="edge32" class="edge">
<title>AppModule&#45;&gt;AppComponent </title>
<path fill="none" stroke="black" stroke-dasharray="1,5" d="M3587,-229.02C3587,-229.02 3587,-250.53 3587,-250.53"/>
<polygon fill="black" stroke="black" points="3583.5,-250.53 3587,-260.53 3590.5,-250.53 3583.5,-250.53"/>
</g>
<!-- AppRoutingModule -->
<g id="node30" class="node">
<title>AppRoutingModule</title>
<polygon fill="#8dd3c7" stroke="black" points="6514.28,-160.8 6511.28,-164.8 6490.28,-164.8 6487.28,-160.8 6385.72,-160.8 6385.72,-124.8 6514.28,-124.8 6514.28,-160.8"/>
<text text-anchor="middle" x="6450" y="-138.6" font-family="Times,serif" font-size="14.00">AppRoutingModule</text>
</g>
<!-- AppRoutingModule&#45;&gt;AppModule -->
<g id="edge29" class="edge">
<title>AppRoutingModule&#45;&gt;AppModule</title>
<path fill="none" stroke="black" d="M6450,-160.95C6450,-184.56 6450,-222.8 6450,-222.8 6450,-222.8 3638.85,-222.8 3638.85,-222.8"/>
<polygon fill="black" stroke="black" points="3638.85,-219.3 3628.85,-222.8 3638.85,-226.3 3638.85,-219.3"/>
</g>
<!-- AuthConfigModule -->
<g id="node31" class="node">
<title>AuthConfigModule</title>
<polygon fill="#8dd3c7" stroke="black" points="6367.44,-160.8 6364.44,-164.8 6343.44,-164.8 6340.44,-160.8 6240.56,-160.8 6240.56,-124.8 6367.44,-124.8 6367.44,-160.8"/>
<text text-anchor="middle" x="6304" y="-138.6" font-family="Times,serif" font-size="14.00">AuthConfigModule</text>
</g>
<!-- AuthConfigModule&#45;&gt;AppModule -->
<g id="edge30" class="edge">
<title>AuthConfigModule&#45;&gt;AppModule</title>
<path fill="none" stroke="black" d="M6304,-160.89C6304,-183.93 6304,-220.8 6304,-220.8 6304,-220.8 3638.86,-220.8 3638.86,-220.8"/>
<polygon fill="black" stroke="black" points="3638.86,-217.3 3628.86,-220.8 3638.86,-224.3 3638.86,-217.3"/>
</g>
<!-- IconsModule -->
<g id="node32" class="node">
<title>IconsModule</title>
<polygon fill="#8dd3c7" stroke="black" points="6621.88,-160.8 6618.88,-164.8 6597.88,-164.8 6594.88,-160.8 6532.12,-160.8 6532.12,-124.8 6621.88,-124.8 6621.88,-160.8"/>
<text text-anchor="middle" x="6577" y="-138.6" font-family="Times,serif" font-size="14.00">IconsModule</text>
</g>
<!-- IconsModule&#45;&gt;AppModule -->
<g id="edge31" class="edge">
<title>IconsModule&#45;&gt;AppModule</title>
<path fill="none" stroke="black" d="M6577,-161C6577,-185.16 6577,-224.8 6577,-224.8 6577,-224.8 3638.7,-224.8 3638.7,-224.8"/>
<polygon fill="black" stroke="black" points="3638.7,-221.3 3628.7,-224.8 3638.7,-228.3 3638.7,-221.3"/>
</g>
<!-- IconAddFolderComponent  -->
<g id="node45" class="node">
<title>IconAddFolderComponent </title>
<polygon fill="#fb8072" stroke="black" points="7154.37,-228.8 6983.63,-228.8 6983.63,-192.8 7154.37,-192.8 7154.37,-228.8"/>
<text text-anchor="middle" x="7069" y="-206.6" font-family="Times,serif" font-size="14.00">IconAddFolderComponent </text>
</g>
<!-- IconsModule&#45;&gt;IconAddFolderComponent  -->
<g id="edge44" class="edge">
<title>IconsModule&#45;&gt;IconAddFolderComponent </title>
<path fill="none" stroke="black" stroke-dasharray="5,2" d="M6621.97,-156.8C6743.42,-156.8 7069,-156.8 7069,-156.8 7069,-156.8 7069,-182.52 7069,-182.52"/>
<polygon fill="black" stroke="black" points="7065.5,-182.52 7069,-192.52 7072.5,-182.52 7065.5,-182.52"/>
</g>
<!-- IconAuthorComponent  -->
<g id="node46" class="node">
<title>IconAuthorComponent </title>
<polygon fill="#fb8072" stroke="black" points="6965.87,-228.8 6816.13,-228.8 6816.13,-192.8 6965.87,-192.8 6965.87,-228.8"/>
<text text-anchor="middle" x="6891" y="-206.6" font-family="Times,serif" font-size="14.00">IconAuthorComponent </text>
</g>
<!-- IconsModule&#45;&gt;IconAuthorComponent  -->
<g id="edge45" class="edge">
<title>IconsModule&#45;&gt;IconAuthorComponent </title>
<path fill="none" stroke="black" stroke-dasharray="5,2" d="M6621.99,-158.8C6708.81,-158.8 6891,-158.8 6891,-158.8 6891,-158.8 6891,-182.61 6891,-182.61"/>
<polygon fill="black" stroke="black" points="6887.5,-182.61 6891,-192.61 6894.5,-182.61 6887.5,-182.61"/>
</g>
<!-- IconBaseComponent  -->
<g id="node47" class="node">
<title>IconBaseComponent </title>
<polygon fill="#fb8072" stroke="black" points="6798.42,-228.8 6661.58,-228.8 6661.58,-192.8 6798.42,-192.8 6798.42,-228.8"/>
<text text-anchor="middle" x="6730" y="-206.6" font-family="Times,serif" font-size="14.00">IconBaseComponent </text>
</g>
<!-- IconsModule&#45;&gt;IconBaseComponent  -->
<g id="edge46" class="edge">
<title>IconsModule&#45;&gt;IconBaseComponent </title>
<path fill="none" stroke="black" stroke-dasharray="5,2" d="M6599.47,-161.03C6599.47,-185.73 6599.47,-226.8 6599.47,-226.8 6599.47,-226.8 6651.29,-226.8 6651.29,-226.8"/>
<polygon fill="black" stroke="black" points="6651.29,-230.3 6661.29,-226.8 6651.29,-223.3 6651.29,-230.3"/>
</g>
<!-- IconLayerGroupComponent  -->
<g id="node48" class="node">
<title>IconLayerGroupComponent </title>
<polygon fill="#fb8072" stroke="black" points="8186.12,-228.8 8007.88,-228.8 8007.88,-192.8 8186.12,-192.8 8186.12,-228.8"/>
<text text-anchor="middle" x="8097" y="-206.6" font-family="Times,serif" font-size="14.00">IconLayerGroupComponent </text>
</g>
<!-- IconsModule&#45;&gt;IconLayerGroupComponent  -->
<g id="edge47" class="edge">
<title>IconsModule&#45;&gt;IconLayerGroupComponent </title>
<path fill="none" stroke="black" stroke-dasharray="5,2" d="M6622.08,-144.8C6874.07,-144.8 8097,-144.8 8097,-144.8 8097,-144.8 8097,-182.77 8097,-182.77"/>
<polygon fill="black" stroke="black" points="8093.5,-182.77 8097,-192.77 8100.5,-182.77 8093.5,-182.77"/>
</g>
<!-- IconLockComponent  -->
<g id="node49" class="node">
<title>IconLockComponent </title>
<polygon fill="#fb8072" stroke="black" points="7990.47,-228.8 7851.53,-228.8 7851.53,-192.8 7990.47,-192.8 7990.47,-228.8"/>
<text text-anchor="middle" x="7921" y="-206.6" font-family="Times,serif" font-size="14.00">IconLockComponent </text>
</g>
<!-- IconsModule&#45;&gt;IconLockComponent  -->
<g id="edge48" class="edge">
<title>IconsModule&#45;&gt;IconLockComponent </title>
<path fill="none" stroke="black" stroke-dasharray="5,2" d="M6622.1,-146.8C6856.09,-146.8 7921,-146.8 7921,-146.8 7921,-146.8 7921,-182.63 7921,-182.63"/>
<polygon fill="black" stroke="black" points="7917.5,-182.63 7921,-192.63 7924.5,-182.63 7917.5,-182.63"/>
</g>
<!-- IconMoveComponent  -->
<g id="node50" class="node">
<title>IconMoveComponent </title>
<polygon fill="#fb8072" stroke="black" points="7834.37,-228.8 7691.63,-228.8 7691.63,-192.8 7834.37,-192.8 7834.37,-228.8"/>
<text text-anchor="middle" x="7763" y="-206.6" font-family="Times,serif" font-size="14.00">IconMoveComponent </text>
</g>
<!-- IconsModule&#45;&gt;IconMoveComponent  -->
<g id="edge49" class="edge">
<title>IconsModule&#45;&gt;IconMoveComponent </title>
<path fill="none" stroke="black" stroke-dasharray="5,2" d="M6622.04,-148.8C6838.68,-148.8 7763,-148.8 7763,-148.8 7763,-148.8 7763,-182.53 7763,-182.53"/>
<polygon fill="black" stroke="black" points="7759.5,-182.53 7763,-192.53 7766.5,-182.53 7759.5,-182.53"/>
</g>
<!-- IconNoteComponent  -->
<g id="node51" class="node">
<title>IconNoteComponent </title>
<polygon fill="#fb8072" stroke="black" points="7673.42,-228.8 7536.58,-228.8 7536.58,-192.8 7673.42,-192.8 7673.42,-228.8"/>
<text text-anchor="middle" x="7605" y="-206.6" font-family="Times,serif" font-size="14.00">IconNoteComponent </text>
</g>
<!-- IconsModule&#45;&gt;IconNoteComponent  -->
<g id="edge50" class="edge">
<title>IconsModule&#45;&gt;IconNoteComponent </title>
<path fill="none" stroke="black" stroke-dasharray="5,2" d="M6622.17,-150.8C6820.57,-150.8 7605,-150.8 7605,-150.8 7605,-150.8 7605,-182.8 7605,-182.8"/>
<polygon fill="black" stroke="black" points="7601.5,-182.8 7605,-192.8 7608.5,-182.8 7601.5,-182.8"/>
</g>
<!-- IconRenameComponent  -->
<g id="node52" class="node">
<title>IconRenameComponent </title>
<polygon fill="#fb8072" stroke="black" points="7518.58,-228.8 7363.42,-228.8 7363.42,-192.8 7518.58,-192.8 7518.58,-228.8"/>
<text text-anchor="middle" x="7441" y="-206.6" font-family="Times,serif" font-size="14.00">IconRenameComponent </text>
</g>
<!-- IconsModule&#45;&gt;IconRenameComponent  -->
<g id="edge51" class="edge">
<title>IconsModule&#45;&gt;IconRenameComponent </title>
<path fill="none" stroke="black" stroke-dasharray="5,2" d="M6621.93,-152.8C6799.28,-152.8 7441,-152.8 7441,-152.8 7441,-152.8 7441,-182.77 7441,-182.77"/>
<polygon fill="black" stroke="black" points="7437.5,-182.77 7441,-192.77 7444.5,-182.77 7437.5,-182.77"/>
</g>
<!-- IconUploadFileComponent  -->
<g id="node53" class="node">
<title>IconUploadFileComponent </title>
<polygon fill="#fb8072" stroke="black" points="7345.2,-228.8 7172.8,-228.8 7172.8,-192.8 7345.2,-192.8 7345.2,-228.8"/>
<text text-anchor="middle" x="7259" y="-206.6" font-family="Times,serif" font-size="14.00">IconUploadFileComponent </text>
</g>
<!-- IconsModule&#45;&gt;IconUploadFileComponent  -->
<g id="edge52" class="edge">
<title>IconsModule&#45;&gt;IconUploadFileComponent </title>
<path fill="none" stroke="black" stroke-dasharray="5,2" d="M6622.01,-154.8C6774.04,-154.8 7259,-154.8 7259,-154.8 7259,-154.8 7259,-182.77 7259,-182.77"/>
<polygon fill="black" stroke="black" points="7255.5,-182.77 7259,-192.77 7262.5,-182.77 7255.5,-182.77"/>
</g>
<!-- PageControllersModule -->
<g id="node58" class="node">
<title>PageControllersModule</title>
<polygon fill="#8dd3c7" stroke="black" points="460.76,-228.8 457.76,-232.8 436.76,-232.8 433.76,-228.8 311.24,-228.8 311.24,-192.8 460.76,-192.8 460.76,-228.8"/>
<text text-anchor="middle" x="386" y="-206.6" font-family="Times,serif" font-size="14.00">PageControllersModule</text>
</g>
<!-- IconsModule&#45;&gt;PageControllersModule -->
<g id="edge57" class="edge">
<title>IconsModule&#45;&gt;PageControllersModule</title>
<path fill="none" stroke="black" d="M6554.53,-160.99C6554.53,-169.08 6554.53,-176.8 6554.53,-176.8 6554.53,-176.8 457.88,-176.8 457.88,-176.8 457.88,-176.8 457.88,-182.61 457.88,-182.61"/>
<polygon fill="black" stroke="black" points="454.38,-182.61 457.88,-192.61 461.38,-182.61 454.38,-182.61"/>
</g>
<!-- CommonService -->
<g id="node34" class="node">
<title>CommonService</title>
<ellipse fill="#fdb462" stroke="black" cx="708" cy="-142.8" rx="75.89" ry="18"/>
<text text-anchor="middle" x="708" y="-138.6" font-family="Times,serif" font-size="14.00">CommonService</text>
</g>
<!-- CommonService&#45;&gt;AppModule -->
<g id="edge33" class="edge">
<title>CommonService&#45;&gt;AppModule</title>
<path fill="none" stroke="black" d="M708,-161.03C708,-185.73 708,-226.8 708,-226.8 708,-226.8 3535.19,-226.8 3535.19,-226.8"/>
<polygon fill="black" stroke="black" points="3535.19,-230.3 3545.19,-226.8 3535.19,-223.3 3535.19,-230.3"/>
</g>
<!-- AuthConfigService -->
<g id="node35" class="node">
<title>AuthConfigService</title>
<ellipse fill="#fdb462" stroke="black" cx="6304" cy="-66.8" rx="86.27" ry="18"/>
<text text-anchor="middle" x="6304" y="-62.6" font-family="Times,serif" font-size="14.00">AuthConfigService</text>
</g>
<!-- AuthConfigService&#45;&gt;AuthConfigModule -->
<g id="edge34" class="edge">
<title>AuthConfigService&#45;&gt;AuthConfigModule</title>
<path fill="none" stroke="black" d="M6304,-84.81C6304,-84.81 6304,-114.65 6304,-114.65"/>
<polygon fill="black" stroke="black" points="6300.5,-114.65 6304,-124.65 6307.5,-114.65 6300.5,-114.65"/>
</g>
<!-- IconAddFolderComponent -->
<g id="node36" class="node">
<title>IconAddFolderComponent</title>
<polygon fill="#ffffb3" stroke="black" points="8692.37,-228.8 8525.63,-228.8 8525.63,-192.8 8692.37,-192.8 8692.37,-228.8"/>
<text text-anchor="middle" x="8609" y="-206.6" font-family="Times,serif" font-size="14.00">IconAddFolderComponent</text>
</g>
<!-- IconAddFolderComponent&#45;&gt;IconsModule -->
<g id="edge35" class="edge">
<title>IconAddFolderComponent&#45;&gt;IconsModule</title>
<path fill="none" stroke="black" d="M8609,-192.63C8609,-171.3 8609,-138.8 8609,-138.8 8609,-138.8 6632.29,-138.8 6632.29,-138.8"/>
<polygon fill="black" stroke="black" points="6632.29,-135.3 6622.29,-138.8 6632.29,-142.3 6632.29,-135.3"/>
</g>
<!-- IconAuthorComponent -->
<g id="node37" class="node">
<title>IconAuthorComponent</title>
<polygon fill="#ffffb3" stroke="black" points="8507.87,-228.8 8362.13,-228.8 8362.13,-192.8 8507.87,-192.8 8507.87,-228.8"/>
<text text-anchor="middle" x="8435" y="-206.6" font-family="Times,serif" font-size="14.00">IconAuthorComponent</text>
</g>
<!-- IconAuthorComponent&#45;&gt;IconsModule -->
<g id="edge36" class="edge">
<title>IconAuthorComponent&#45;&gt;IconsModule</title>
<path fill="none" stroke="black" d="M8435,-192.77C8435,-172.03 8435,-140.8 8435,-140.8 8435,-140.8 6632.01,-140.8 6632.01,-140.8"/>
<polygon fill="black" stroke="black" points="6632.01,-137.3 6622.01,-140.8 6632.01,-144.3 6632.01,-137.3"/>
</g>
<!-- IconBaseComponent -->
<g id="node38" class="node">
<title>IconBaseComponent</title>
<polygon fill="#ffffb3" stroke="black" points="8343.92,-228.8 8210.08,-228.8 8210.08,-192.8 8343.92,-192.8 8343.92,-228.8"/>
<text text-anchor="middle" x="8277" y="-206.6" font-family="Times,serif" font-size="14.00">IconBaseComponent</text>
</g>
<!-- IconBaseComponent&#45;&gt;IconsModule -->
<g id="edge37" class="edge">
<title>IconBaseComponent&#45;&gt;IconsModule</title>
<path fill="none" stroke="black" d="M8277,-192.58C8277,-172.43 8277,-142.8 8277,-142.8 8277,-142.8 6632.03,-142.8 6632.03,-142.8"/>
<polygon fill="black" stroke="black" points="6632.03,-139.3 6622.03,-142.8 6632.03,-146.3 6632.03,-139.3"/>
</g>
<!-- IconLayerGroupComponent -->
<g id="node39" class="node">
<title>IconLayerGroupComponent</title>
<polygon fill="#ffffb3" stroke="black" points="9704.12,-228.8 9529.88,-228.8 9529.88,-192.8 9704.12,-192.8 9704.12,-228.8"/>
<text text-anchor="middle" x="9617" y="-206.6" font-family="Times,serif" font-size="14.00">IconLayerGroupComponent</text>
</g>
<!-- IconLayerGroupComponent&#45;&gt;IconsModule -->
<g id="edge38" class="edge">
<title>IconLayerGroupComponent&#45;&gt;IconsModule</title>
<path fill="none" stroke="black" d="M9617,-192.57C9617,-167.87 9617,-126.8 9617,-126.8 9617,-126.8 6632.03,-126.8 6632.03,-126.8"/>
<polygon fill="black" stroke="black" points="6632.03,-123.3 6622.03,-126.8 6632.03,-130.3 6632.03,-123.3"/>
</g>
<!-- IconLockComponent -->
<g id="node40" class="node">
<title>IconLockComponent</title>
<polygon fill="#ffffb3" stroke="black" points="9511.47,-228.8 9376.53,-228.8 9376.53,-192.8 9511.47,-192.8 9511.47,-228.8"/>
<text text-anchor="middle" x="9444" y="-206.6" font-family="Times,serif" font-size="14.00">IconLockComponent</text>
</g>
<!-- IconLockComponent&#45;&gt;IconsModule -->
<g id="edge39" class="edge">
<title>IconLockComponent&#45;&gt;IconsModule</title>
<path fill="none" stroke="black" d="M9444,-192.6C9444,-168.44 9444,-128.8 9444,-128.8 9444,-128.8 6632.03,-128.8 6632.03,-128.8"/>
<polygon fill="black" stroke="black" points="6632.03,-125.3 6622.03,-128.8 6632.03,-132.3 6632.03,-125.3"/>
</g>
<!-- IconMoveComponent -->
<g id="node41" class="node">
<title>IconMoveComponent</title>
<polygon fill="#ffffb3" stroke="black" points="9358.37,-228.8 9219.63,-228.8 9219.63,-192.8 9358.37,-192.8 9358.37,-228.8"/>
<text text-anchor="middle" x="9289" y="-206.6" font-family="Times,serif" font-size="14.00">IconMoveComponent</text>
</g>
<!-- IconMoveComponent&#45;&gt;IconsModule -->
<g id="edge40" class="edge">
<title>IconMoveComponent&#45;&gt;IconsModule</title>
<path fill="none" stroke="black" d="M9289,-192.65C9289,-169.04 9289,-130.8 9289,-130.8 9289,-130.8 6632.09,-130.8 6632.09,-130.8"/>
<polygon fill="black" stroke="black" points="6632.09,-127.3 6622.09,-130.8 6632.09,-134.3 6632.09,-127.3"/>
</g>
<!-- IconNoteComponent -->
<g id="node42" class="node">
<title>IconNoteComponent</title>
<polygon fill="#ffffb3" stroke="black" points="9201.92,-228.8 9068.08,-228.8 9068.08,-192.8 9201.92,-192.8 9201.92,-228.8"/>
<text text-anchor="middle" x="9135" y="-206.6" font-family="Times,serif" font-size="14.00">IconNoteComponent</text>
</g>
<!-- IconNoteComponent&#45;&gt;IconsModule -->
<g id="edge41" class="edge">
<title>IconNoteComponent&#45;&gt;IconsModule</title>
<path fill="none" stroke="black" d="M9135,-192.71C9135,-169.67 9135,-132.8 9135,-132.8 9135,-132.8 6631.94,-132.8 6631.94,-132.8"/>
<polygon fill="black" stroke="black" points="6631.94,-129.3 6621.94,-132.8 6631.94,-136.3 6631.94,-129.3"/>
</g>
<!-- IconRenameComponent -->
<g id="node43" class="node">
<title>IconRenameComponent</title>
<polygon fill="#ffffb3" stroke="black" points="9050.08,-228.8 8897.92,-228.8 8897.92,-192.8 9050.08,-192.8 9050.08,-228.8"/>
<text text-anchor="middle" x="8974" y="-206.6" font-family="Times,serif" font-size="14.00">IconRenameComponent</text>
</g>
<!-- IconRenameComponent&#45;&gt;IconsModule -->
<g id="edge42" class="edge">
<title>IconRenameComponent&#45;&gt;IconsModule</title>
<path fill="none" stroke="black" d="M8974,-192.79C8974,-170.31 8974,-134.8 8974,-134.8 8974,-134.8 6631.95,-134.8 6631.95,-134.8"/>
<polygon fill="black" stroke="black" points="6631.95,-131.3 6621.95,-134.8 6631.95,-138.3 6631.95,-131.3"/>
</g>
<!-- IconUploadFileComponent -->
<g id="node44" class="node">
<title>IconUploadFileComponent</title>
<polygon fill="#ffffb3" stroke="black" points="8879.7,-228.8 8710.3,-228.8 8710.3,-192.8 8879.7,-192.8 8879.7,-228.8"/>
<text text-anchor="middle" x="8795" y="-206.6" font-family="Times,serif" font-size="14.00">IconUploadFileComponent</text>
</g>
<!-- IconUploadFileComponent&#45;&gt;IconsModule -->
<g id="edge43" class="edge">
<title>IconUploadFileComponent&#45;&gt;IconsModule</title>
<path fill="none" stroke="black" d="M8795,-192.51C8795,-170.59 8795,-136.8 8795,-136.8 8795,-136.8 6632.06,-136.8 6632.06,-136.8"/>
<polygon fill="black" stroke="black" points="6632.06,-133.3 6622.06,-136.8 6632.06,-140.3 6632.06,-133.3"/>
</g>
<!-- FooterComponent -->
<g id="node54" class="node">
<title>FooterComponent</title>
<polygon fill="#ffffb3" stroke="black" points="587.88,-160.8 470.12,-160.8 470.12,-124.8 587.88,-124.8 587.88,-160.8"/>
<text text-anchor="middle" x="529" y="-138.6" font-family="Times,serif" font-size="14.00">FooterComponent</text>
</g>
<!-- FooterComponent&#45;&gt;PageControllersModule -->
<g id="edge53" class="edge">
<title>FooterComponent&#45;&gt;PageControllersModule</title>
<path fill="none" stroke="black" d="M469.88,-142.8C461.07,-142.8 454.87,-142.8 454.87,-142.8 454.87,-142.8 454.87,-182.58 454.87,-182.58"/>
<polygon fill="black" stroke="black" points="451.37,-182.58 454.87,-192.58 458.37,-182.58 451.37,-182.58"/>
</g>
<!-- HeaderComponent -->
<g id="node55" class="node">
<title>HeaderComponent</title>
<polygon fill="#ffffb3" stroke="black" points="451.75,-160.8 330.25,-160.8 330.25,-124.8 451.75,-124.8 451.75,-160.8"/>
<text text-anchor="middle" x="391" y="-138.6" font-family="Times,serif" font-size="14.00">HeaderComponent</text>
</g>
<!-- HeaderComponent&#45;&gt;PageControllersModule -->
<g id="edge54" class="edge">
<title>HeaderComponent&#45;&gt;PageControllersModule</title>
<path fill="none" stroke="black" d="M391,-161.02C391,-161.02 391,-182.53 391,-182.53"/>
<polygon fill="black" stroke="black" points="387.5,-182.53 391,-192.53 394.5,-182.53 387.5,-182.53"/>
</g>
<!-- LoaderComponent -->
<g id="node56" class="node">
<title>LoaderComponent</title>
<polygon fill="#ffffb3" stroke="black" points="312.47,-160.8 191.53,-160.8 191.53,-124.8 312.47,-124.8 312.47,-160.8"/>
<text text-anchor="middle" x="252" y="-138.6" font-family="Times,serif" font-size="14.00">LoaderComponent</text>
</g>
<!-- LoaderComponent&#45;&gt;PageControllersModule -->
<g id="edge55" class="edge">
<title>LoaderComponent&#45;&gt;PageControllersModule</title>
<path fill="none" stroke="black" d="M312.53,-142.8C317.87,-142.8 321.31,-142.8 321.31,-142.8 321.31,-142.8 321.31,-182.58 321.31,-182.58"/>
<polygon fill="black" stroke="black" points="317.81,-182.58 321.31,-192.58 324.81,-182.58 317.81,-182.58"/>
</g>
<!-- SideMenuComponent -->
<g id="node57" class="node">
<title>SideMenuComponent</title>
<polygon fill="#ffffb3" stroke="black" points="173.38,-160.8 34.62,-160.8 34.62,-124.8 173.38,-124.8 173.38,-160.8"/>
<text text-anchor="middle" x="104" y="-138.6" font-family="Times,serif" font-size="14.00">SideMenuComponent</text>
</g>
<!-- SideMenuComponent&#45;&gt;PageControllersModule -->
<g id="edge56" class="edge">
<title>SideMenuComponent&#45;&gt;PageControllersModule</title>
<path fill="none" stroke="black" d="M168.62,-161.07C168.62,-179.36 168.62,-204.8 168.62,-204.8 168.62,-204.8 301.19,-204.8 301.19,-204.8"/>
<polygon fill="black" stroke="black" points="301.19,-208.3 311.19,-204.8 301.19,-201.3 301.19,-208.3"/>
</g>
<!-- FooterComponent  -->
<g id="node59" class="node">
<title>FooterComponent </title>
<polygon fill="#fb8072" stroke="black" points="145.88,-296.8 24.12,-296.8 24.12,-260.8 145.88,-260.8 145.88,-296.8"/>
<text text-anchor="middle" x="85" y="-274.6" font-family="Times,serif" font-size="14.00">FooterComponent </text>
</g>
<!-- PageControllersModule&#45;&gt;FooterComponent  -->
<g id="edge58" class="edge">
<title>PageControllersModule&#45;&gt;FooterComponent </title>
<path fill="none" stroke="black" stroke-dasharray="5,2" d="M310.96,-216.8C223.3,-216.8 90.12,-216.8 90.12,-216.8 90.12,-216.8 90.12,-250.53 90.12,-250.53"/>
<polygon fill="black" stroke="black" points="86.63,-250.53 90.12,-260.53 93.63,-250.53 86.63,-250.53"/>
</g>
<!-- HeaderComponent  -->
<g id="node60" class="node">
<title>HeaderComponent </title>
<polygon fill="#fb8072" stroke="black" points="591.75,-296.8 466.25,-296.8 466.25,-260.8 591.75,-260.8 591.75,-296.8"/>
<text text-anchor="middle" x="529" y="-274.6" font-family="Times,serif" font-size="14.00">HeaderComponent </text>
</g>
<!-- PageControllersModule&#45;&gt;HeaderComponent  -->
<g id="edge59" class="edge">
<title>PageControllersModule&#45;&gt;HeaderComponent </title>
<path fill="none" stroke="black" stroke-dasharray="5,2" d="M454.56,-229.02C454.56,-249.17 454.56,-278.8 454.56,-278.8 454.56,-278.8 456.19,-278.8 456.19,-278.8"/>
<polygon fill="black" stroke="black" points="456.19,-282.3 466.19,-278.8 456.19,-275.3 456.19,-282.3"/>
</g>
<!-- LoaderComponent  -->
<g id="node61" class="node">
<title>LoaderComponent </title>
<polygon fill="#fb8072" stroke="black" points="448.47,-296.8 323.53,-296.8 323.53,-260.8 448.47,-260.8 448.47,-296.8"/>
<text text-anchor="middle" x="386" y="-274.6" font-family="Times,serif" font-size="14.00">LoaderComponent </text>
</g>
<!-- PageControllersModule&#45;&gt;LoaderComponent  -->
<g id="edge60" class="edge">
<title>PageControllersModule&#45;&gt;LoaderComponent </title>
<path fill="none" stroke="black" stroke-dasharray="5,2" d="M386,-229.02C386,-229.02 386,-250.53 386,-250.53"/>
<polygon fill="black" stroke="black" points="382.5,-250.53 386,-260.53 389.5,-250.53 382.5,-250.53"/>
</g>
<!-- SideMenuComponent  -->
<g id="node62" class="node">
<title>SideMenuComponent </title>
<polygon fill="#fb8072" stroke="black" points="306.38,-296.8 163.62,-296.8 163.62,-260.8 306.38,-260.8 306.38,-296.8"/>
<text text-anchor="middle" x="235" y="-274.6" font-family="Times,serif" font-size="14.00">SideMenuComponent </text>
</g>
<!-- PageControllersModule&#45;&gt;SideMenuComponent  -->
<g id="edge61" class="edge">
<title>PageControllersModule&#45;&gt;SideMenuComponent </title>
<path fill="none" stroke="black" stroke-dasharray="5,2" d="M317.44,-229.02C317.44,-249.17 317.44,-278.8 317.44,-278.8 317.44,-278.8 316.32,-278.8 316.32,-278.8"/>
<polygon fill="black" stroke="black" points="316.32,-275.3 306.32,-278.8 316.32,-282.3 316.32,-275.3"/>
</g>
</g>
</svg>
